<svg width="75" height="74" viewBox="0 0 75 74" fill="none" xmlns="http://www.w3.org/2000/svg">
<g id="Frame 1410125467">
<g id="Group 2013">
<g id="Rectangle 40">
<mask id="path-1-inside-1_6486_739" fill="white">
<path d="M8.50098 27.119H66.501V67.119H8.50098V27.119Z"/>
</mask>
<path d="M8.50098 27.119H66.501V67.119H8.50098V27.119Z" fill="#F5E5D6"/>
<path d="M66.001 27.119V67.119H67.001V27.119H66.001ZM9.00098 67.119V27.119H8.00098V67.119H9.00098Z" fill="#F0E4D9" mask="url(#path-1-inside-1_6486_739)"/>
</g>
<path id="Rectangle 41" d="M15.5 49C15.5 44.5817 19.0817 41 23.5 41C27.9183 41 31.5 44.5817 31.5 49V67H15.5V49Z" fill="#DDC4AD"/>
<path id="Rectangle 43" d="M42.167 47.3334C42.167 46.5049 42.8386 45.8334 43.667 45.8334H59.667C60.4954 45.8334 61.167 46.5049 61.167 47.3334V57.3334C61.167 58.1618 60.4954 58.8334 59.667 58.8334H43.667C42.8386 58.8334 42.167 58.1618 42.167 57.3334V47.3334Z" fill="#B6D6FF" stroke="#5D95D2" stroke-linejoin="round"/>
<path id="Vector 65" d="M41.667 52H61.667" stroke="#5D95D2" stroke-linejoin="round"/>
<path id="Vector 66" d="M51.667 45.3334L51.667 59.3334" stroke="#5D95D2" stroke-linejoin="round"/>
<g id="Group 2012">
<path id="Rectangle 39" d="M9.1416 8C9.1416 6.34315 10.4847 5 12.1416 5H62.8545C64.5113 5 65.8545 6.34315 65.8545 8V16H9.1416V8Z" fill="#8DBCEF"/>
<g id="BAKERY">
<path d="M28.1965 9.45589C28.1965 9.65637 28.1575 9.84013 28.0906 10.0016C28.0127 10.1687 27.8957 10.3135 27.7398 10.4304C27.8289 10.4694 27.918 10.5195 28.0015 10.5752C28.0795 10.6365 28.1463 10.7089 28.2132 10.7924C28.2688 10.8815 28.319 10.9817 28.3579 11.0931C28.3914 11.21 28.4081 11.3381 28.4081 11.4829C28.4081 11.7057 28.3747 11.895 28.3078 12.0509C28.241 12.2069 28.1463 12.3349 28.035 12.4352C27.9124 12.5354 27.7788 12.6078 27.6229 12.6524C27.4669 12.6969 27.2999 12.7192 27.1217 12.7192H24.3262V8.28088H26.9101C27.0883 8.28088 27.2553 8.30316 27.4113 8.33657C27.5672 8.38112 27.7008 8.44795 27.8233 8.53705C27.9347 8.63172 28.0294 8.75423 28.0962 8.89902C28.163 9.04937 28.1965 9.23314 28.1965 9.45589ZM27.2275 11.3103C27.2275 11.2379 27.2108 11.1711 27.1774 11.1098C27.144 11.0541 27.0994 11.0096 27.0493 10.965C26.9936 10.9316 26.9323 10.8982 26.8655 10.8759C26.7987 10.8536 26.7263 10.8369 26.6595 10.8258L25.4566 11.1544V11.7948H26.6595C26.821 11.7948 26.9546 11.7614 27.066 11.6834C27.1718 11.611 27.2275 11.4885 27.2275 11.3103ZM26.6873 9.90139C26.8098 9.87355 26.9045 9.82343 26.9713 9.74547C27.0326 9.67307 27.066 9.58954 27.066 9.50044C27.066 9.40577 27.027 9.33338 26.9491 9.28326C26.8711 9.23871 26.782 9.21087 26.6873 9.21087H25.4566V10.2021L26.6873 9.90139Z" fill="#FFF8EB"/>
<path d="M28.7953 12.7192L30.2989 8.28088H31.7579L33.2614 12.7192H32.1031L31.6799 11.4773L30.2432 11.8727L29.9536 12.7192H28.7953ZM30.5996 10.8202L31.3792 10.6031L31.0284 9.5617L30.5996 10.8202Z" fill="#FFF8EB"/>
<path d="M36.2674 12.7192L34.9198 10.8369V12.7192H33.7615V8.28088H34.9198V9.95151L36.2674 8.28088H37.5427L35.8275 10.4081L37.5427 12.7192H36.2674Z" fill="#FFF8EB"/>
<path d="M41.3882 9.97378V10.9316H39.1997V11.7669H41.5497V12.7192H38.0414V8.28088H41.494V9.23871H39.1997V9.97378H41.3882Z" fill="#FFF8EB"/>
<path d="M42.2125 8.28088H44.7017C44.8911 8.28088 45.0749 8.30873 45.2475 8.35885C45.4145 8.41453 45.5593 8.4925 45.6818 8.59273C45.8044 8.70411 45.899 8.83776 45.9714 9.00482C46.0382 9.17188 46.0772 9.37236 46.0772 9.59511C46.0772 9.89582 46.0271 10.1353 45.9269 10.3135C45.8266 10.5028 45.6763 10.6476 45.4814 10.759L46.3278 12.7192H45.1194L44.4289 11.0931L43.3708 11.327V12.7192H42.2125V8.28088ZM44.9245 9.62295C44.9245 9.52272 44.8911 9.42805 44.8243 9.35008C44.7519 9.27769 44.6572 9.23871 44.5458 9.23871H43.3708V10.3135L44.4289 10.1186C44.6182 10.0852 44.7463 10.0239 44.8187 9.9348C44.8855 9.8457 44.9245 9.74547 44.9245 9.62295Z" fill="#FFF8EB"/>
<path d="M47.6578 8.28088L48.5265 9.74547L49.3952 8.28088H50.6705L49.1001 10.8648V12.7192H47.9418V10.8481L46.3826 8.28088H47.6578Z" fill="#FFF8EB"/>
</g>
</g>
<g id="Group 2011">
<path id="Rectangle 38" d="M9.14706 16H65.8529L68.5 26H6.5L9.14706 16Z" fill="#5D95D2"/>
<path id="Union" d="M17.9998 29.8341C16.8075 31.1575 15.0103 32 12.9999 32C9.4101 32 6.5 29.3137 6.5 26H68.499C68.499 29.3137 65.5889 32 61.9991 32C59.9887 32 58.1915 31.1575 56.9992 29.8341C55.8069 31.1575 54.0097 32 51.9993 32C49.9889 32 48.1917 31.1575 46.9994 29.8341C45.8071 31.1575 44.0098 32 41.9994 32C40.253 32 38.6674 31.3642 37.4995 30.3296C36.3316 31.3642 34.746 32 32.9996 32C30.9892 32 29.1919 31.1575 27.9997 29.8341C26.8074 31.1575 25.0101 32 22.9997 32C20.9893 32 19.1921 31.1575 17.9998 29.8341Z" fill="#4F81B6"/>
</g>
<rect id="Rectangle 34625438" x="17.5" y="53" width="2" height="6" rx="1" fill="#D22E2F"/>
<rect id="Rectangle 34625439" x="4.5" y="67" width="66" height="2" rx="1" fill="#BFB2A6"/>
</g>
</g>
</svg>
