<svg width="71" height="70" viewBox="0 0 71 70" fill="none" xmlns="http://www.w3.org/2000/svg">
<g id="Frame 1410125468">
<g id="Group">
<path id="Vector" d="M59.2801 34.3113V45.2986C59.2801 47.5672 58.3598 49.7053 56.7638 51.6052C54.6028 57.4127 45.9107 61.7607 35.4975 61.7607C25.0843 61.7607 16.3904 57.4146 14.2312 51.6052C12.6353 49.7034 11.7149 47.5672 11.7149 45.2986V34.3113C5.38454 37.9901 1.44531 43.1151 1.44531 48.796C1.44531 59.9837 16.6923 69.0541 35.4994 69.0541C54.3064 69.0541 69.5534 59.9837 69.5534 48.796C69.5534 43.117 65.6124 37.9901 59.2838 34.3113H59.2801Z" fill="#F5E5D6"/>
<path id="Vector_2" d="M35.4968 59.449C26.177 59.449 18.131 56.2523 14.2305 51.6074C16.3915 57.4149 25.0836 61.763 35.4968 61.763C45.9099 61.763 54.6038 57.4168 56.7631 51.6074C52.8625 56.2523 44.8165 59.449 35.4968 59.449Z" fill="#BFB2A6"/>
<path id="Vector_3" d="M59.2781 25.5796V45.2971C59.2781 47.5656 58.3577 49.7018 56.7563 51.6112C52.8539 56.2428 44.8098 59.4566 35.4955 59.4566C26.1813 59.4566 18.1371 56.2428 14.2347 51.6112C12.6333 49.7018 11.7129 47.5656 11.7129 45.2971V25.5796C11.7129 33.4061 22.3525 39.7391 35.4955 39.7391C48.6385 39.7391 59.2781 33.4061 59.2781 25.5796Z" fill="#E1C9B3"/>
<path id="Vector_4" d="M35.4956 39.7373C48.6313 39.7373 59.2801 33.4024 59.2801 25.5891C59.2801 20.604 54.9359 16.2295 48.3865 13.7095C48.7288 14.3485 48.9295 15.0706 48.9295 15.7455C48.9295 17.5433 47.5103 18.999 45.7615 18.999C44.0128 18.999 42.5936 17.5414 42.5936 15.7455C42.5936 14.5356 43.2434 13.1915 44.1969 12.4315C42.9857 12.148 41.7321 11.9136 40.4325 11.751C40.0165 13.4373 38.8164 14.7871 37.2462 15.3788V23.5777C37.2462 24.5683 36.4639 25.3736 35.4975 25.3736C34.5311 25.3736 33.7487 24.5683 33.7487 23.5777V15.3788C32.1767 14.7889 30.9766 13.4373 30.5624 11.751C29.2628 11.9136 28.0092 12.148 26.798 12.4315C27.7515 13.1915 28.4013 14.5375 28.4013 15.7455C28.4013 17.5433 26.9821 18.999 25.2334 18.999C23.4847 18.999 22.0654 17.5414 22.0654 15.7455C22.0654 15.0706 22.2661 14.3485 22.6085 13.7095C16.059 16.2295 11.7148 20.604 11.7148 25.5891C11.7148 33.4024 22.3636 39.7373 35.4993 39.7373H35.4956ZM22.0618 30.8484C22.0618 29.0506 23.481 26.9219 25.2297 26.9219C26.9784 26.9219 28.3976 29.0524 28.3976 30.8484C28.3976 32.6443 26.9784 34.1019 25.2297 34.1019C23.481 34.1019 22.0618 32.6443 22.0618 30.8484ZM38.6654 32.4666C38.6654 34.2644 37.2462 35.7201 35.4975 35.7201C33.7487 35.7201 32.3295 34.2625 32.3295 32.4666C32.3295 30.6707 33.7487 28.5382 35.4975 28.5382C37.2462 28.5382 38.6654 30.6688 38.6654 32.4666ZM48.9313 30.8484C48.9313 32.6462 47.5121 34.1019 45.7634 34.1019C44.0147 34.1019 42.5954 32.6443 42.5954 30.8484C42.5954 29.0524 44.0147 26.9219 45.7634 26.9219C47.5121 26.9219 48.9313 29.0524 48.9313 30.8484ZM52.773 19.5189C54.5236 19.5189 55.9409 21.6494 55.9409 23.4453C55.9409 25.2413 54.5217 26.6988 52.773 26.6988C51.0243 26.6988 49.605 25.2413 49.605 23.4453C49.605 21.6494 51.0243 19.5189 52.773 19.5189ZM15.0521 23.4453C15.0521 21.6475 16.4714 19.5189 18.2201 19.5189C19.9688 19.5189 21.388 21.6494 21.388 23.4453C21.388 25.2413 19.9688 26.6988 18.2201 26.6988C16.4714 26.6988 15.0521 25.2413 15.0521 23.4453Z" fill="#F5E5D6"/>
<path id="Vector_5" d="M33.7471 15.3768V23.5757C33.7471 24.5663 34.5294 25.3717 35.4958 25.3717C36.4622 25.3717 37.2445 24.5663 37.2445 23.5757V15.3768C36.696 15.5829 36.1124 15.7133 35.4958 15.7133C34.8791 15.7133 34.2938 15.5829 33.7471 15.3768Z" fill="#97B5DC"/>
<g id="Group_2">
<path id="Vector_6" opacity="0.75" d="M32.3271 32.4649C32.3271 34.2627 33.7464 35.7183 35.4951 35.7183C37.2438 35.7183 38.663 34.2608 38.663 32.4649C38.663 30.6689 37.2438 28.5365 35.4951 28.5365C33.7464 28.5365 32.3271 30.667 32.3271 32.4649Z" fill="#D22E2F"/>
<path id="Vector_7" opacity="0.75" d="M45.7607 26.9202C44.0102 26.9202 42.5928 29.0507 42.5928 30.8466C42.5928 32.6426 44.012 34.1001 45.7607 34.1001C47.5094 34.1001 48.9287 32.6426 48.9287 30.8466C48.9287 29.0507 47.5094 26.9202 45.7607 26.9202Z" fill="#D22E2F"/>
<path id="Vector_8" opacity="0.75" d="M42.5917 15.7455C42.5917 17.5433 44.0109 18.999 45.7596 18.999C47.5084 18.999 48.9276 17.5414 48.9276 15.7455C48.9276 15.0706 48.7269 14.3485 48.3846 13.7095C47.8158 12.6471 46.8512 11.8171 45.7596 11.8171C45.1872 11.8171 44.657 12.061 44.1931 12.4296C43.2396 13.1896 42.5898 14.5356 42.5898 15.7436L42.5917 15.7455Z" fill="#D22E2F"/>
<path id="Vector_9" opacity="0.75" d="M52.7695 26.6986C54.5201 26.6986 55.9375 25.2411 55.9375 23.4452C55.9375 21.6492 54.5182 19.5187 52.7695 19.5187C51.0208 19.5187 49.6016 21.6492 49.6016 23.4452C49.6016 25.2411 51.0208 26.6986 52.7695 26.6986Z" fill="#D22E2F"/>
<path id="Vector_10" opacity="0.75" d="M28.3984 30.8481C28.3984 29.0503 26.9792 26.9216 25.2304 26.9216C23.4817 26.9216 22.0625 29.0522 22.0625 30.8481C22.0625 32.644 23.4817 34.1016 25.2304 34.1016C26.9792 34.1016 28.3984 32.644 28.3984 30.8481Z" fill="#D22E2F"/>
<path id="Vector_11" opacity="0.75" d="M25.2294 19.0005C26.9799 19.0005 28.3973 17.543 28.3973 15.747C28.3973 14.5371 27.7475 13.193 26.794 12.4331C26.3301 12.0625 25.8018 11.8206 25.2275 11.8206C24.1341 11.8206 23.1714 12.6505 22.6026 13.7129C22.2602 14.3519 22.0596 15.074 22.0596 15.7489C22.0596 17.5468 23.4788 19.0024 25.2275 19.0024L25.2294 19.0005Z" fill="#D22E2F"/>
<path id="Vector_12" opacity="0.75" d="M18.2197 26.6986C19.9703 26.6986 21.3877 25.2411 21.3877 23.4452C21.3877 21.6492 19.9684 19.5187 18.2197 19.5187C16.471 19.5187 15.0518 21.6492 15.0518 23.4452C15.0518 25.2411 16.471 26.6986 18.2197 26.6986Z" fill="#D22E2F"/>
<path id="Vector_13" d="M33.7471 15.3769C34.2956 15.5829 34.8791 15.7134 35.4958 15.7134C36.1125 15.7134 36.6978 15.5829 37.2445 15.3769C38.8165 14.787 40.0167 13.4354 40.4309 11.7491C40.5321 11.3369 40.6021 10.9116 40.6021 10.4673C40.6021 8.62981 38.5496 4.58801 37.0476 1.87331C36.3628 0.636955 34.627 0.636955 33.9422 1.87331C32.4401 4.58801 30.3877 8.6317 30.3877 10.4673C30.3877 10.9116 30.4576 11.3369 30.5589 11.7491C30.9749 13.4354 32.1769 14.7851 33.7471 15.3769ZM35.5363 9.59772C36.788 9.59772 37.8023 10.6394 37.8023 11.9249C37.8023 13.2104 36.788 14.252 35.5363 14.252C34.2846 14.252 33.2703 13.2104 33.2703 11.9249C33.2703 10.6394 34.2846 9.59772 35.5363 9.59772Z" fill="#D22E2F"/>
</g>
<path id="Vector_14" d="M35.5365 14.2517C36.7879 14.2517 37.8025 13.2098 37.8025 11.9246C37.8025 10.6393 36.7879 9.59741 35.5365 9.59741C34.285 9.59741 33.2705 10.6393 33.2705 11.9246C33.2705 13.2098 34.285 14.2517 35.5365 14.2517Z" fill="#FFF8EB"/>
</g>
</g>
</svg>
