<svg width="58" height="57" viewBox="0 0 58 57" fill="none" xmlns="http://www.w3.org/2000/svg">
<g id="&#235;&#178;&#160;&#236;&#157;&#180;&#237;&#130;&#185;&#236;&#166;&#129;,,,">
<path id="&#235;&#139;&#172;&#234;&#177;&#128;" d="M6.89531 35.2543C10.0755 35.2543 12.1261 37.2641 12.1261 39.7433C12.1261 42.2225 10.0755 44.2323 6.89531 44.2323C3.71515 44.2323 0.609375 42.2228 0.609375 39.7433C0.609375 37.2638 3.71515 35.2543 6.89531 35.2543Z" fill="#FFCCA8"/>
<ellipse id="Ellipse 2294" cx="29.5005" cy="21.0428" rx="27.5699" ry="9.21683" fill="#A1BCDA"/>
<ellipse id="Ellipse 2291" cx="29.5014" cy="26.279" rx="23.1332" ry="7.73363" fill="#FCD785"/>
<path id="Subtract" fill-rule="evenodd" clip-rule="evenodd" d="M56.6211 22.7109C54.2729 27.0049 43.0242 30.2595 29.5017 30.2595C15.4936 30.2595 3.9255 26.7669 2.16406 22.2444C3.65998 28.8474 4.99541 32.3663 8.6474 37.0178C12.2518 41.8561 18.2684 45.7783 29.5013 45.7783C40.7342 45.7783 46.7508 41.8561 50.3551 37.0178C53.1492 32.9057 54.5667 29.4124 56.6211 22.7109Z" fill="#5D95D2"/>
<g id="&#234;&#185;&#168;&#236;&#167;&#132; &#235;&#139;&#172;&#234;&#177;&#128;">
<path id="Vector" d="M35.1836 50.5117C35.1836 53.9205 37.3379 56.1184 39.9953 56.1184C42.3683 56.1184 44.3402 54.3657 44.735 51.5631C44.7823 51.2273 44.7963 51.2906 44.7963 50.9259L44.4088 50.5117H35.1836Z" fill="#FFCCA8"/>
<path id="Vector 55" d="M36.2474 51.3929C36.2474 51.3929 35.4077 51.0721 35.2951 50.8776C35.1824 50.683 35.1718 50.5744 35.1833 50.381C35.1947 50.1876 35.8133 49.6595 35.8133 49.6595L36.5974 50.1374L37.1295 49.4066L38.3196 49.9687L39.6077 49.1818L40.1678 49.5565L41.7499 49.4628L42.408 49.9687C42.735 49.93 42.8427 49.9052 43.1853 49.8057C43.5252 49.9162 43.8502 49.9804 44.2282 50.1374C44.991 50.4542 44.8116 51.3429 44.5782 51.7114L44.0182 50.8776L42.646 51.4585L41.3579 50.8776L40.0838 51.3929L38.9077 50.7371L37.7595 51.4585L36.7934 50.7371L36.2474 51.3929Z" fill="white"/>
</g>
<g id="&#234;&#185;&#168;&#236;&#167;&#132; &#235;&#139;&#172;&#234;&#177;&#128;_2">
<g id="Group 1990">
<path id="Vector_2" d="M51.2178 53.3149C54.6266 53.3149 57.3916 51.1607 57.3916 48.5033C57.3916 46.1302 55.6992 43.9182 52.3939 43.9182C51.8238 43.9182 50.2088 43.7241 49.0641 44.7691L49.0078 44.9943L51.2178 53.3149Z" fill="#FFCCA8"/>
</g>
<path id="Vector 56" d="M50.2024 45.3908L49.0694 44.7816C48.6633 45.4429 48.5742 45.5675 48.3602 46.312L47.875 47.8151L48.845 48.9788L47.875 49.2697L49.2815 50.9182L48.845 51.888C49.4323 52.7756 50.955 53.315 50.955 53.315C50.955 53.315 52.4431 52.662 52.5784 50.9182L51.4632 49.2697L52.239 47.5242L49.7177 46.312L50.2024 45.3908Z" fill="white"/>
</g>
<path id="Ellipse 2295" d="M56.555 21.0428C56.555 22.0904 55.9205 23.1699 54.5842 24.2261C53.2537 25.2778 51.2964 26.2474 48.832 27.0713C43.9083 28.7173 37.0736 29.7443 29.5005 29.7443C21.9274 29.7443 15.0927 28.7173 10.1691 27.0713C7.7046 26.2474 5.74735 25.2778 4.41679 24.2261C3.08058 23.1699 2.44599 22.0904 2.44599 21.0428C2.44599 19.9951 3.08058 18.9156 4.41679 17.8594C5.74735 16.8078 7.7046 15.8381 10.1691 15.0142C15.0927 13.3682 21.9274 12.3413 29.5005 12.3413C37.0736 12.3413 43.9083 13.3682 48.832 15.0142C51.2964 15.8381 53.2537 16.8078 54.5842 17.8594C55.9205 18.9156 56.555 19.9951 56.555 21.0428Z" stroke="white" stroke-width="1.03065"/>
<g id="&#234;&#177;&#176;&#237;&#146;&#136;&#234;&#184;&#176;">
<path id="Rectangle 38" d="M44.0783 16.5087C43.6553 16.863 43.0253 16.8074 42.6709 16.3845L40.2016 13.4373C39.8473 13.0143 39.9029 12.3842 40.3258 12.0299L48.0415 5.56551C49.2782 4.5293 51.1209 4.6919 52.1571 5.92868C53.1933 7.16546 53.0307 9.00809 51.7939 10.0443L44.0783 16.5087Z" fill="#D22E2F"/>
<path id="Rectangle 34625374" d="M36.4933 25.4373C34.6339 28.3842 30.4432 28.6664 28.2054 25.9955C25.9676 23.3245 26.9793 19.248 30.2063 17.9334L39.9795 13.9518L41.0522 15.2321L42.1248 16.5124L36.4933 25.4373Z" stroke="#717171" stroke-linejoin="round"/>
<path id="Rectangle 34625375" d="M31.4106 26.08C30.5339 27.0209 29.0312 26.9812 28.2053 25.9955C27.3794 25.0097 27.6035 23.5233 28.6834 22.8249L40.8311 14.9684L41.052 15.2321L41.273 15.4958L31.4106 26.08Z" stroke="#717171" stroke-linejoin="round"/>
</g>
<path id="Vector 57" d="M24.543 24.386C19.6577 23.2164 15.7815 25.1088 13.832 25.5962L21.1509 28.4546L32.0684 28.813L37.7477 28.4546L46.7734 25.5962C46.372 25.2234 44.6748 24.3747 41.0968 23.9619C36.6243 23.4458 30.5578 25.8259 24.543 24.386Z" fill="#FCD785"/>
</g>
</svg>
