<svg width="62" height="6" viewBox="0 0 62 6" fill="none" xmlns="http://www.w3.org/2000/svg">
<path id="Vector 61" d="M0.833333 3C0.833333 4.47276 2.02724 5.66667 3.5 5.66667C4.97276 5.66667 6.16667 4.47276 6.16667 3C6.16667 1.52724 4.97276 0.333333 3.5 0.333333C2.02724 0.333333 0.833333 1.52724 0.833333 3ZM55.8333 3C55.8333 4.47276 57.0272 5.66667 58.5 5.66667C59.9728 5.66667 61.1667 4.47276 61.1667 3C61.1667 1.52724 59.9728 0.333333 58.5 0.333333C57.0272 0.333333 55.8333 1.52724 55.8333 3ZM3.5 3.5H5.79167V2.5H3.5V3.5ZM10.375 3.5H14.9583V2.5H10.375V3.5ZM19.5417 3.5H24.125V2.5H19.5417V3.5ZM28.7083 3.5H33.2917V2.5H28.7083V3.5ZM37.875 3.5H42.4583V2.5H37.875V3.5ZM47.0417 3.5H51.625V2.5H47.0417V3.5ZM56.2083 3.5H58.5V2.5H56.2083V3.5Z" fill="#D22E2F"/>
</svg>
