<svg width="311" height="433" viewBox="0 0 311 433" fill="none" xmlns="http://www.w3.org/2000/svg">
<g filter="url(#filter0_d_6511_1521)">
<path d="M12 34C12 25.1634 19.1634 18 28 18H283C291.837 18 299 25.1634 299 34V427H12V34Z" fill="white" shape-rendering="crispEdges"/>
<path d="M130.5 34H180.5" stroke="#C0C0C0" stroke-width="4" stroke-linecap="round"/>
<path d="M33.375 67.8906C33.3594 70.375 34.7969 72.9062 36.8906 73.9219L35.9688 75.1094C34.4453 74.3203 33.2656 72.75 32.6562 70.875C32.0234 72.875 30.7969 74.5469 29.2031 75.375L28.2812 74.1719C30.4375 73.1406 31.8906 70.4531 31.8906 67.8906V65.5H33.375V67.8906ZM39.4219 64.3281V69.9062H41.6719V71.1719H39.4219V78.3281H37.9375V64.3281H39.4219ZM53.9375 64.3281V78.3594H52.4531V64.3281H53.9375ZM46.4531 65.375C48.5312 65.375 50.0625 67.2812 50.0625 70.2812C50.0625 73.2969 48.5312 75.2031 46.4531 75.2031C44.3438 75.2031 42.8281 73.2969 42.8281 70.2812C42.8281 67.2812 44.3438 65.375 46.4531 65.375ZM46.4531 66.7031C45.1562 66.7031 44.2656 68.0781 44.2656 70.2812C44.2656 72.5 45.1562 73.875 46.4531 73.875C47.7344 73.875 48.625 72.5 48.625 70.2812C48.625 68.0781 47.7344 66.7031 46.4531 66.7031ZM68.9844 75.2969V76.5156H56.1719V75.2969H68.9844ZM63.3281 67.2969C63.3281 69.4375 65.75 71.3281 68.4219 71.75L67.8281 72.9219C65.5703 72.5 63.4844 71.1797 62.5625 69.3438C61.6641 71.1953 59.5938 72.5547 57.375 72.9844L56.7656 71.7969C59.375 71.375 61.7812 69.4375 61.7812 67.2969V66.8594H57.2344V65.6562H67.875V66.8594H63.3281V67.2969Z" fill="#3E3E3E"/>
<rect x="28.5" y="92.5" width="74" height="89" rx="7.5" fill="#5D95D2" fill-opacity="0.13"/>
<rect x="28.5" y="92.5" width="74" height="89" rx="7.5" stroke="#5D95D2"/>
<circle cx="65.5" cy="122" r="14.5588" stroke="#5D95D2" stroke-width="0.882353"/>
<path opacity="0.6" d="M51.3828 121.118H79.6181" stroke="#5D95D2" stroke-width="0.882353" stroke-dasharray="1.76 1.76"/>
<path d="M60.7945 124.87V129.118H60.1465V125.518H60.1225L59.1145 126.178V125.566L60.1705 124.87H60.7945ZM63.3519 129.178C62.3739 129.178 61.7979 128.386 61.7919 126.994C61.7979 125.62 62.3799 124.816 63.3519 124.822C64.3299 124.816 64.9119 125.62 64.9119 126.994C64.9119 128.386 64.3359 129.178 63.3519 129.178ZM62.4399 126.994C62.4399 128.056 62.7819 128.62 63.3519 128.626C63.9279 128.62 64.2699 128.056 64.2639 126.994C64.2699 125.944 63.9219 125.362 63.3519 125.362C62.7879 125.362 62.4399 125.944 62.4399 126.994ZM66.9292 129.178C65.9992 129.184 65.4412 128.5 65.4412 127.546C65.4412 126.568 66.0232 125.896 66.9172 125.89C67.6432 125.896 68.1712 126.322 68.2372 126.97H67.6252C67.5592 126.67 67.3252 126.418 66.9292 126.418C66.4132 126.418 66.0712 126.844 66.0652 127.522C66.0712 128.218 66.4072 128.65 66.9292 128.65C67.2832 128.65 67.5472 128.452 67.6252 128.11H68.2372C68.1712 128.728 67.6792 129.184 66.9292 129.178ZM68.8371 129.118V125.938H69.4371V126.454H69.4731C69.6051 126.1 69.9231 125.896 70.3371 125.89C70.7631 125.896 71.0571 126.106 71.2011 126.454H71.2251C71.3811 126.112 71.7231 125.896 72.1851 125.89C72.7611 125.896 73.1691 126.256 73.1691 126.982V129.118H72.5451V127.042C72.5451 126.616 72.2751 126.436 71.9451 126.43C71.5431 126.436 71.3091 126.706 71.3091 127.09V129.118H70.6971V127.006C70.6911 126.664 70.4511 126.436 70.1091 126.43C69.7611 126.436 69.4611 126.73 69.4611 127.162V129.118H68.8371Z" fill="#5D95D2"/>
<path d="M58.8379 154.227H55.6621V156.793H59.9395V157.707H50.3301V156.793H54.5605V154.227H51.5254V149.305H58.7441V150.207H52.6387V153.336H58.8379V154.227ZM64.5566 151.168C64.5527 151.801 64.668 152.424 64.9023 153.037C65.1406 153.646 65.4707 154.189 65.8926 154.666C66.3184 155.143 66.7988 155.5 67.334 155.738L66.666 156.617C66.0684 156.332 65.5391 155.912 65.0781 155.357C64.6172 154.799 64.2617 154.158 64.0117 153.436C63.7656 154.213 63.4062 154.9 62.9336 155.498C62.4648 156.096 61.9199 156.547 61.2988 156.852L60.6191 155.914C61.1621 155.672 61.6465 155.305 62.0723 154.812C62.502 154.32 62.8359 153.756 63.0742 153.119C63.3125 152.479 63.4316 151.828 63.4316 151.168V149.375H64.5566V151.168ZM69.3965 159.02H68.2832V148.496H69.3965V159.02ZM76.2754 152.117H72.6191V153.465C73.584 153.461 74.416 153.438 75.1152 153.395C75.8145 153.348 76.5293 153.262 77.2598 153.137L77.377 154.039C76.6035 154.172 75.8418 154.262 75.0918 154.309C74.3457 154.355 73.4316 154.379 72.3496 154.379H71.5059V151.25H75.1855V150.02H71.4941V149.117H76.2754V152.117ZM79.3223 151.133H80.8574V152.059H79.3223V154.883H78.209V148.508H79.3223V151.133ZM79.3223 158.984H78.209V156.312H72.3848V155.41H79.3223V158.984Z" fill="#191919"/>
<path opacity="0.5" d="M55.5977 172H54.7305V167.203H54.6992L53.3477 168.086V167.266L54.7539 166.344H55.5977V172ZM59.0117 172.078C58.6081 172.078 58.2474 172.01 57.9297 171.875C57.6146 171.74 57.3685 171.552 57.1914 171.312C57.0169 171.07 56.931 170.797 56.9336 170.492C56.931 170.255 56.9818 170.035 57.0859 169.832C57.1901 169.626 57.332 169.457 57.5117 169.324C57.694 169.189 57.8945 169.104 58.1133 169.07V169.039C57.9232 168.995 57.7539 168.913 57.6055 168.793C57.4596 168.671 57.3464 168.521 57.2656 168.344C57.1849 168.167 57.1445 167.977 57.1445 167.773C57.1445 167.487 57.2253 167.229 57.3867 167C57.5482 166.771 57.7708 166.591 58.0547 166.461C58.3385 166.331 58.6576 166.266 59.0117 166.266C59.3633 166.266 59.6797 166.331 59.9609 166.461C60.2448 166.591 60.4661 166.771 60.625 167C60.7865 167.229 60.8685 167.487 60.8711 167.773C60.8685 167.977 60.8255 168.167 60.7422 168.344C60.6615 168.521 60.5482 168.671 60.4023 168.793C60.2565 168.913 60.0898 168.995 59.9023 169.039V169.07C60.1185 169.104 60.3164 169.189 60.4961 169.324C60.6784 169.457 60.8216 169.626 60.9258 169.832C61.0326 170.035 61.0872 170.255 61.0898 170.492C61.0872 170.797 60.9974 171.07 60.8203 171.312C60.6432 171.552 60.3971 171.74 60.082 171.875C59.7669 172.01 59.4102 172.078 59.0117 172.078ZM59.0117 171.367C59.2539 171.367 59.4648 171.328 59.6445 171.25C59.8268 171.172 59.9674 171.062 60.0664 170.922C60.1654 170.779 60.2148 170.615 60.2148 170.43C60.2148 170.237 60.1628 170.064 60.0586 169.91C59.9544 169.757 59.8112 169.637 59.6289 169.551C59.4466 169.465 59.2409 169.422 59.0117 169.422C58.7799 169.422 58.5716 169.465 58.3867 169.551C58.2018 169.637 58.0573 169.757 57.9531 169.91C57.8516 170.064 57.8034 170.237 57.8086 170.43C57.8034 170.615 57.849 170.777 57.9453 170.918C58.0417 171.059 58.181 171.169 58.3633 171.25C58.5482 171.328 58.7643 171.367 59.0117 171.367ZM59.0117 168.742C59.207 168.742 59.3815 168.706 59.5352 168.633C59.6914 168.557 59.8125 168.452 59.8984 168.316C59.9844 168.181 60.0273 168.026 60.0273 167.852C60.0273 167.68 59.9844 167.527 59.8984 167.395C59.8125 167.259 59.6927 167.155 59.5391 167.082C59.3854 167.007 59.2096 166.969 59.0117 166.969C58.806 166.969 58.625 167.005 58.4688 167.078C58.3125 167.151 58.1914 167.255 58.1055 167.391C58.0221 167.523 57.9805 167.677 57.9805 167.852C57.9805 168.026 58.0247 168.181 58.1133 168.316C58.2018 168.452 58.3242 168.557 58.4805 168.633C58.6367 168.706 58.8138 168.742 59.0117 168.742ZM62.1992 173.617H61.5352L61.9492 171.461H62.8242L62.1992 173.617ZM65.707 172.078C65.2721 172.078 64.8984 171.965 64.5859 171.738C64.276 171.512 64.0391 171.181 63.875 170.746C63.7109 170.309 63.6289 169.784 63.6289 169.172C63.6289 168.565 63.7109 168.044 63.875 167.609C64.0417 167.172 64.2812 166.839 64.5938 166.609C64.9062 166.38 65.2773 166.266 65.707 166.266C66.1367 166.266 66.5078 166.38 66.8203 166.609C67.1328 166.839 67.3711 167.172 67.5352 167.609C67.7018 168.044 67.7852 168.565 67.7852 169.172C67.7852 169.784 67.7031 170.307 67.5391 170.742C67.375 171.177 67.1367 171.509 66.8242 171.738C66.5117 171.965 66.1393 172.078 65.707 172.078ZM65.707 171.336C65.9622 171.336 66.181 171.254 66.3633 171.09C66.5456 170.923 66.6849 170.678 66.7812 170.355C66.8776 170.033 66.9258 169.638 66.9258 169.172C66.9258 168.708 66.8763 168.314 66.7773 167.988C66.681 167.66 66.5417 167.413 66.3594 167.246C66.1771 167.077 65.9596 166.992 65.707 166.992C65.4544 166.992 65.237 167.077 65.0547 167.246C64.8724 167.413 64.7318 167.66 64.6328 167.988C64.5365 168.314 64.4883 168.708 64.4883 169.172C64.4883 169.638 64.5365 170.033 64.6328 170.355C64.7292 170.678 64.8685 170.923 65.0508 171.09C65.2331 171.254 65.4518 171.336 65.707 171.336ZM70.6445 172.078C70.2096 172.078 69.8359 171.965 69.5234 171.738C69.2135 171.512 68.9766 171.181 68.8125 170.746C68.6484 170.309 68.5664 169.784 68.5664 169.172C68.5664 168.565 68.6484 168.044 68.8125 167.609C68.9792 167.172 69.2188 166.839 69.5312 166.609C69.8438 166.38 70.2148 166.266 70.6445 166.266C71.0742 166.266 71.4453 166.38 71.7578 166.609C72.0703 166.839 72.3086 167.172 72.4727 167.609C72.6393 168.044 72.7227 168.565 72.7227 169.172C72.7227 169.784 72.6406 170.307 72.4766 170.742C72.3125 171.177 72.0742 171.509 71.7617 171.738C71.4492 171.965 71.0768 172.078 70.6445 172.078ZM70.6445 171.336C70.8997 171.336 71.1185 171.254 71.3008 171.09C71.4831 170.923 71.6224 170.678 71.7188 170.355C71.8151 170.033 71.8633 169.638 71.8633 169.172C71.8633 168.708 71.8138 168.314 71.7148 167.988C71.6185 167.66 71.4792 167.413 71.2969 167.246C71.1146 167.077 70.8971 166.992 70.6445 166.992C70.3919 166.992 70.1745 167.077 69.9922 167.246C69.8099 167.413 69.6693 167.66 69.5703 167.988C69.474 168.314 69.4258 168.708 69.4258 169.172C69.4258 169.638 69.474 170.033 69.5703 170.355C69.6667 170.678 69.806 170.923 69.9883 171.09C70.1706 171.254 70.3893 171.336 70.6445 171.336ZM75.582 172.078C75.1471 172.078 74.7734 171.965 74.4609 171.738C74.151 171.512 73.9141 171.181 73.75 170.746C73.5859 170.309 73.5039 169.784 73.5039 169.172C73.5039 168.565 73.5859 168.044 73.75 167.609C73.9167 167.172 74.1562 166.839 74.4688 166.609C74.7812 166.38 75.1523 166.266 75.582 166.266C76.0117 166.266 76.3828 166.38 76.6953 166.609C77.0078 166.839 77.2461 167.172 77.4102 167.609C77.5768 168.044 77.6602 168.565 77.6602 169.172C77.6602 169.784 77.5781 170.307 77.4141 170.742C77.25 171.177 77.0117 171.509 76.6992 171.738C76.3867 171.965 76.0143 172.078 75.582 172.078ZM75.582 171.336C75.8372 171.336 76.056 171.254 76.2383 171.09C76.4206 170.923 76.5599 170.678 76.6562 170.355C76.7526 170.033 76.8008 169.638 76.8008 169.172C76.8008 168.708 76.7513 168.314 76.6523 167.988C76.556 167.66 76.4167 167.413 76.2344 167.246C76.0521 167.077 75.8346 166.992 75.582 166.992C75.3294 166.992 75.112 167.077 74.9297 167.246C74.7474 167.413 74.6068 167.66 74.5078 167.988C74.4115 168.314 74.3633 168.708 74.3633 169.172C74.3633 169.638 74.4115 170.033 74.5078 170.355C74.6042 170.678 74.7435 170.923 74.9258 171.09C75.1081 171.254 75.3268 171.336 75.582 171.336Z" fill="#2F2F2F"/>
<rect x="118.5" y="92.5" width="74" height="89" rx="7.5" stroke="#C0C0C0"/>
<circle cx="155.5" cy="120" r="16.5" stroke="#C0C0C0"/>
<path opacity="0.6" d="M139.5 119H171.5" stroke="#C0C0C0" stroke-dasharray="2 2"/>
<path d="M150.654 128H150.004V124.402H149.98L148.967 125.064V124.449L150.021 123.758H150.654V128ZM153.174 128.059C152.91 128.059 152.671 128.009 152.456 127.909C152.241 127.808 152.07 127.669 151.943 127.493C151.816 127.315 151.748 127.115 151.738 126.893H152.365C152.377 127.012 152.42 127.119 152.494 127.215C152.568 127.311 152.665 127.386 152.784 127.44C152.903 127.493 153.033 127.52 153.174 127.52C153.344 127.52 153.495 127.481 153.628 127.405C153.763 127.329 153.868 127.225 153.944 127.092C154.021 126.957 154.059 126.807 154.059 126.641C154.059 126.471 154.02 126.318 153.941 126.184C153.863 126.047 153.755 125.94 153.616 125.864C153.478 125.786 153.32 125.746 153.145 125.744C152.787 125.744 152.539 125.869 152.4 126.119H151.791L152.066 123.758H154.469V124.309H152.6L152.459 125.498H152.5C152.59 125.412 152.705 125.343 152.846 125.29C152.988 125.237 153.139 125.211 153.297 125.211C153.559 125.211 153.795 125.271 154.006 125.393C154.219 125.514 154.385 125.682 154.504 125.896C154.625 126.111 154.686 126.354 154.686 126.623C154.686 126.898 154.621 127.146 154.492 127.364C154.363 127.583 154.184 127.754 153.953 127.877C153.725 127.998 153.465 128.059 153.174 128.059ZM156.725 128.064C156.422 128.064 156.158 127.995 155.934 127.856C155.709 127.716 155.536 127.521 155.415 127.273C155.296 127.025 155.236 126.742 155.236 126.424C155.236 126.102 155.297 125.816 155.418 125.568C155.541 125.318 155.714 125.124 155.937 124.985C156.159 124.847 156.418 124.777 156.713 124.777C156.953 124.777 157.169 124.822 157.36 124.912C157.552 125 157.706 125.125 157.823 125.287C157.94 125.449 158.01 125.637 158.031 125.85H157.422C157.387 125.691 157.309 125.561 157.188 125.457C157.066 125.352 156.912 125.299 156.725 125.299C156.553 125.299 156.401 125.344 156.271 125.434C156.142 125.523 156.041 125.652 155.969 125.82C155.898 125.986 155.863 126.182 155.863 126.406C155.863 126.637 155.898 126.837 155.969 127.007C156.041 127.175 156.142 127.305 156.271 127.396C156.399 127.486 156.551 127.531 156.725 127.531C156.902 127.531 157.054 127.484 157.179 127.391C157.304 127.295 157.385 127.162 157.422 126.992H158.031C158.008 127.199 157.939 127.384 157.826 127.546C157.715 127.708 157.564 127.835 157.375 127.927C157.186 128.019 156.969 128.064 156.725 128.064ZM158.623 124.818H159.227V125.34H159.262C159.33 125.16 159.438 125.021 159.587 124.924C159.737 124.826 159.918 124.777 160.129 124.777C160.338 124.777 160.516 124.827 160.662 124.927C160.809 125.024 160.916 125.162 160.984 125.34H161.02C161.098 125.164 161.219 125.026 161.383 124.927C161.549 124.827 161.746 124.777 161.975 124.777C162.17 124.777 162.341 124.818 162.487 124.9C162.636 124.982 162.751 125.105 162.833 125.27C162.917 125.432 162.959 125.631 162.959 125.867V128H162.332V125.926C162.332 125.723 162.276 125.57 162.165 125.469C162.054 125.367 161.91 125.316 161.734 125.316C161.604 125.316 161.49 125.345 161.395 125.401C161.299 125.456 161.226 125.533 161.175 125.633C161.126 125.732 161.102 125.846 161.102 125.973V128H160.48V125.891C160.48 125.777 160.456 125.678 160.407 125.592C160.358 125.504 160.29 125.437 160.202 125.39C160.114 125.341 160.014 125.316 159.9 125.316C159.783 125.316 159.675 125.348 159.575 125.41C159.476 125.471 159.396 125.556 159.338 125.665C159.279 125.774 159.25 125.898 159.25 126.037V128H158.623V124.818Z" fill="#C0C0C0"/>
<path d="M151.598 158H150.297V150.805H150.25L148.223 152.129V150.898L150.332 149.516H151.598V158ZM162.484 150.875H153.848V149.973H157.621V148.648H158.723V149.973H162.484V150.875ZM163 157.812H153.391V156.91H157.621V155.521C157.008 155.482 156.48 155.379 156.039 155.211C155.598 155.039 155.258 154.811 155.02 154.525C154.785 154.236 154.668 153.898 154.668 153.512C154.668 153.094 154.809 152.734 155.09 152.434C155.371 152.133 155.775 151.904 156.303 151.748C156.83 151.588 157.453 151.508 158.172 151.508C158.887 151.508 159.506 151.588 160.029 151.748C160.553 151.904 160.955 152.133 161.236 152.434C161.521 152.734 161.664 153.094 161.664 153.512C161.664 153.895 161.545 154.23 161.307 154.52C161.072 154.809 160.734 155.039 160.293 155.211C159.852 155.379 159.328 155.482 158.723 155.521V156.91H163V157.812ZM158.172 152.387C157.418 152.387 156.834 152.484 156.42 152.68C156.006 152.875 155.801 153.152 155.805 153.512C155.801 153.871 156.004 154.148 156.414 154.344C156.828 154.539 157.414 154.641 158.172 154.648C158.918 154.641 159.496 154.539 159.906 154.344C160.32 154.148 160.527 153.871 160.527 153.512C160.527 153.152 160.32 152.875 159.906 152.68C159.492 152.484 158.914 152.387 158.172 152.387Z" fill="#717171"/>
<path opacity="0.5" d="M142.879 171.375L144.84 169.398C145.077 169.148 145.258 168.948 145.383 168.797C145.508 168.646 145.603 168.499 145.668 168.355C145.736 168.21 145.77 168.057 145.77 167.898C145.77 167.716 145.724 167.556 145.633 167.418C145.542 167.28 145.417 167.173 145.258 167.098C145.099 167.022 144.921 166.984 144.723 166.984C144.517 166.984 144.336 167.026 144.18 167.109C144.023 167.193 143.902 167.31 143.816 167.461C143.733 167.612 143.691 167.786 143.691 167.984H142.879C142.876 167.646 142.954 167.346 143.113 167.086C143.272 166.826 143.493 166.624 143.777 166.48C144.061 166.337 144.382 166.266 144.738 166.266C145.098 166.266 145.417 166.336 145.695 166.477C145.977 166.615 146.195 166.806 146.352 167.051C146.508 167.296 146.587 167.57 146.59 167.875C146.587 168.091 146.546 168.299 146.465 168.5C146.384 168.698 146.246 168.919 146.051 169.164C145.855 169.406 145.579 169.703 145.223 170.055L144.074 171.219V171.266H146.684V172H142.879V171.375ZM147.387 170.203L149.887 166.344H150.949V170.172H151.723V170.898H150.949V172H150.137V170.898H147.387V170.203ZM150.137 170.172V167.367H150.074L148.293 170.125V170.172H150.137ZM152.77 173.617H152.105L152.52 171.461H153.395L152.77 173.617ZM156.277 172.078C155.842 172.078 155.469 171.965 155.156 171.738C154.846 171.512 154.609 171.181 154.445 170.746C154.281 170.309 154.199 169.784 154.199 169.172C154.199 168.565 154.281 168.044 154.445 167.609C154.612 167.172 154.852 166.839 155.164 166.609C155.477 166.38 155.848 166.266 156.277 166.266C156.707 166.266 157.078 166.38 157.391 166.609C157.703 166.839 157.941 167.172 158.105 167.609C158.272 168.044 158.355 168.565 158.355 169.172C158.355 169.784 158.273 170.307 158.109 170.742C157.945 171.177 157.707 171.509 157.395 171.738C157.082 171.965 156.71 172.078 156.277 172.078ZM156.277 171.336C156.533 171.336 156.751 171.254 156.934 171.09C157.116 170.923 157.255 170.678 157.352 170.355C157.448 170.033 157.496 169.638 157.496 169.172C157.496 168.708 157.447 168.314 157.348 167.988C157.251 167.66 157.112 167.413 156.93 167.246C156.747 167.077 156.53 166.992 156.277 166.992C156.025 166.992 155.807 167.077 155.625 167.246C155.443 167.413 155.302 167.66 155.203 167.988C155.107 168.314 155.059 168.708 155.059 169.172C155.059 169.638 155.107 170.033 155.203 170.355C155.299 170.678 155.439 170.923 155.621 171.09C155.803 171.254 156.022 171.336 156.277 171.336ZM161.215 172.078C160.78 172.078 160.406 171.965 160.094 171.738C159.784 171.512 159.547 171.181 159.383 170.746C159.219 170.309 159.137 169.784 159.137 169.172C159.137 168.565 159.219 168.044 159.383 167.609C159.549 167.172 159.789 166.839 160.102 166.609C160.414 166.38 160.785 166.266 161.215 166.266C161.645 166.266 162.016 166.38 162.328 166.609C162.641 166.839 162.879 167.172 163.043 167.609C163.21 168.044 163.293 168.565 163.293 169.172C163.293 169.784 163.211 170.307 163.047 170.742C162.883 171.177 162.645 171.509 162.332 171.738C162.02 171.965 161.647 172.078 161.215 172.078ZM161.215 171.336C161.47 171.336 161.689 171.254 161.871 171.09C162.053 170.923 162.193 170.678 162.289 170.355C162.385 170.033 162.434 169.638 162.434 169.172C162.434 168.708 162.384 168.314 162.285 167.988C162.189 167.66 162.049 167.413 161.867 167.246C161.685 167.077 161.467 166.992 161.215 166.992C160.962 166.992 160.745 167.077 160.562 167.246C160.38 167.413 160.24 167.66 160.141 167.988C160.044 168.314 159.996 168.708 159.996 169.172C159.996 169.638 160.044 170.033 160.141 170.355C160.237 170.678 160.376 170.923 160.559 171.09C160.741 171.254 160.96 171.336 161.215 171.336ZM166.152 172.078C165.717 172.078 165.344 171.965 165.031 171.738C164.721 171.512 164.484 171.181 164.32 170.746C164.156 170.309 164.074 169.784 164.074 169.172C164.074 168.565 164.156 168.044 164.32 167.609C164.487 167.172 164.727 166.839 165.039 166.609C165.352 166.38 165.723 166.266 166.152 166.266C166.582 166.266 166.953 166.38 167.266 166.609C167.578 166.839 167.816 167.172 167.98 167.609C168.147 168.044 168.23 168.565 168.23 169.172C168.23 169.784 168.148 170.307 167.984 170.742C167.82 171.177 167.582 171.509 167.27 171.738C166.957 171.965 166.585 172.078 166.152 172.078ZM166.152 171.336C166.408 171.336 166.626 171.254 166.809 171.09C166.991 170.923 167.13 170.678 167.227 170.355C167.323 170.033 167.371 169.638 167.371 169.172C167.371 168.708 167.322 168.314 167.223 167.988C167.126 167.66 166.987 167.413 166.805 167.246C166.622 167.077 166.405 166.992 166.152 166.992C165.9 166.992 165.682 167.077 165.5 167.246C165.318 167.413 165.177 167.66 165.078 167.988C164.982 168.314 164.934 168.708 164.934 169.172C164.934 169.638 164.982 170.033 165.078 170.355C165.174 170.678 165.314 170.923 165.496 171.09C165.678 171.254 165.897 171.336 166.152 171.336Z" fill="#2F2F2F"/>
<rect x="208.5" y="92.5" width="74" height="89" rx="7.5" stroke="#C0C0C0"/>
<circle cx="245.5" cy="118" r="18.4412" stroke="#C0C0C0" stroke-width="1.11765"/>
<path opacity="0.6" d="M227.618 116.882H263.383" stroke="#C0C0C0" stroke-width="1.11765" stroke-dasharray="2.24 2.24"/>
<path d="M238.894 125.414L240.364 123.931C240.542 123.744 240.678 123.593 240.771 123.48C240.865 123.367 240.937 123.256 240.985 123.149C241.036 123.04 241.062 122.925 241.062 122.806C241.062 122.669 241.027 122.549 240.959 122.446C240.891 122.342 240.797 122.262 240.678 122.206C240.559 122.149 240.425 122.121 240.276 122.121C240.122 122.121 239.986 122.152 239.869 122.214C239.752 122.277 239.661 122.365 239.597 122.478C239.534 122.591 239.503 122.722 239.503 122.871H238.894C238.892 122.617 238.95 122.392 239.069 122.197C239.188 122.002 239.354 121.85 239.567 121.743C239.78 121.635 240.021 121.582 240.288 121.582C240.558 121.582 240.797 121.634 241.006 121.74C241.217 121.843 241.381 121.987 241.498 122.17C241.615 122.354 241.675 122.56 241.677 122.789C241.675 122.951 241.644 123.107 241.583 123.257C241.522 123.406 241.419 123.572 241.272 123.755C241.126 123.937 240.919 124.16 240.651 124.423L239.79 125.296V125.332H241.747V125.882H238.894V125.414ZM243.938 125.941C243.612 125.941 243.332 125.856 243.098 125.686C242.865 125.516 242.688 125.268 242.564 124.942C242.441 124.614 242.38 124.22 242.38 123.761C242.38 123.306 242.441 122.916 242.564 122.589C242.689 122.261 242.869 122.011 243.104 121.839C243.338 121.668 243.616 121.582 243.938 121.582C244.261 121.582 244.539 121.668 244.773 121.839C245.008 122.011 245.187 122.261 245.31 122.589C245.435 122.916 245.497 123.306 245.497 123.761C245.497 124.22 245.436 124.613 245.312 124.939C245.189 125.265 245.011 125.514 244.776 125.686C244.542 125.856 244.263 125.941 243.938 125.941ZM243.938 125.384C244.13 125.384 244.294 125.323 244.431 125.2C244.567 125.075 244.672 124.891 244.744 124.649C244.816 124.407 244.853 124.111 244.853 123.761C244.853 123.414 244.815 123.118 244.741 122.874C244.669 122.628 244.564 122.442 244.428 122.317C244.291 122.19 244.128 122.127 243.938 122.127C243.749 122.127 243.586 122.19 243.449 122.317C243.312 122.442 243.207 122.628 243.133 122.874C243.061 123.118 243.024 123.414 243.024 123.761C243.024 124.111 243.061 124.407 243.133 124.649C243.205 124.891 243.31 125.075 243.446 125.2C243.583 125.323 243.747 125.384 243.938 125.384ZM247.519 125.947C247.216 125.947 246.952 125.878 246.728 125.739C246.503 125.598 246.33 125.404 246.209 125.156C246.09 124.908 246.03 124.625 246.03 124.306C246.03 123.984 246.091 123.699 246.212 123.451C246.335 123.201 246.508 123.006 246.73 122.868C246.953 122.729 247.212 122.66 247.507 122.66C247.747 122.66 247.963 122.705 248.154 122.794C248.346 122.882 248.5 123.007 248.617 123.169C248.734 123.332 248.804 123.519 248.825 123.732H248.216C248.181 123.574 248.103 123.443 247.981 123.339C247.86 123.234 247.706 123.181 247.519 123.181C247.347 123.181 247.195 123.226 247.064 123.316C246.936 123.406 246.835 123.535 246.763 123.703C246.692 123.869 246.657 124.064 246.657 124.289C246.657 124.519 246.692 124.719 246.763 124.889C246.835 125.057 246.936 125.187 247.064 125.279C247.193 125.369 247.345 125.414 247.519 125.414C247.696 125.414 247.848 125.367 247.973 125.273C248.098 125.177 248.179 125.044 248.216 124.875H248.825C248.802 125.082 248.733 125.266 248.62 125.428C248.509 125.59 248.358 125.717 248.169 125.809C247.979 125.901 247.763 125.947 247.519 125.947ZM249.417 122.701H250.021V123.222H250.056C250.124 123.043 250.232 122.904 250.381 122.806C250.531 122.709 250.712 122.66 250.923 122.66C251.132 122.66 251.31 122.71 251.456 122.809C251.603 122.907 251.71 123.044 251.778 123.222H251.813C251.892 123.046 252.013 122.909 252.177 122.809C252.343 122.71 252.54 122.66 252.769 122.66C252.964 122.66 253.135 122.701 253.281 122.783C253.43 122.865 253.545 122.988 253.627 123.152C253.711 123.314 253.753 123.513 253.753 123.75V125.882H253.126V123.808C253.126 123.605 253.07 123.453 252.959 123.351C252.848 123.25 252.704 123.199 252.528 123.199C252.397 123.199 252.284 123.227 252.188 123.284C252.093 123.338 252.02 123.416 251.969 123.515C251.92 123.615 251.896 123.728 251.896 123.855V125.882H251.274V123.773C251.274 123.66 251.25 123.56 251.201 123.474C251.152 123.386 251.084 123.319 250.996 123.272C250.908 123.223 250.808 123.199 250.694 123.199C250.577 123.199 250.469 123.23 250.369 123.293C250.27 123.353 250.19 123.438 250.132 123.547C250.073 123.657 250.044 123.781 250.044 123.919V125.882H249.417V122.701Z" fill="#C0C0C0"/>
<path d="M237.496 157.062L240.438 154.098C240.793 153.723 241.064 153.422 241.252 153.195C241.439 152.969 241.582 152.748 241.68 152.533C241.781 152.314 241.832 152.086 241.832 151.848C241.832 151.574 241.764 151.334 241.627 151.127C241.49 150.92 241.303 150.76 241.064 150.646C240.826 150.533 240.559 150.477 240.262 150.477C239.953 150.477 239.682 150.539 239.447 150.664C239.213 150.789 239.031 150.965 238.902 151.191C238.777 151.418 238.715 151.68 238.715 151.977H237.496C237.492 151.469 237.609 151.02 237.848 150.629C238.086 150.238 238.418 149.936 238.844 149.721C239.27 149.506 239.75 149.398 240.285 149.398C240.824 149.398 241.303 149.504 241.721 149.715C242.143 149.922 242.471 150.209 242.705 150.576C242.939 150.943 243.059 151.355 243.062 151.812C243.059 152.137 242.996 152.449 242.875 152.75C242.754 153.047 242.547 153.379 242.254 153.746C241.961 154.109 241.547 154.555 241.012 155.082L239.289 156.828V156.898H243.203V158H237.496V157.062ZM253.363 150.875H244.727V149.973H248.5V148.648H249.602V149.973H253.363V150.875ZM253.879 157.812H244.27V156.91H248.5V155.521C247.887 155.482 247.359 155.379 246.918 155.211C246.477 155.039 246.137 154.811 245.898 154.525C245.664 154.236 245.547 153.898 245.547 153.512C245.547 153.094 245.688 152.734 245.969 152.434C246.25 152.133 246.654 151.904 247.182 151.748C247.709 151.588 248.332 151.508 249.051 151.508C249.766 151.508 250.385 151.588 250.908 151.748C251.432 151.904 251.834 152.133 252.115 152.434C252.4 152.734 252.543 153.094 252.543 153.512C252.543 153.895 252.424 154.23 252.186 154.52C251.951 154.809 251.613 155.039 251.172 155.211C250.73 155.379 250.207 155.482 249.602 155.521V156.91H253.879V157.812ZM249.051 152.387C248.297 152.387 247.713 152.484 247.299 152.68C246.885 152.875 246.68 153.152 246.684 153.512C246.68 153.871 246.883 154.148 247.293 154.344C247.707 154.539 248.293 154.641 249.051 154.648C249.797 154.641 250.375 154.539 250.785 154.344C251.199 154.148 251.406 153.871 251.406 153.512C251.406 153.152 251.199 152.875 250.785 152.68C250.371 152.484 249.793 152.387 249.051 152.387Z" fill="#717171"/>
<path opacity="0.5" d="M234.777 172.078C234.392 172.078 234.046 172.013 233.738 171.883C233.434 171.753 233.193 171.57 233.016 171.336C232.841 171.099 232.749 170.828 232.738 170.523H233.613C233.624 170.688 233.68 170.831 233.781 170.953C233.885 171.076 234.023 171.171 234.195 171.238C234.367 171.303 234.559 171.336 234.77 171.336C234.993 171.336 235.195 171.297 235.375 171.219C235.555 171.141 235.695 171.033 235.797 170.895C235.898 170.754 235.949 170.594 235.949 170.414C235.949 170.229 235.898 170.064 235.797 169.918C235.695 169.772 235.548 169.659 235.355 169.578C235.165 169.495 234.939 169.453 234.676 169.453H234.191V168.75H234.676C234.887 168.75 235.076 168.712 235.242 168.637C235.409 168.561 235.538 168.456 235.629 168.32C235.723 168.185 235.77 168.029 235.77 167.852C235.77 167.68 235.729 167.529 235.648 167.398C235.568 167.268 235.453 167.167 235.305 167.094C235.156 167.021 234.983 166.984 234.785 166.984C234.592 166.984 234.414 167.018 234.25 167.086C234.086 167.154 233.953 167.25 233.852 167.375C233.753 167.5 233.699 167.646 233.691 167.812H232.863C232.871 167.513 232.961 167.246 233.133 167.012C233.307 166.775 233.54 166.591 233.832 166.461C234.124 166.331 234.444 166.266 234.793 166.266C235.152 166.266 235.469 166.335 235.742 166.473C236.018 166.611 236.23 166.798 236.379 167.035C236.527 167.27 236.6 167.526 236.598 167.805C236.6 168.122 236.51 168.393 236.328 168.617C236.148 168.839 235.905 168.987 235.598 169.062V169.102C235.98 169.156 236.279 169.303 236.492 169.543C236.708 169.783 236.816 170.083 236.816 170.445C236.816 170.755 236.728 171.035 236.551 171.285C236.374 171.533 236.13 171.727 235.82 171.867C235.51 172.008 235.163 172.078 234.777 172.078ZM239.73 172.078C239.296 172.078 238.922 171.965 238.609 171.738C238.299 171.512 238.062 171.181 237.898 170.746C237.734 170.309 237.652 169.784 237.652 169.172C237.652 168.565 237.734 168.044 237.898 167.609C238.065 167.172 238.305 166.839 238.617 166.609C238.93 166.38 239.301 166.266 239.73 166.266C240.16 166.266 240.531 166.38 240.844 166.609C241.156 166.839 241.395 167.172 241.559 167.609C241.725 168.044 241.809 168.565 241.809 169.172C241.809 169.784 241.727 170.307 241.562 170.742C241.398 171.177 241.16 171.509 240.848 171.738C240.535 171.965 240.163 172.078 239.73 172.078ZM239.73 171.336C239.986 171.336 240.204 171.254 240.387 171.09C240.569 170.923 240.708 170.678 240.805 170.355C240.901 170.033 240.949 169.638 240.949 169.172C240.949 168.708 240.9 168.314 240.801 167.988C240.704 167.66 240.565 167.413 240.383 167.246C240.201 167.077 239.983 166.992 239.73 166.992C239.478 166.992 239.26 167.077 239.078 167.246C238.896 167.413 238.755 167.66 238.656 167.988C238.56 168.314 238.512 168.708 238.512 169.172C238.512 169.638 238.56 170.033 238.656 170.355C238.753 170.678 238.892 170.923 239.074 171.09C239.257 171.254 239.475 171.336 239.73 171.336ZM242.879 173.617H242.215L242.629 171.461H243.504L242.879 173.617ZM246.387 172.078C245.952 172.078 245.578 171.965 245.266 171.738C244.956 171.512 244.719 171.181 244.555 170.746C244.391 170.309 244.309 169.784 244.309 169.172C244.309 168.565 244.391 168.044 244.555 167.609C244.721 167.172 244.961 166.839 245.273 166.609C245.586 166.38 245.957 166.266 246.387 166.266C246.816 166.266 247.188 166.38 247.5 166.609C247.812 166.839 248.051 167.172 248.215 167.609C248.382 168.044 248.465 168.565 248.465 169.172C248.465 169.784 248.383 170.307 248.219 170.742C248.055 171.177 247.816 171.509 247.504 171.738C247.191 171.965 246.819 172.078 246.387 172.078ZM246.387 171.336C246.642 171.336 246.861 171.254 247.043 171.09C247.225 170.923 247.365 170.678 247.461 170.355C247.557 170.033 247.605 169.638 247.605 169.172C247.605 168.708 247.556 168.314 247.457 167.988C247.361 167.66 247.221 167.413 247.039 167.246C246.857 167.077 246.639 166.992 246.387 166.992C246.134 166.992 245.917 167.077 245.734 167.246C245.552 167.413 245.411 167.66 245.312 167.988C245.216 168.314 245.168 168.708 245.168 169.172C245.168 169.638 245.216 170.033 245.312 170.355C245.409 170.678 245.548 170.923 245.73 171.09C245.913 171.254 246.132 171.336 246.387 171.336ZM251.324 172.078C250.889 172.078 250.516 171.965 250.203 171.738C249.893 171.512 249.656 171.181 249.492 170.746C249.328 170.309 249.246 169.784 249.246 169.172C249.246 168.565 249.328 168.044 249.492 167.609C249.659 167.172 249.898 166.839 250.211 166.609C250.523 166.38 250.895 166.266 251.324 166.266C251.754 166.266 252.125 166.38 252.438 166.609C252.75 166.839 252.988 167.172 253.152 167.609C253.319 168.044 253.402 168.565 253.402 169.172C253.402 169.784 253.32 170.307 253.156 170.742C252.992 171.177 252.754 171.509 252.441 171.738C252.129 171.965 251.757 172.078 251.324 172.078ZM251.324 171.336C251.579 171.336 251.798 171.254 251.98 171.09C252.163 170.923 252.302 170.678 252.398 170.355C252.495 170.033 252.543 169.638 252.543 169.172C252.543 168.708 252.493 168.314 252.395 167.988C252.298 167.66 252.159 167.413 251.977 167.246C251.794 167.077 251.577 166.992 251.324 166.992C251.072 166.992 250.854 167.077 250.672 167.246C250.49 167.413 250.349 167.66 250.25 167.988C250.154 168.314 250.105 168.708 250.105 169.172C250.105 169.638 250.154 170.033 250.25 170.355C250.346 170.678 250.486 170.923 250.668 171.09C250.85 171.254 251.069 171.336 251.324 171.336ZM256.262 172.078C255.827 172.078 255.453 171.965 255.141 171.738C254.831 171.512 254.594 171.181 254.43 170.746C254.266 170.309 254.184 169.784 254.184 169.172C254.184 168.565 254.266 168.044 254.43 167.609C254.596 167.172 254.836 166.839 255.148 166.609C255.461 166.38 255.832 166.266 256.262 166.266C256.691 166.266 257.062 166.38 257.375 166.609C257.688 166.839 257.926 167.172 258.09 167.609C258.257 168.044 258.34 168.565 258.34 169.172C258.34 169.784 258.258 170.307 258.094 170.742C257.93 171.177 257.691 171.509 257.379 171.738C257.066 171.965 256.694 172.078 256.262 172.078ZM256.262 171.336C256.517 171.336 256.736 171.254 256.918 171.09C257.1 170.923 257.24 170.678 257.336 170.355C257.432 170.033 257.48 169.638 257.48 169.172C257.48 168.708 257.431 168.314 257.332 167.988C257.236 167.66 257.096 167.413 256.914 167.246C256.732 167.077 256.514 166.992 256.262 166.992C256.009 166.992 255.792 167.077 255.609 167.246C255.427 167.413 255.286 167.66 255.188 167.988C255.091 168.314 255.043 168.708 255.043 169.172C255.043 169.638 255.091 170.033 255.188 170.355C255.284 170.678 255.423 170.923 255.605 171.09C255.788 171.254 256.007 171.336 256.262 171.336Z" fill="#2F2F2F"/>
<path d="M33.9375 213.828V218.812H30.3906V221.688C31.9141 221.68 33.3672 221.625 35.0938 221.312L35.2188 222.531C33.2812 222.875 31.6875 222.922 29.9219 222.938H28.9531V217.625H32.5156V215.031H28.9375V213.828H33.9375ZM40.5312 212.328V226.328H39.1094V212.328H40.5312ZM37.6562 212.641V225.609H36.25V218.484H34.5938V217.281H36.25V212.641H37.6562ZM54.0156 212.328V226.359H52.5469V218.719H49.7656V217.5H52.5469V212.328H54.0156ZM49.5312 213.578V214.781H44.4844V217.5H48.9375V218.688H44.4844V221.812C46.8281 221.805 48.4531 221.75 50.3125 221.422L50.4688 222.625C48.4375 222.953 46.6719 223.031 44.0781 223.047H42.9844V213.578H49.5312ZM67.7812 212.344V220.922H66.2969V212.344H67.7812ZM63.3125 213.203V217.172H58.3594V218.922C60.8047 218.898 62.6094 218.828 64.7344 218.5L64.9219 219.703C62.6406 220.078 60.7188 220.141 58.0781 220.141H56.9062V216.031H61.8438V214.422H56.875V213.203H63.3125ZM63.1094 221.188C66.0625 221.188 67.875 222.109 67.875 223.75C67.875 225.359 66.0625 226.312 63.1094 226.297C60.1406 226.312 58.3438 225.359 58.3438 223.75C58.3438 222.109 60.1406 221.188 63.1094 221.188ZM63.1094 222.359C61.0312 222.359 59.8125 222.859 59.8125 223.75C59.8125 224.641 61.0312 225.125 63.1094 225.125C65.1875 225.125 66.3906 224.641 66.3906 223.75C66.3906 222.859 65.1875 222.359 63.1094 222.359ZM86.7031 219.406V220.609H81.1406V223.328H79.6719V220.609H73.8906V219.406H86.7031ZM85.0469 212.984V217.953H75.5312V212.984H85.0469ZM76.9844 214.156V216.781H83.5781V214.156H76.9844ZM85.2812 224.828V226.031H75.4844V222H76.9688V224.828H85.2812ZM98.875 213.203V214.438C98.875 215.766 98.875 217.203 98.4844 219.203H100.5V220.422H94.8281V226.344H93.3281V220.422H87.7344V219.203H96.9844C97.4062 217.211 97.4062 215.742 97.4062 214.438V214.422H89.2969V213.203H98.875Z" fill="#3E3E3E"/>
<rect x="28.5" y="240.5" width="254" height="33" rx="7.5" fill="#F8F8F9"/>
<rect x="28.5" y="240.5" width="254" height="33" rx="7.5" stroke="#C0C0C0"/>
<path d="M40.4111 262.44H39.1104V255.245H39.0635L37.0361 256.569V255.339L39.1455 253.956H40.4111V262.44ZM45.4502 262.557C44.9229 262.557 44.4443 262.458 44.0146 262.259C43.585 262.056 43.2432 261.778 42.9893 261.427C42.7354 261.071 42.5986 260.671 42.5791 260.225H43.833C43.8564 260.464 43.9424 260.679 44.0908 260.87C44.2393 261.061 44.4326 261.212 44.6709 261.321C44.9092 261.427 45.1689 261.479 45.4502 261.479C45.79 261.479 46.0928 261.403 46.3584 261.251C46.6279 261.099 46.8389 260.89 46.9912 260.624C47.1436 260.354 47.2197 260.054 47.2197 259.722C47.2197 259.382 47.1416 259.077 46.9854 258.807C46.8291 258.534 46.6123 258.321 46.335 258.169C46.0576 258.013 45.7432 257.932 45.3916 257.929C44.6768 257.929 44.1807 258.179 43.9033 258.679H42.6846L43.2354 253.956H48.04V255.057H44.3018L44.0205 257.436H44.1025C44.2822 257.265 44.5127 257.126 44.7939 257.02C45.0791 256.915 45.3799 256.862 45.6963 256.862C46.2197 256.862 46.6924 256.983 47.1143 257.225C47.54 257.468 47.8721 257.804 48.1104 258.233C48.3525 258.663 48.4736 259.147 48.4736 259.686C48.4736 260.237 48.3447 260.731 48.0869 261.169C47.8291 261.606 47.4697 261.948 47.0088 262.194C46.5518 262.436 46.0322 262.557 45.4502 262.557ZM53.1377 256.03C53.1377 256.581 53.251 257.14 53.4775 257.706C53.7041 258.272 54.0205 258.784 54.4268 259.241C54.8369 259.698 55.3018 260.05 55.8213 260.296L55.1885 261.163C54.6104 260.882 54.0947 260.466 53.6416 259.915C53.1924 259.364 52.8467 258.739 52.6045 258.04C52.3623 258.798 52.0049 259.479 51.5322 260.085C51.0635 260.686 50.5322 261.136 49.9385 261.432L49.2822 260.554C49.8018 260.304 50.2705 259.936 50.6885 259.452C51.1104 258.968 51.4404 258.425 51.6787 257.823C51.917 257.218 52.0361 256.62 52.0361 256.03V254.917H49.6689V253.991H55.4229V254.917H53.1377V256.03ZM57.6611 257.097H59.3486V258.034H57.6611V263.436H56.5479V252.936H57.6611V257.097ZM71.4775 263.46H70.3643V252.936H71.4775V263.46ZM65.8643 253.722C66.3838 253.722 66.8486 253.874 67.2588 254.179C67.6689 254.479 67.9893 254.909 68.2197 255.468C68.4541 256.022 68.5713 256.667 68.5713 257.401C68.5713 258.14 68.4541 258.788 68.2197 259.347C67.9893 259.905 67.6689 260.337 67.2588 260.641C66.8486 260.942 66.3838 261.093 65.8643 261.093C65.3369 261.093 64.8682 260.942 64.458 260.641C64.0479 260.337 63.7256 259.907 63.4912 259.352C63.2607 258.794 63.1455 258.143 63.1455 257.401C63.1455 256.663 63.2607 256.016 63.4912 255.462C63.7256 254.903 64.0479 254.474 64.458 254.173C64.8682 253.872 65.3369 253.722 65.8643 253.722ZM65.8643 254.718C65.54 254.718 65.2529 254.827 65.0029 255.046C64.7568 255.265 64.5654 255.577 64.4287 255.983C64.292 256.386 64.2236 256.858 64.2236 257.401C64.2236 257.948 64.292 258.425 64.4287 258.831C64.5654 259.237 64.7568 259.55 65.0029 259.768C65.2529 259.987 65.54 260.097 65.8643 260.097C66.1846 260.097 66.4678 259.987 66.7139 259.768C66.96 259.55 67.1514 259.237 67.2881 258.831C67.4248 258.425 67.4932 257.948 67.4932 257.401C67.4932 256.858 67.4248 256.386 67.2881 255.983C67.1514 255.577 66.96 255.265 66.7139 255.046C66.4678 254.827 66.1846 254.718 65.8643 254.718ZM82.1416 263.436H81.0752V258.057H79.7275V262.897H78.6846V253.147H79.7275V257.143H81.0752V252.936H82.1416V263.436ZM74.7588 259.786C75.8877 259.774 76.9619 259.667 77.9814 259.464L78.0986 260.436C77.4229 260.557 76.7783 260.643 76.165 260.694C75.5557 260.741 74.9424 260.765 74.3252 260.765H73.6455V254.179H74.7588V259.786ZM93.1338 262.182H83.5244V261.245H87.7549V259.405H84.6963V256.065H90.8604V254.589H84.6729V253.675H91.9619V256.956H85.7979V258.491H92.208V259.405H88.8564V261.245H93.1338V262.182ZM100.493 254.823C100.493 255.272 100.593 255.704 100.792 256.118C100.995 256.532 101.286 256.901 101.665 257.225C102.048 257.55 102.501 257.8 103.024 257.975L102.462 258.843C101.876 258.64 101.366 258.343 100.933 257.952C100.503 257.561 100.173 257.106 99.9424 256.587C99.7119 257.157 99.3721 257.655 98.9229 258.081C98.4775 258.507 97.9502 258.827 97.3408 259.042L96.7432 258.175C97.2822 257.991 97.749 257.727 98.1436 257.384C98.5381 257.04 98.8408 256.647 99.0518 256.206C99.2666 255.761 99.376 255.296 99.3799 254.811V254.53H97.0713V253.628H102.755V254.53H100.493V254.823ZM105.075 255.632H106.599V256.569H105.075V259.265H103.962V252.936H105.075V255.632ZM105.075 263.436H103.962V260.682H98.1377V259.78H105.075V263.436ZM110.923 254.507C110.923 254.999 111.024 255.466 111.228 255.907C111.431 256.345 111.724 256.729 112.106 257.061C112.489 257.393 112.942 257.643 113.466 257.811L112.856 258.679C112.286 258.472 111.79 258.175 111.368 257.788C110.95 257.397 110.626 256.936 110.396 256.405C110.165 257.011 109.823 257.538 109.37 257.987C108.921 258.432 108.384 258.768 107.759 258.995L107.161 258.104C107.712 257.917 108.187 257.645 108.585 257.29C108.983 256.934 109.288 256.522 109.499 256.054C109.71 255.581 109.817 255.081 109.821 254.554V253.522H110.923V254.507ZM115.95 259.136H114.837V255.983H112.622V255.069H114.837V252.936H115.95V259.136ZM112.435 259.429C113.169 259.429 113.802 259.507 114.333 259.663C114.864 259.819 115.272 260.048 115.558 260.349C115.843 260.649 115.985 261.011 115.985 261.432C115.985 261.85 115.843 262.208 115.558 262.505C115.272 262.806 114.862 263.032 114.327 263.184C113.796 263.341 113.165 263.417 112.435 263.413C111.7 263.417 111.065 263.341 110.53 263.184C109.999 263.032 109.591 262.806 109.306 262.505C109.021 262.208 108.88 261.85 108.884 261.432C108.88 261.011 109.021 260.649 109.306 260.349C109.591 260.048 109.999 259.819 110.53 259.663C111.065 259.507 111.7 259.429 112.435 259.429ZM112.435 260.296C111.665 260.296 111.063 260.395 110.63 260.595C110.2 260.79 109.985 261.069 109.985 261.432C109.985 261.784 110.2 262.056 110.63 262.247C111.063 262.438 111.665 262.534 112.435 262.534C113.204 262.534 113.804 262.438 114.233 262.247C114.667 262.056 114.884 261.784 114.884 261.432C114.884 261.069 114.667 260.79 114.233 260.595C113.804 260.395 113.204 260.296 112.435 260.296ZM122.759 255.573H117.544V254.671H119.606V253.241H120.708V254.671H122.759V255.573ZM120.157 256.206C120.599 256.206 120.991 256.309 121.335 256.516C121.679 256.72 121.948 257.005 122.144 257.372C122.339 257.735 122.438 258.151 122.442 258.62C122.438 259.093 122.339 259.515 122.144 259.886C121.948 260.253 121.679 260.54 121.335 260.747C120.991 260.954 120.599 261.057 120.157 261.057C119.724 261.057 119.333 260.954 118.985 260.747C118.638 260.54 118.366 260.251 118.171 259.88C117.976 259.509 117.88 259.089 117.884 258.62C117.88 258.155 117.976 257.739 118.171 257.372C118.366 257.005 118.638 256.72 118.985 256.516C119.333 256.309 119.724 256.206 120.157 256.206ZM120.157 257.132C119.907 257.132 119.685 257.196 119.489 257.325C119.294 257.45 119.142 257.626 119.032 257.852C118.923 258.079 118.868 258.335 118.868 258.62C118.868 258.913 118.923 259.173 119.032 259.399C119.142 259.622 119.294 259.796 119.489 259.921C119.685 260.046 119.907 260.108 120.157 260.108C120.407 260.108 120.63 260.046 120.825 259.921C121.024 259.796 121.179 259.622 121.288 259.399C121.401 259.173 121.458 258.913 121.458 258.62C121.458 258.335 121.401 258.079 121.288 257.852C121.179 257.626 121.024 257.45 120.825 257.325C120.626 257.196 120.403 257.132 120.157 257.132ZM126.556 263.436H125.501V258.222H124.294V262.944H123.239V253.171H124.294V257.307H125.501V252.936H126.556V263.436ZM137.513 259.757H133.247V263.425H132.157V259.757H127.938V258.854H137.513V259.757ZM136.61 254.448H133.364C133.368 254.874 133.532 255.28 133.856 255.667C134.185 256.05 134.624 256.376 135.175 256.645C135.726 256.911 136.329 257.089 136.985 257.179L136.575 258.057C136.001 257.968 135.46 257.817 134.952 257.606C134.444 257.391 133.999 257.126 133.616 256.809C133.233 256.489 132.937 256.132 132.726 255.737C132.409 256.331 131.907 256.833 131.22 257.243C130.536 257.649 129.763 257.921 128.899 258.057L128.478 257.179C129.126 257.089 129.724 256.911 130.271 256.645C130.821 256.376 131.261 256.05 131.589 255.667C131.917 255.28 132.087 254.874 132.099 254.448H128.829V253.557H136.61V254.448ZM141.509 255.807C141.509 256.378 141.589 256.942 141.749 257.501C141.909 258.056 142.147 258.563 142.464 259.024C142.78 259.485 143.165 259.854 143.618 260.132L142.997 260.987C142.521 260.702 142.112 260.313 141.772 259.821C141.433 259.325 141.171 258.763 140.987 258.134C140.788 258.817 140.507 259.429 140.144 259.968C139.784 260.503 139.356 260.921 138.86 261.222L138.169 260.39C138.649 260.1 139.06 259.718 139.399 259.241C139.739 258.761 139.995 258.229 140.167 257.647C140.343 257.061 140.431 256.464 140.431 255.854V253.897H141.509V255.807ZM147.345 263.436H146.278V252.936H147.345V263.436ZM145.165 262.921H144.11V257.554H142.481V256.628H144.11V253.136H145.165V262.921ZM158.29 262.124H148.681V261.198H150.978V258.456C150.54 258.214 150.2 257.907 149.958 257.536C149.716 257.165 149.595 256.749 149.595 256.288C149.595 255.745 149.759 255.266 150.087 254.852C150.419 254.438 150.878 254.118 151.464 253.891C152.05 253.661 152.716 253.546 153.462 253.546C154.212 253.546 154.88 253.661 155.466 253.891C156.056 254.118 156.515 254.438 156.843 254.852C157.175 255.266 157.341 255.745 157.341 256.288C157.341 256.745 157.224 257.157 156.989 257.524C156.755 257.888 156.423 258.19 155.993 258.432V261.198H158.29V262.124ZM153.462 254.436C152.915 254.436 152.431 254.513 152.009 254.665C151.587 254.813 151.259 255.028 151.024 255.309C150.79 255.587 150.673 255.913 150.673 256.288C150.673 256.659 150.79 256.985 151.024 257.266C151.259 257.548 151.587 257.766 152.009 257.923C152.431 258.075 152.915 258.151 153.462 258.151C154.005 258.151 154.487 258.075 154.909 257.923C155.335 257.766 155.667 257.548 155.905 257.266C156.144 256.985 156.263 256.659 156.263 256.288C156.263 255.917 156.144 255.591 155.905 255.309C155.671 255.028 155.341 254.813 154.915 254.665C154.493 254.513 154.009 254.436 153.462 254.436ZM154.868 261.198V258.86C154.442 258.966 153.974 259.018 153.462 259.018C152.97 259.018 152.509 258.968 152.079 258.866V261.198H154.868ZM160.247 262.522C160.099 262.522 159.958 262.485 159.825 262.411C159.696 262.337 159.595 262.235 159.521 262.106C159.446 261.977 159.411 261.839 159.415 261.69C159.411 261.542 159.446 261.403 159.521 261.274C159.595 261.145 159.696 261.044 159.825 260.97C159.958 260.895 160.099 260.858 160.247 260.858C160.392 260.858 160.528 260.895 160.657 260.97C160.786 261.044 160.888 261.145 160.962 261.274C161.04 261.403 161.079 261.542 161.079 261.69C161.079 261.839 161.04 261.977 160.962 262.106C160.888 262.235 160.786 262.337 160.657 262.411C160.528 262.485 160.392 262.522 160.247 262.522Z" fill="#C0C0C0"/>
<path d="M34.7031 305.953C34.7031 307.281 34.5703 308.57 34.2031 309.781H36.1875V304.688H37.5938V317.641H36.1875V310.984H33.75C32.9688 312.695 31.6172 314.219 29.4062 315.453L28.5625 314.422C30.5938 313.289 31.8203 311.922 32.5156 310.359L28.7656 310.75L28.5625 309.469L32.9375 309.203C33.1094 308.555 33.2109 307.875 33.2656 307.172H29.25V305.953H34.7031ZM40.5469 304.328V318.328H39.1406V304.328H40.5469ZM53.9375 304.328V318.359H52.4531V304.328H53.9375ZM46.4531 305.375C48.5312 305.375 50.0625 307.281 50.0625 310.281C50.0625 313.297 48.5312 315.203 46.4531 315.203C44.3438 315.203 42.8281 313.297 42.8281 310.281C42.8281 307.281 44.3438 305.375 46.4531 305.375ZM46.4531 306.703C45.1562 306.703 44.2656 308.078 44.2656 310.281C44.2656 312.5 45.1562 313.875 46.4531 313.875C47.7344 313.875 48.625 312.5 48.625 310.281C48.625 308.078 47.7344 306.703 46.4531 306.703ZM67.4375 305.688V307.391C67.4375 309.438 67.4375 311.359 66.8281 314.266L65.3594 314.125C65.6562 312.844 65.8125 311.719 65.8906 310.672L57.4844 311.125L57.2969 309.906L65.9688 309.578C65.9922 308.828 65.9922 308.109 66 307.391V306.906H57.6875V305.688H67.4375ZM68.9375 315.234V316.453H56.1719V315.234H68.9375ZM80.8906 305.359V311.656H74.4531V305.359H80.8906ZM75.9062 306.562V310.469H79.4219V306.562H75.9062ZM84.9062 304.328V308.047H86.9375V309.297H84.9062V313.609H83.4219V304.328H84.9062ZM81.3125 313.344C81.2969 315.203 83.2969 316.688 85.9531 317.094L85.3594 318.266C83.2344 317.898 81.4375 316.859 80.5938 315.359C79.7266 316.859 77.9219 317.898 75.7969 318.266L75.2188 317.094C77.8438 316.688 79.8438 315.203 79.8438 313.344V312.938H81.3125V313.344Z" fill="#3E3E3E"/>
<circle cx="36" cy="342.5" r="7.5" stroke="#5D95D2"/>
<circle cx="36" cy="342.5" r="4" fill="#5D95D2"/>
<path d="M60.6211 346.576H49.4922V345.674H54.5098V342.885H55.5625V345.674H60.6211V346.576ZM59.5547 338.783H55.5898C55.5898 339.398 55.7881 339.964 56.1846 340.479C56.5811 340.993 57.1097 341.424 57.7705 341.771C58.4359 342.112 59.1628 342.347 59.9512 342.475L59.541 343.322C58.5247 343.14 57.6133 342.805 56.8066 342.317C56 341.825 55.4098 341.212 55.0361 340.479C54.667 341.212 54.0791 341.825 53.2725 342.317C52.4658 342.805 51.5521 343.14 50.5312 343.322L50.1074 342.475C50.9004 342.347 51.6296 342.112 52.2949 341.771C52.9648 341.424 53.498 340.993 53.8945 340.479C54.2956 339.964 54.4961 339.398 54.4961 338.783H50.5312V337.895H54.5098V336.213H55.5625V337.895H59.5547V338.783ZM71.3125 338.318V338.551C71.3079 339.202 71.2943 339.77 71.2715 340.253C71.2533 340.731 71.2077 341.285 71.1348 341.914C71.0618 342.538 70.9525 343.213 70.8066 343.938L69.7539 343.814C69.9635 342.857 70.1071 341.884 70.1846 340.896L62.7539 341.34L62.5762 340.396L70.2324 340.082C70.2507 339.654 70.2598 339.066 70.2598 338.318V338.031H62.9316V337.143H71.3125V338.318ZM72.666 346.453H61.5918V345.537H65.9395V342.393H66.9922V345.537H72.666V346.453ZM88.3203 343.91H83.248V348.107H82.1953V343.91H77.1914V343.021H88.3203V343.91ZM86.8711 341.367H78.627V336.637H86.8711V341.367ZM79.6797 340.52H85.8047V337.512H79.6797V340.52ZM95.3613 337.744C95.3613 338.405 95.5824 339.045 96.0244 339.665C96.471 340.28 97.043 340.804 97.7402 341.237C98.4375 341.666 99.1439 341.946 99.8594 342.078L99.3672 342.98C98.7474 342.835 98.1367 342.598 97.5352 342.27C96.9336 341.941 96.3936 341.536 95.915 341.053C95.4365 340.57 95.0697 340.039 94.8145 339.46C94.5592 340.034 94.1924 340.563 93.7139 341.046C93.2354 341.529 92.6953 341.937 92.0938 342.27C91.4967 342.598 90.8861 342.835 90.2617 342.98L89.7695 342.078C90.485 341.937 91.1891 341.654 91.8818 341.23C92.5745 340.802 93.1396 340.28 93.5771 339.665C94.0192 339.05 94.2402 338.41 94.2402 337.744V336.814H95.3613V337.744ZM100.434 346.453H89.3047V345.564H100.434V346.453Z" fill="#191919"/>
<circle cx="36" cy="371.5" r="7.5" stroke="#C0C0C0"/>
<path d="M59.5547 371.146H58.4883V368.562H55.9521C55.8792 369.023 55.6992 369.431 55.4121 369.786C55.1296 370.142 54.765 370.417 54.3184 370.613C53.8763 370.805 53.3841 370.9 52.8418 370.9C52.2357 370.9 51.6934 370.784 51.2148 370.552C50.7363 370.315 50.3604 369.987 50.0869 369.567C49.818 369.144 49.6836 368.663 49.6836 368.125C49.6836 367.596 49.818 367.125 50.0869 366.71C50.3604 366.295 50.7363 365.972 51.2148 365.739C51.6934 365.507 52.2357 365.391 52.8418 365.391C53.3796 365.391 53.8695 365.486 54.3115 365.678C54.7536 365.865 55.1159 366.129 55.3984 366.471C55.6855 366.812 55.8678 367.209 55.9453 367.66H58.4883V364.953H59.5547V371.146ZM52.8418 366.279C52.4316 366.275 52.0648 366.352 51.7412 366.512C51.4176 366.667 51.1647 366.885 50.9824 367.168C50.8001 367.451 50.709 367.77 50.709 368.125C50.709 368.49 50.8001 368.815 50.9824 369.103C51.1647 369.39 51.4176 369.613 51.7412 369.772C52.0648 369.932 52.4316 370.012 52.8418 370.012C53.2383 370.012 53.596 369.932 53.915 369.772C54.2386 369.608 54.4915 369.385 54.6738 369.103C54.8561 368.815 54.9473 368.49 54.9473 368.125C54.9473 367.77 54.8561 367.451 54.6738 367.168C54.4915 366.885 54.2386 366.667 53.915 366.512C53.596 366.352 53.2383 366.275 52.8418 366.279ZM59.5547 374.729H52.7734V376.082H60.0195V376.943H51.707V373.908H58.4883V372.678H51.6797V371.816H59.5547V374.729ZM71.1758 367.469C71.1758 368.166 71.1667 368.774 71.1484 369.294C71.1348 369.813 71.096 370.42 71.0322 371.112C70.9684 371.805 70.8659 372.559 70.7246 373.375L69.6309 373.266C69.7812 372.495 69.8929 371.771 69.9658 371.092C70.0387 370.408 70.082 369.807 70.0957 369.287C70.1139 368.763 70.123 368.157 70.123 367.469V367.141H62.7949V366.252H71.1758V367.469ZM72.666 375.316H61.5918V374.428H72.666V375.316ZM78.4355 370.504H75.1406V373.211C75.9564 373.206 76.6992 373.181 77.3691 373.136C78.0391 373.09 78.7454 373.001 79.4883 372.869L79.5703 373.758C78.7865 373.899 78.0527 373.993 77.3691 374.038C76.6855 374.079 75.8652 374.104 74.9082 374.113H74.1016V369.615H77.4102V367.195H74.0742V366.307H78.4355V370.504ZM84.082 377.107H83.0566V364.953H84.082V377.107ZM81.5938 376.465H80.582V370.217H79.0234V369.342H80.582V365.254H81.5938V376.465ZM95.8125 377.135H94.7324V364.953H95.8125V377.135ZM89.3457 365.896C89.9473 365.901 90.4827 366.079 90.9521 366.43C91.4215 366.776 91.7884 367.268 92.0527 367.906C92.3171 368.544 92.4492 369.287 92.4492 370.135C92.4492 370.982 92.3171 371.725 92.0527 372.363C91.7884 373.001 91.4215 373.493 90.9521 373.84C90.4827 374.186 89.9473 374.359 89.3457 374.359C88.7441 374.359 88.2064 374.186 87.7324 373.84C87.263 373.493 86.8962 373.001 86.6318 372.363C86.3721 371.725 86.2422 370.982 86.2422 370.135C86.2422 369.287 86.3721 368.544 86.6318 367.906C86.8962 367.268 87.263 366.776 87.7324 366.43C88.2018 366.079 88.7396 365.901 89.3457 365.896ZM89.3457 366.854C88.9401 366.858 88.5801 366.997 88.2656 367.271C87.9557 367.539 87.7142 367.922 87.541 368.419C87.3678 368.911 87.2812 369.483 87.2812 370.135C87.2812 370.786 87.3678 371.361 87.541 371.857C87.7142 372.35 87.958 372.73 88.2725 372.999C88.5869 373.268 88.9447 373.402 89.3457 373.402C89.7467 373.402 90.1045 373.268 90.4189 372.999C90.7334 372.73 90.9772 372.35 91.1504 371.857C91.3236 371.361 91.4102 370.786 91.4102 370.135C91.4102 369.483 91.3236 368.911 91.1504 368.419C90.9772 367.922 90.7334 367.539 90.4189 367.271C90.109 366.997 89.7513 366.858 89.3457 366.854Z" fill="#5F5F5F"/>
<circle cx="36" cy="400.5" r="7.5" stroke="#C0C0C0"/>
<path d="M59.1445 395.84C59.1445 396.701 59.1195 397.474 59.0693 398.157C59.0238 398.836 58.9053 399.613 58.7139 400.488H60.5664V401.391H55.5898V406.107H54.5098V401.391H49.4922V400.488H57.6406C57.8275 399.723 57.9596 398.95 58.0371 398.171L50.6953 398.547L50.5586 397.604L58.0986 397.344L58.1328 396.141V395.84V395.607H50.9004V394.719H59.1445V395.84ZM68.1133 395.225C68.1042 397.152 67.6712 398.866 66.8145 400.365C65.9577 401.865 64.4993 403.118 62.4395 404.125L61.8379 403.264C62.9499 402.73 63.8704 402.118 64.5996 401.425C65.3333 400.732 65.8984 399.964 66.2949 399.121L62.0703 399.531L61.8926 398.574L66.6299 398.26C66.8486 397.599 66.9831 396.883 67.0332 396.113H62.5078V395.225H68.1133ZM71.6406 406.107H70.5605V393.953H71.6406V406.107ZM80.1172 394.91C80.6458 394.91 81.1221 395.038 81.5459 395.293C81.9697 395.544 82.3024 395.895 82.5439 396.346C82.7855 396.792 82.9062 397.298 82.9062 397.863C82.9062 398.433 82.7855 398.941 82.5439 399.388C82.3024 399.834 81.9697 400.181 81.5459 400.427C81.1221 400.673 80.6458 400.794 80.1172 400.789C79.5794 400.794 79.0986 400.673 78.6748 400.427C78.2555 400.181 77.9274 399.834 77.6904 399.388C77.4535 398.941 77.3372 398.433 77.3418 397.863C77.3372 397.298 77.4535 396.792 77.6904 396.346C77.9274 395.895 78.2555 395.544 78.6748 395.293C79.0986 395.038 79.5794 394.91 80.1172 394.91ZM80.1172 395.84C79.7754 395.84 79.4655 395.926 79.1875 396.1C78.9095 396.273 78.693 396.514 78.5381 396.824C78.3831 397.13 78.3079 397.476 78.3125 397.863C78.3079 398.251 78.3831 398.599 78.5381 398.909C78.693 399.215 78.9095 399.454 79.1875 399.627C79.4655 399.8 79.7754 399.887 80.1172 399.887C80.459 399.887 80.7666 399.8 81.04 399.627C81.3135 399.454 81.5277 399.215 81.6826 398.909C81.8376 398.599 81.9173 398.251 81.9219 397.863C81.9173 397.476 81.8376 397.13 81.6826 396.824C81.5277 396.514 81.3135 396.273 81.04 396.1C80.7666 395.926 80.459 395.84 80.1172 395.84ZM87.5273 403.1H86.502V398.41H84.8887V402.662H83.877V394.199H84.8887V397.521H86.502V393.967H87.5273V403.1ZM87.8965 405.848H79.5566V401.883H80.623V404.945H87.8965V405.848ZM102.512 396.701C102.512 397.485 102.503 398.144 102.484 398.677C102.471 399.21 102.427 399.807 102.354 400.468C102.282 401.124 102.165 401.837 102.006 402.607L100.926 402.512C101.167 401.459 101.325 400.418 101.397 399.388L93.9805 399.791L93.8301 398.902L101.438 398.588C101.448 398.333 101.454 398.08 101.459 397.829C101.464 397.574 101.468 397.321 101.473 397.07V396.701V396.1H94.1582V395.197H102.512V396.701ZM103.893 404.398H92.8184V403.496H103.893V404.398ZM114.953 401.172H113.887V393.967H114.953V401.172ZM111.084 398H106.6V399.682H107.092C108.113 399.682 109.029 399.654 109.84 399.6C110.656 399.545 111.499 399.445 112.369 399.299L112.492 400.201C111.526 400.352 110.594 400.454 109.696 400.509C108.803 400.559 107.753 400.584 106.545 400.584H105.561V397.152H110.018V395.566H105.533V394.705H111.084V398ZM114.953 405.943H107.051V401.828H114.953V405.943ZM108.104 405.068H113.9V402.703H108.104V405.068Z" fill="#5F5F5F"/>
</g>
<rect x="12" y="346" width="287" height="80" fill="url(#paint0_linear_6511_1521)"/>
<defs>
<filter id="filter0_d_6511_1521" x="0" y="0" width="311" height="433" filterUnits="userSpaceOnUse" color-interpolation-filters="sRGB">
<feFlood flood-opacity="0" result="BackgroundImageFix"/>
<feColorMatrix in="SourceAlpha" type="matrix" values="0 0 0 0 0 0 0 0 0 0 0 0 0 0 0 0 0 0 127 0" result="hardAlpha"/>
<feOffset dy="-6"/>
<feGaussianBlur stdDeviation="6"/>
<feComposite in2="hardAlpha" operator="out"/>
<feColorMatrix type="matrix" values="0 0 0 0 0 0 0 0 0 0 0 0 0 0 0 0 0 0 0.05 0"/>
<feBlend mode="normal" in2="BackgroundImageFix" result="effect1_dropShadow_6511_1521"/>
<feBlend mode="normal" in="SourceGraphic" in2="effect1_dropShadow_6511_1521" result="shape"/>
</filter>
<linearGradient id="paint0_linear_6511_1521" x1="155.5" y1="346" x2="155.5" y2="426" gradientUnits="userSpaceOnUse">
<stop stop-color="#FFF8EB" stop-opacity="0"/>
<stop offset="1" stop-color="#FFF8EB"/>
</linearGradient>
</defs>
</svg>
