<svg width="360" height="105" viewBox="0 0 360 105" fill="none" xmlns="http://www.w3.org/2000/svg">
<path opacity="0.8" d="M14.3284 0H345.672L360 38H0L14.3284 0Z" fill="#5D95D2"/>
<path fill-rule="evenodd" clip-rule="evenodd" d="M359.996 72C359.999 72.1744 360 72.3491 360 72.5242C360 90.4601 345.307 105 327.182 105C314.21 105 302.997 97.5529 297.668 86.7437C292.34 97.5529 281.126 105 268.155 105C255.183 105 243.969 97.5525 238.641 86.7427C233.313 97.5525 222.099 105 209.127 105C196.156 105 184.942 97.553 179.614 86.7437C174.285 97.553 163.072 105 150.1 105C137.129 105 125.915 97.5529 120.587 86.7437C115.258 97.5529 104.045 105 91.0732 105C78.407 105 67.4167 97.8993 61.9456 87.5011C56.4745 97.8993 45.4842 105 32.818 105C14.693 105 -0.000213623 90.4601 -0.000213623 72.5242C-0.000213623 72.3491 0.00119019 72.1744 0.00396729 72H-0.3125V38H360.688V72H359.996Z" fill="#5D95D2"/>
</svg>
