<svg width="25" height="25" viewBox="0 0 25 25" fill="none" xmlns="http://www.w3.org/2000/svg">
<path d="M15.0407 19.4688C15.0407 21.1256 13.6976 22.4688 12.0407 22.4688C10.3839 22.4688 9.04074 21.1256 9.04074 19.4688M13.8372 6.70731C14.2727 6.25739 14.5407 5.64437 14.5407 4.96875C14.5407 3.58804 13.4214 2.46875 12.0407 2.46875C10.66 2.46875 9.54074 3.58804 9.54074 4.96875C9.54074 5.64437 9.80874 6.25739 10.2442 6.70731M18.0407 11.6687C18.0407 10.2896 17.4086 8.96698 16.2834 7.99179C15.1582 7.01661 13.632 6.46875 12.0407 6.46875C10.4494 6.46875 8.92331 7.01661 7.7981 7.99179C6.67288 8.96698 6.04074 10.2896 6.04074 11.6687C6.04074 13.9506 5.47487 15.6193 4.7688 16.8134C3.96407 18.1744 3.56171 18.8548 3.5776 19.0174C3.59578 19.2034 3.62925 19.262 3.78008 19.3723C3.91191 19.4687 4.57425 19.4688 5.89892 19.4688H18.1825C19.5072 19.4688 20.1696 19.4687 20.3014 19.3723C20.4522 19.262 20.4857 19.2034 20.5039 19.0174C20.5198 18.8548 20.1174 18.1744 19.3127 16.8134C18.6066 15.6193 18.0407 13.9506 18.0407 11.6687Z" stroke="#5F5F5F" stroke-linecap="round" stroke-linejoin="round"/>
</svg>
