<svg width="24" height="25" viewBox="0 0 24 25" fill="none" xmlns="http://www.w3.org/2000/svg">
<path d="M9.35419 21.2637C10.0593 21.886 10.9856 22.2637 12 22.2637C13.0145 22.2637 13.9407 21.886 14.6458 21.2637M18 8.26367C18 6.67237 17.3679 5.14625 16.2427 4.02103C15.1174 2.89581 13.5913 2.26367 12 2.26367C10.4087 2.26367 8.8826 2.89581 7.75738 4.02103C6.63216 5.14625 6.00002 6.67237 6.00002 8.26367C6.00002 11.3539 5.22049 13.4696 4.34968 14.8691C3.61515 16.0495 3.24788 16.6398 3.26134 16.8044C3.27626 16.9867 3.31488 17.0563 3.46179 17.1652C3.59448 17.2637 4.19261 17.2637 5.38887 17.2637H18.6112C19.8074 17.2637 20.4056 17.2637 20.5382 17.1652C20.6852 17.0563 20.7238 16.9867 20.7387 16.8044C20.7522 16.6398 20.3849 16.0495 19.6504 14.8691C18.7795 13.4696 18 11.3539 18 8.26367Z" stroke="black" stroke-linecap="round" stroke-linejoin="round"/>
</svg>
