<svg width="25" height="25" viewBox="0 0 25 25" fill="none" xmlns="http://www.w3.org/2000/svg">
<g id="Calendar">
<path id="Icon" d="M18.9832 11.1674H6.95215M15.6412 5.82031V8.49388M10.2941 5.82031V8.49388M10.1604 19.1882H15.7749C16.8979 19.1882 17.4594 19.1882 17.8884 18.9696C18.2657 18.7774 18.5724 18.4706 18.7647 18.0933C18.9832 17.6644 18.9832 17.1029 18.9832 15.9799V10.3654C18.9832 9.24237 18.9832 8.68087 18.7647 8.25194C18.5724 7.87464 18.2657 7.56789 17.8884 7.37565C17.4594 7.1571 16.8979 7.1571 15.7749 7.1571H10.1604C9.03743 7.1571 8.47592 7.1571 8.04699 7.37565C7.6697 7.56789 7.36294 7.87464 7.1707 8.25194C6.95215 8.68087 6.95215 9.24237 6.95215 10.3654V15.9799C6.95215 17.1029 6.95215 17.6644 7.1707 18.0933C7.36294 18.4706 7.6697 18.7774 8.04699 18.9696C8.47592 19.1882 9.03743 19.1882 10.1604 19.1882Z" stroke="#3E3E3E" stroke-linecap="round" stroke-linejoin="round"/>
</g>
</svg>
