<svg width="16" height="16" viewBox="0 0 16 16" fill="none" xmlns="http://www.w3.org/2000/svg">
<g id="clipboard-download">
<path id="Icon" d="M10.6667 2.66536C11.2867 2.66536 11.5967 2.66536 11.8511 2.73351C12.5412 2.91845 13.0803 3.45754 13.2653 4.14773C13.3334 4.40206 13.3334 4.71205 13.3334 5.33203V11.4654C13.3334 12.5855 13.3334 13.1455 13.1154 13.5733C12.9237 13.9497 12.6177 14.2556 12.2414 14.4474C11.8136 14.6654 11.2535 14.6654 10.1334 14.6654H5.86675C4.74664 14.6654 4.18659 14.6654 3.75877 14.4474C3.38244 14.2556 3.07648 13.9497 2.88474 13.5733C2.66675 13.1455 2.66675 12.5855 2.66675 11.4654V5.33203C2.66675 4.71205 2.66675 4.40206 2.7349 4.14773C2.91983 3.45754 3.45893 2.91845 4.14911 2.73351C4.40344 2.66536 4.71343 2.66536 5.33341 2.66536M6.40008 3.9987H9.60008C9.97345 3.9987 10.1601 3.9987 10.3027 3.92604C10.4282 3.86212 10.5302 3.76013 10.5941 3.63469C10.6667 3.49208 10.6667 3.3054 10.6667 2.93203V2.3987C10.6667 2.02533 10.6667 1.83865 10.5941 1.69604C10.5302 1.5706 10.4282 1.46861 10.3027 1.40469C10.1601 1.33203 9.97345 1.33203 9.60008 1.33203H6.40008C6.02671 1.33203 5.84003 1.33203 5.69742 1.40469C5.57198 1.46861 5.46999 1.5706 5.40608 1.69604C5.33341 1.83865 5.33341 2.02533 5.33341 2.3987V2.93203C5.33341 3.3054 5.33341 3.49208 5.40608 3.63469C5.46999 3.76013 5.57198 3.86212 5.69742 3.92604C5.84003 3.9987 6.02671 3.9987 6.40008 3.9987Z" stroke="#3E98F9" stroke-linecap="round" stroke-linejoin="round"/>
<path id="Icon_2" d="M10.6666 9.33333H5.33325M10.6666 6.66667H5.33325M6.66659 12H5.33325" stroke="#3E98F9" stroke-linecap="round" stroke-linejoin="round"/>
</g>
</svg>
