<svg width="20" height="20" viewBox="0 0 20 20" fill="none" xmlns="http://www.w3.org/2000/svg">
<path d="M17.1758 10.0023C17.1758 9.55477 16.998 9.12554 16.6815 8.80908C16.3651 8.49261 15.9358 8.31482 15.4883 8.31482H10.4258V7.68201C10.9086 7.5566 11.3362 7.27459 11.6415 6.88016C11.9469 6.48573 12.1128 6.00114 12.1133 5.50232C12.1133 3.53357 10.2542 2.27427 10.1755 2.22154C10.083 2.15987 9.9744 2.12695 9.86328 2.12695C9.75216 2.12695 9.64353 2.15987 9.55109 2.22154C9.47234 2.27427 7.61328 3.53357 7.61328 5.50232C7.61375 6.00114 7.77967 6.48573 8.08503 6.88016C8.3904 7.27459 8.81798 7.5566 9.30078 7.68201V8.31482H4.23828C3.79073 8.31482 3.36151 8.49261 3.04504 8.80908C2.72857 9.12554 2.55078 9.55477 2.55078 10.0023V11.6427C2.55136 12.2563 2.74849 12.8537 3.11328 13.3471V16.1898C3.11328 16.6374 3.29107 17.0666 3.60754 17.3831C3.92401 17.6995 4.35323 17.8773 4.80078 17.8773H14.9258C15.3733 17.8773 15.8026 17.6995 16.119 17.3831C16.4355 17.0666 16.6133 16.6374 16.6133 16.1898V13.3471C16.9781 12.8537 17.1752 12.2563 17.1758 11.6427V10.0023ZM8.73828 5.50232C8.73828 4.54818 9.44141 3.78247 9.86328 3.40771C10.2852 3.78247 10.9883 4.54818 10.9883 5.50232C10.9883 5.80069 10.8698 6.08684 10.6588 6.29781C10.4478 6.50879 10.1616 6.62732 9.86328 6.62732C9.56491 6.62732 9.27876 6.50879 9.06779 6.29781C8.85681 6.08684 8.73828 5.80069 8.73828 5.50232ZM3.67578 10.0023C3.67578 9.85313 3.73504 9.71006 3.84053 9.60457C3.94602 9.49908 4.0891 9.43982 4.23828 9.43982H15.4883C15.6375 9.43982 15.7805 9.49908 15.886 9.60457C15.9915 9.71006 16.0508 9.85313 16.0508 10.0023V11.6427C16.0508 12.5744 15.3153 13.352 14.4111 13.3766C14.1856 13.383 13.961 13.3441 13.7508 13.2622C13.5405 13.1803 13.3489 13.0571 13.1871 12.8998C13.0253 12.7426 12.8967 12.5545 12.8089 12.3466C12.721 12.1388 12.6758 11.9154 12.6758 11.6898C12.6758 11.5406 12.6165 11.3976 12.511 11.2921C12.4055 11.1866 12.2625 11.1273 12.1133 11.1273C11.9641 11.1273 11.821 11.1866 11.7155 11.2921C11.61 11.3976 11.5508 11.5406 11.5508 11.6898C11.5508 12.1374 11.373 12.5666 11.0565 12.8831C10.7401 13.1995 10.3108 13.3773 9.86328 13.3773C9.41573 13.3773 8.98651 13.1995 8.67004 12.8831C8.35357 12.5666 8.17578 12.1374 8.17578 11.6898C8.17578 11.5406 8.11652 11.3976 8.01103 11.2921C7.90554 11.1866 7.76247 11.1273 7.61328 11.1273C7.4641 11.1273 7.32102 11.1866 7.21553 11.2921C7.11004 11.3976 7.05078 11.5406 7.05078 11.6898C7.05087 11.9155 7.00569 12.1389 6.91791 12.3468C6.83013 12.5548 6.70154 12.7429 6.53974 12.9003C6.37794 13.0576 6.18623 13.1809 5.97594 13.2629C5.76565 13.3448 5.54107 13.3837 5.31547 13.3773C4.41125 13.352 3.67578 12.5744 3.67578 11.6427V10.0023ZM14.9258 16.7523H4.80078C4.6516 16.7523 4.50852 16.6931 4.40303 16.5876C4.29754 16.4821 4.23828 16.339 4.23828 16.1898V14.2604C4.56756 14.4096 4.9232 14.4918 5.28453 14.5023C5.66045 14.514 6.03485 14.4495 6.38525 14.3129C6.73565 14.1762 7.05482 13.9702 7.32359 13.7071C7.42852 13.6048 7.52537 13.4945 7.61328 13.3773C7.87526 13.7266 8.21496 14.0101 8.60549 14.2054C8.99602 14.4007 9.42665 14.5023 9.86328 14.5023C10.2999 14.5023 10.7305 14.4007 11.1211 14.2054C11.5116 14.0101 11.8513 13.7266 12.1133 13.3773C12.2015 13.4941 12.2986 13.6039 12.4037 13.7057C12.9269 14.2182 13.6308 14.5044 14.3633 14.5023H14.4434C14.8043 14.4916 15.1594 14.4094 15.4883 14.2604V16.1898C15.4883 16.339 15.429 16.4821 15.3235 16.5876C15.218 16.6931 15.075 16.7523 14.9258 16.7523Z" fill="#3E98F9"/>
</svg>
