<svg width="41" height="41" viewBox="0 0 41 41" fill="none" xmlns="http://www.w3.org/2000/svg">
<path d="M31.4141 20.1934V25.0975C31.4141 26.1101 31.0033 27.0645 30.291 27.9125C29.3264 30.5046 25.4467 32.4454 20.7988 32.4454C16.1509 32.4454 12.2704 30.5055 11.3066 27.9125C10.5942 27.0636 10.1834 26.1101 10.1834 25.0975V20.1934C7.35788 21.8354 5.59961 24.123 5.59961 26.6586C5.59961 31.6522 12.4051 35.7008 20.7996 35.7008C29.1941 35.7008 35.9996 31.6522 35.9996 26.6586C35.9996 24.1238 34.2405 21.8354 31.4158 20.1934H31.4141Z" fill="#F5E5D6"/>
<path d="M20.7979 31.4122C16.638 31.4122 13.0467 29.9853 11.3057 27.9121C12.2702 30.5043 16.1499 32.445 20.7979 32.445C25.4458 32.445 29.3263 30.5051 30.2901 27.9121C28.549 29.9853 24.9577 31.4122 20.7979 31.4122Z" fill="#BFB2A6"/>
<path d="M31.4133 16.291V25.0919C31.4133 26.1045 31.0025 27.058 30.2877 27.9102C28.5459 29.9775 24.9554 31.412 20.798 31.412C16.6406 31.412 13.0501 29.9775 11.3082 27.9102C10.5934 27.058 10.1826 26.1045 10.1826 25.0919V16.291C10.1826 19.7844 14.9316 22.6111 20.798 22.6111C26.6643 22.6111 31.4133 19.7844 31.4133 16.291Z" fill="#E1C9B3"/>
<path d="M20.7971 22.6108C26.6602 22.6108 31.4133 19.7832 31.4133 16.2958C31.4133 14.0707 29.4743 12.1181 26.551 10.9933C26.7038 11.2785 26.7933 11.6009 26.7933 11.9021C26.7933 12.7046 26.1599 13.3543 25.3793 13.3543C24.5988 13.3543 23.9653 12.7037 23.9653 11.9021C23.9653 11.3621 24.2554 10.7621 24.681 10.4229C24.1403 10.2963 23.5808 10.1917 23.0007 10.1191C22.8151 10.8718 22.2794 11.4743 21.5785 11.7384V15.398C21.5785 15.8401 21.2293 16.1996 20.798 16.1996C20.3666 16.1996 20.0174 15.8401 20.0174 15.398V11.7384C19.3158 11.4751 18.7801 10.8718 18.5952 10.1191C18.0151 10.1917 17.4556 10.2963 16.915 10.4229C17.3406 10.7621 17.6306 11.3629 17.6306 11.9021C17.6306 12.7046 16.9971 13.3543 16.2166 13.3543C15.4361 13.3543 14.8026 12.7037 14.8026 11.9021C14.8026 11.6009 14.8922 11.2785 15.045 10.9933C12.1216 12.1181 10.1826 14.0707 10.1826 16.2958C10.1826 19.7832 14.9357 22.6108 20.7988 22.6108H20.7971ZM14.801 18.6433C14.801 17.8408 15.4344 16.8907 16.215 16.8907C16.9955 16.8907 17.629 17.8416 17.629 18.6433C17.629 19.4449 16.9955 20.0954 16.215 20.0954C15.4344 20.0954 14.801 19.4449 14.801 18.6433ZM22.212 19.3655C22.212 20.168 21.5785 20.8177 20.798 20.8177C20.0174 20.8177 19.384 20.1672 19.384 19.3655C19.384 18.5639 20.0174 17.6121 20.798 17.6121C21.5785 17.6121 22.212 18.5631 22.212 19.3655ZM26.7942 18.6433C26.7942 19.4457 26.1607 20.0954 25.3802 20.0954C24.5996 20.0954 23.9661 19.4449 23.9661 18.6433C23.9661 17.8416 24.5996 16.8907 25.3802 16.8907C26.1607 16.8907 26.7942 17.8416 26.7942 18.6433ZM28.5089 13.5863C29.2903 13.5863 29.9229 14.5373 29.9229 15.3389C29.9229 16.1405 29.2894 16.7911 28.5089 16.7911C27.7283 16.7911 27.0949 16.1405 27.0949 15.3389C27.0949 14.5373 27.7283 13.5863 28.5089 13.5863ZM11.6722 15.3389C11.6722 14.5365 12.3057 13.5863 13.0862 13.5863C13.8668 13.5863 14.5002 14.5373 14.5002 15.3389C14.5002 16.1405 13.8668 16.7911 13.0862 16.7911C12.3057 16.7911 11.6722 16.1405 11.6722 15.3389Z" fill="#F5E5D6"/>
<path opacity="0.75" d="M19.3828 19.3687C19.3828 20.1711 20.0163 20.8208 20.7968 20.8208C21.5774 20.8208 22.2108 20.1703 22.2108 19.3687C22.2108 18.567 21.5774 17.6152 20.7968 17.6152C20.0163 17.6152 19.3828 18.5662 19.3828 19.3687Z" fill="#D22E2F"/>
<path opacity="0.75" d="M25.3789 16.8906C24.5975 16.8906 23.9648 17.8416 23.9648 18.6432C23.9648 19.4448 24.5983 20.0954 25.3789 20.0954C26.1594 20.0954 26.7929 19.4448 26.7929 18.6432C26.7929 17.8416 26.1594 16.8906 25.3789 16.8906Z" fill="#D22E2F"/>
<path opacity="0.75" d="M23.9647 11.9038C23.9647 12.7063 24.5982 13.356 25.3787 13.356C26.1592 13.356 26.7927 12.7054 26.7927 11.9038C26.7927 11.6026 26.7032 11.2802 26.5503 10.995C26.2965 10.5208 25.8659 10.1504 25.3787 10.1504C25.1232 10.1504 24.8865 10.2592 24.6795 10.4238C24.2539 10.763 23.9639 11.3638 23.9639 11.903L23.9647 11.9038Z" fill="#D22E2F"/>
<path opacity="0.75" d="M28.5078 16.7888C29.2891 16.7888 29.9218 16.1382 29.9218 15.3366C29.9218 14.535 29.2883 13.584 28.5078 13.584C27.7272 13.584 27.0938 14.535 27.0938 15.3366C27.0938 16.1382 27.7272 16.7888 28.5078 16.7888Z" fill="#D22E2F"/>
<path opacity="0.75" d="M17.6288 18.6432C17.6288 17.8407 16.9953 16.8906 16.2148 16.8906C15.4343 16.8906 14.8008 17.8416 14.8008 18.6432C14.8008 19.4448 15.4343 20.0954 16.2148 20.0954C16.9953 20.0954 17.6288 19.4448 17.6288 18.6432Z" fill="#D22E2F"/>
<path opacity="0.75" d="M16.2146 13.3552C16.996 13.3552 17.6286 12.7046 17.6286 11.903C17.6286 11.3629 17.3386 10.763 16.913 10.4238C16.706 10.2584 16.4702 10.1504 16.2138 10.1504C15.7258 10.1504 15.2961 10.5208 15.0422 10.995C14.8894 11.2802 14.7998 11.6026 14.7998 11.9038C14.7998 12.7063 15.4333 13.356 16.2138 13.356L16.2146 13.3552Z" fill="#D22E2F"/>
<path opacity="0.75" d="M13.0859 16.7888C13.8672 16.7888 14.4999 16.1382 14.4999 15.3366C14.4999 14.535 13.8664 13.584 13.0859 13.584C12.3053 13.584 11.6719 14.535 11.6719 15.3366C11.6719 16.1382 12.3053 16.7888 13.0859 16.7888Z" fill="#D22E2F"/>
<path d="M20.0161 11.7381C20.2609 11.83 20.5214 11.8883 20.7966 11.8883C21.0718 11.8883 21.3331 11.83 21.5771 11.7381C22.2788 11.4748 22.8145 10.8715 22.9994 10.1188C23.0446 9.93485 23.0758 9.74499 23.0758 9.5467C23.0758 8.72652 22.1597 6.92246 21.4892 5.71076C21.1836 5.15891 20.4088 5.15891 20.1032 5.71076C19.4327 6.92246 18.5166 8.72736 18.5166 9.5467C18.5166 9.74499 18.5478 9.93485 18.593 10.1188C18.7787 10.8715 19.3152 11.4739 20.0161 11.7381ZM20.8147 9.15855C21.3734 9.15855 21.8261 9.62348 21.8261 10.1973C21.8261 10.7711 21.3734 11.236 20.8147 11.236C20.256 11.236 19.8033 10.7711 19.8033 10.1973C19.8033 9.62348 20.256 9.15855 20.8147 9.15855Z" fill="#D22E2F"/>
<path d="M20.8151 11.2396C21.3737 11.2396 21.8265 10.7745 21.8265 10.2008C21.8265 9.62716 21.3737 9.16211 20.8151 9.16211C20.2565 9.16211 19.8037 9.62716 19.8037 10.2008C19.8037 10.7745 20.2565 11.2396 20.8151 11.2396Z" fill="#FFF8EB"/>
</svg>
