<svg width="17" height="17" viewBox="0 0 17 17" fill="none" xmlns="http://www.w3.org/2000/svg">
<g id="camera-01">
<g id="Group 2608742">
<path id="Icon" d="M1.0459 6.36727C1.0459 6.12758 1.0459 6.00773 1.05613 5.90679C1.15482 4.9332 1.94279 4.163 2.93885 4.06654C3.04212 4.05654 3.17135 4.05654 3.42981 4.05654C3.5294 4.05654 3.57919 4.05654 3.62147 4.05404C4.16133 4.02208 4.63406 3.68903 4.8358 3.19854C4.8516 3.16012 4.86636 3.11682 4.8959 3.03022C4.92543 2.94362 4.9402 2.90032 4.956 2.86191C5.15773 2.37141 5.63047 2.03837 6.17033 2.00641C6.21261 2.00391 6.2593 2.00391 6.35269 2.00391H9.7391C9.83249 2.00391 9.87919 2.00391 9.92147 2.00641C10.4613 2.03837 10.9341 2.37141 11.1358 2.86191C11.1516 2.90032 11.1664 2.94362 11.1959 3.03022C11.2254 3.11682 11.2402 3.16012 11.256 3.19854C11.4577 3.68903 11.9305 4.02208 12.4703 4.05404C12.5126 4.05654 12.5624 4.05654 12.662 4.05654C12.9204 4.05654 13.0497 4.05654 13.153 4.06654C14.149 4.163 14.937 4.9332 15.0357 5.90679C15.0459 6.00773 15.0459 6.12758 15.0459 6.36727V11.7197C15.0459 12.8693 15.0459 13.4441 14.817 13.8831C14.6157 14.2694 14.2944 14.5834 13.8993 14.7802C13.4501 15.0039 12.862 15.0039 11.6859 15.0039H4.4059C3.22979 15.0039 2.64173 15.0039 2.19252 14.7802C1.79738 14.5834 1.47612 14.2694 1.27478 13.8831C1.0459 13.4441 1.0459 12.8693 1.0459 11.7197V6.36727Z" fill="#F8F8F9"/>
<path id="Icon_2" d="M8.0459 12.0039C9.42661 12.0039 10.5459 10.8846 10.5459 9.50391C10.5459 8.12319 9.42661 7.00391 8.0459 7.00391C6.66519 7.00391 5.5459 8.12319 5.5459 9.50391C5.5459 10.8846 6.66519 12.0039 8.0459 12.0039Z" stroke="#C0C0C0" stroke-linecap="round" stroke-linejoin="round"/>
</g>
</g>
</svg>
