<svg width="14" height="13" viewBox="0 0 14 13" fill="none" xmlns="http://www.w3.org/2000/svg">
<path d="M0.726807 4.2533C0.726807 4.02974 0.726807 3.91796 0.736135 3.82381C0.826106 2.91574 1.54447 2.19738 2.45253 2.10741C2.54669 2.09808 2.6645 2.09808 2.90012 2.09808C2.99092 2.09808 3.03631 2.09808 3.07486 2.09575C3.56702 2.06594 3.998 1.75531 4.18192 1.29783C4.19632 1.262 4.20978 1.22161 4.2367 1.14084C4.26363 1.06007 4.27709 1.01968 4.29149 0.983851C4.47541 0.526366 4.90639 0.215735 5.39855 0.185928C5.4371 0.183594 5.47967 0.183594 5.56481 0.183594H8.65207C8.73721 0.183594 8.77978 0.183594 8.81833 0.185928C9.31049 0.215735 9.74147 0.526366 9.92538 0.983851C9.93979 1.01968 9.95325 1.06007 9.98017 1.14084C10.0071 1.22161 10.0206 1.262 10.035 1.29783C10.2189 1.75531 10.6499 2.06594 11.142 2.09575C11.1806 2.09808 11.226 2.09808 11.3168 2.09808C11.5524 2.09808 11.6702 2.09808 11.7643 2.10741C12.6724 2.19738 13.3908 2.91574 13.4807 3.82381C13.4901 3.91796 13.4901 4.02974 13.4901 4.2533V9.24551C13.4901 10.3177 13.4901 10.8538 13.2814 11.2634C13.0979 11.6236 12.805 11.9165 12.4447 12.1C12.0352 12.3087 11.4991 12.3087 10.4269 12.3087H3.78999C2.71778 12.3087 2.18167 12.3087 1.77214 12.1C1.4119 11.9165 1.11902 11.6236 0.935474 11.2634C0.726807 10.8538 0.726807 10.3177 0.726807 9.24551V4.2533Z" fill="#F8F8F9"/>
<path d="M7.10844 9.43696C8.51823 9.43696 9.66109 8.2941 9.66109 6.88431C9.66109 5.47452 8.51823 4.33166 7.10844 4.33166C5.69865 4.33166 4.55579 5.47452 4.55579 6.88431C4.55579 8.2941 5.69865 9.43696 7.10844 9.43696Z" fill="#F8F8F9"/>
</svg>
