<svg width="17" height="17" viewBox="0 0 17 17" fill="none" xmlns="http://www.w3.org/2000/svg">
<g id="camera-01">
<g id="Group 2608742">
<path id="Icon" d="M1.04565 6.36727C1.04565 6.12758 1.04565 6.00773 1.05589 5.90679C1.15458 4.9332 1.94254 4.163 2.9386 4.06654C3.04188 4.05654 3.1711 4.05654 3.42956 4.05654C3.52915 4.05654 3.57895 4.05654 3.62122 4.05404C4.16108 4.02208 4.63382 3.68903 4.83556 3.19854C4.85135 3.16012 4.86612 3.11682 4.89565 3.03022C4.92519 2.94362 4.93995 2.90032 4.95575 2.86191C5.15749 2.37141 5.63023 2.03837 6.17008 2.00641C6.21236 2.00391 6.25906 2.00391 6.35245 2.00391H9.73886C9.83225 2.00391 9.87895 2.00391 9.92122 2.00641C10.4611 2.03837 10.9338 2.37141 11.1356 2.86191C11.1514 2.90032 11.1661 2.94362 11.1957 3.03022C11.2252 3.11682 11.24 3.16012 11.2558 3.19854C11.4575 3.68903 11.9302 4.02208 12.4701 4.05404C12.5124 4.05654 12.5622 4.05654 12.6617 4.05654C12.9202 4.05654 13.0494 4.05654 13.1527 4.06654C14.1488 4.163 14.9367 4.9332 15.0354 5.90679C15.0457 6.00773 15.0457 6.12758 15.0457 6.36727V11.7197C15.0457 12.8693 15.0457 13.4441 14.8168 13.8831C14.6154 14.2694 14.2942 14.5834 13.899 14.7802C13.4498 15.0039 12.8618 15.0039 11.6857 15.0039H4.40565C3.22954 15.0039 2.64149 15.0039 2.19227 14.7802C1.79713 14.5834 1.47587 14.2694 1.27454 13.8831C1.04565 13.4441 1.04565 12.8693 1.04565 11.7197V6.36727Z" fill="#F8F8F9"/>
<path id="Icon_2" d="M8.04565 12.0039C9.42637 12.0039 10.5457 10.8846 10.5457 9.50391C10.5457 8.12319 9.42637 7.00391 8.04565 7.00391C6.66494 7.00391 5.54565 8.12319 5.54565 9.50391C5.54565 10.8846 6.66494 12.0039 8.04565 12.0039Z" stroke="#C0C0C0" stroke-linecap="round" stroke-linejoin="round"/>
</g>
</g>
</svg>
