<svg width="25" height="24" viewBox="0 0 25 24" fill="none" xmlns="http://www.w3.org/2000/svg">
<g id="copy-01">
<path id="Icon" d="M5.53223 15C4.60034 15 4.1344 15 3.76686 14.8478C3.2768 14.6448 2.88746 14.2554 2.68447 13.7654C2.53223 13.3978 2.53223 12.9319 2.53223 12V5.2C2.53223 4.0799 2.53223 3.51984 2.75021 3.09202C2.94196 2.71569 3.24792 2.40973 3.62425 2.21799C4.05207 2 4.61212 2 5.73223 2H12.5322C13.4641 2 13.9301 2 14.2976 2.15224C14.7876 2.35523 15.177 2.74458 15.38 3.23463C15.5322 3.60218 15.5322 4.06812 15.5322 5M12.7322 22H19.3322C20.4523 22 21.0124 22 21.4402 21.782C21.8165 21.5903 22.1225 21.2843 22.3142 20.908C22.5322 20.4802 22.5322 19.9201 22.5322 18.8V12.2C22.5322 11.0799 22.5322 10.5198 22.3142 10.092C22.1225 9.71569 21.8165 9.40973 21.4402 9.21799C21.0124 9 20.4523 9 19.3322 9H12.7322C11.6121 9 11.0521 9 10.6242 9.21799C10.2479 9.40973 9.94196 9.71569 9.75021 10.092C9.53223 10.5198 9.53223 11.0799 9.53223 12.2V18.8C9.53223 19.9201 9.53223 20.4802 9.75021 20.908C9.94196 21.2843 10.2479 21.5903 10.6242 21.782C11.0521 22 11.6121 22 12.7322 22Z" stroke="white" stroke-linecap="round" stroke-linejoin="round"/>
</g>
</svg>
