<svg width="25" height="24" viewBox="0 0 25 24" fill="none" xmlns="http://www.w3.org/2000/svg">
<g id="credit-card-check">
<path id="Icon" d="M16.0322 18L18.0322 20L22.0322 16M22.0322 10H2.03223M22.0322 12V8.2C22.0322 7.0799 22.0322 6.51984 21.8142 6.09202C21.6225 5.7157 21.3165 5.40974 20.9402 5.21799C20.5124 5 19.9523 5 18.8322 5H5.23223C4.11212 5 3.55207 5 3.12425 5.21799C2.74792 5.40973 2.44196 5.71569 2.25021 6.09202C2.03223 6.51984 2.03223 7.0799 2.03223 8.2V15.8C2.03223 16.9201 2.03223 17.4802 2.25021 17.908C2.44196 18.2843 2.74792 18.5903 3.12425 18.782C3.55207 19 4.11212 19 5.23223 19H12.0322" stroke="white" stroke-linecap="round" stroke-linejoin="round"/>
</g>
</svg>
