<svg width="47" height="33" viewBox="0 0 47 33" fill="none" xmlns="http://www.w3.org/2000/svg">
<path id="Vector 15825" d="M1 1.5C0.723858 1.5 0.5 1.27614 0.5 1C0.5 0.723858 0.723858 0.5 1 0.5L1 1.5ZM44 27.3333C45.4728 27.3333 46.6667 28.5272 46.6667 30C46.6667 31.4728 45.4728 32.6667 44 32.6667C42.5272 32.6667 41.3333 31.4728 41.3333 30C41.3333 28.5272 42.5272 27.3333 44 27.3333ZM1 1L1 0.5L38.7999 0.5L38.7999 1L38.7999 1.5L1 1.5L1 1ZM44 6.20015L44.5 6.20015L44.5 30L44 30L43.5 30L43.5 6.20015L44 6.20015ZM38.7999 1L38.7999 0.5C41.948 0.5 44.5 3.05205 44.5 6.20015L44 6.20015L43.5 6.20015C43.5 3.60433 41.3957 1.5 38.7999 1.5L38.7999 1Z" fill="#F2C1C1"/>
</svg>
