<svg width="58" height="58" viewBox="0 0 58 58" fill="none" xmlns="http://www.w3.org/2000/svg">
<g clip-path="url(#clip0_9637_22619)">
<path d="M51.2391 26.0892L11.1113 35.84V31.8953L51.2391 22.1445V26.0892Z" fill="#3E98F9"/>
<path d="M34.6922 11.5597L11.6777 34.5742C10.886 35.366 10.886 36.6497 11.6777 37.4414L24.8048 50.5685C25.5966 51.3603 26.8803 51.3603 27.672 50.5685L50.6865 27.554C51.4783 26.7622 51.4783 25.4786 50.6865 24.6868L37.5594 11.5597C36.7677 10.7679 35.484 10.7679 34.6922 11.5597Z" fill="#327AC7"/>
<path d="M34.6883 7.38392L11.6738 30.3984C10.8821 31.1902 10.8821 32.4739 11.6738 33.2656L24.8009 46.3927C25.5927 47.1845 26.8764 47.1845 27.6681 46.3927L50.6826 23.3782C51.4744 22.5865 51.4744 21.3028 50.6826 20.511L37.5555 7.38392C36.7638 6.59217 35.4801 6.59217 34.6883 7.38392Z" fill="#3E98F9"/>
<path d="M25.8255 16.2566L20.5469 21.5352L36.5412 37.5295L41.8198 32.2509L25.8255 16.2566Z" fill="#C5E0FD"/>
<path d="M50.0379 37.5664V50.5704C50.0379 50.8579 49.8049 51.0896 49.5187 51.0896C47.5533 51.0896 45.959 49.4966 45.959 47.53V37.5664H50.0379Z" fill="#E5E5E4"/>
<path d="M39.7577 37.5664V46.8626C39.7577 47.1399 39.5323 47.3653 39.255 47.3653C37.3529 47.3653 35.8105 45.8229 35.8105 43.9209V37.5664H39.7577Z" fill="#E5E5E4"/>
<path d="M50.0379 37.5674V42.4669H35.8105V37.5674C35.8105 33.638 38.9954 30.4531 42.9248 30.4531C46.8543 30.4531 50.0379 33.638 50.0379 37.5674Z" fill="#E5E5E4"/>
<path d="M42.9229 36.4505C44.0499 36.4505 44.9642 37.3648 44.9642 38.4918V49.5609C44.9642 49.8483 44.7312 50.0801 44.445 50.0801C42.4784 50.0801 40.8828 48.4858 40.8828 46.5179V38.4906C40.8828 37.3635 41.7971 36.4492 42.9242 36.4492L42.9229 36.4505Z" fill="#E5E5E4"/>
<path d="M20.6326 8.16016H7.62857C7.34112 8.16016 7.10938 8.39316 7.10938 8.67936C7.10938 10.6447 8.70243 12.239 10.6691 12.239H20.6326V8.16016Z" fill="#E5E5E4"/>
<path d="M20.6329 18.4414H11.3367C11.0594 18.4414 10.834 18.6668 10.834 18.9441C10.834 20.8462 12.3764 22.3886 14.2784 22.3886H20.6329V18.4414Z" fill="#E5E5E4"/>
<path d="M20.6358 8.16142H15.7363V22.3887H20.6358C24.5652 22.3887 27.7501 19.2039 27.7501 15.2744C27.7501 11.345 24.5652 8.16142 20.6358 8.16142Z" fill="#E5E5E4"/>
<path d="M21.7507 15.2757C21.7507 14.1487 20.8364 13.2344 19.7094 13.2344H8.64029C8.35283 13.2344 8.12109 13.4674 8.12109 13.7536C8.12109 15.7202 9.71541 17.3158 11.6833 17.3158H19.7106C20.8377 17.3158 21.752 16.4015 21.752 15.2744L21.7507 15.2757Z" fill="#E5E5E4"/>
</g>
<defs>
<clipPath id="clip0_9637_22619">
<rect width="57.6" height="57.6" fill="white" transform="translate(0.335938 0.179688)"/>
</clipPath>
</defs>
</svg>
