<svg width="33" height="33" viewBox="0 0 33 33" fill="none" xmlns="http://www.w3.org/2000/svg">
<g id="Icon_Gallery">
<path id="Icon" d="M8.43609 25.6068L15.0108 19.0321C15.4055 18.6374 15.6029 18.44 15.8305 18.3661C16.0307 18.301 16.2463 18.301 16.4465 18.3661C16.674 18.44 16.8714 18.6374 17.2661 19.0321L23.797 25.563M18.1319 19.8978L20.991 17.0387C21.3857 16.644 21.5831 16.4466 21.8106 16.3727C22.0108 16.3077 22.2265 16.3077 22.4266 16.3727C22.6542 16.4466 22.8516 16.644 23.2463 17.0387L26.1054 19.8978M14.1451 13.9177C14.1451 15.0186 13.2526 15.9111 12.1517 15.9111C11.0508 15.9111 10.1583 15.0186 10.1583 13.9177C10.1583 12.8168 11.0508 11.9243 12.1517 11.9243C13.2526 11.9243 14.1451 12.8168 14.1451 13.9177ZM10.9556 25.878H21.3213C22.9959 25.878 23.8332 25.878 24.4728 25.5521C25.0354 25.2655 25.4929 24.808 25.7795 24.2454C26.1054 23.6058 26.1054 22.7685 26.1054 21.0939V12.7216C26.1054 11.047 26.1054 10.2097 25.7795 9.57012C25.4929 9.0075 25.0354 8.55007 24.4728 8.2634C23.8332 7.9375 22.9959 7.9375 21.3213 7.9375H10.9556C9.28104 7.9375 8.44374 7.9375 7.80413 8.2634C7.2415 8.55007 6.78408 9.0075 6.49741 9.57012C6.17151 10.2097 6.17151 11.047 6.17151 12.7216V21.0939C6.17151 22.7685 6.17151 23.6058 6.49741 24.2454C6.78408 24.808 7.2415 25.2655 7.80413 25.5521C8.44374 25.878 9.28104 25.878 10.9556 25.878Z" stroke="#3E3E3E" stroke-linecap="round" stroke-linejoin="round"/>
</g>
</svg>
