<svg width="311" height="70" viewBox="0 0 311 70" fill="none" xmlns="http://www.w3.org/2000/svg">
<circle opacity="0.2" cx="107.453" cy="16.0195" r="2.5" fill="#FFE787"/>
<ellipse cx="1.26566" cy="1.22157" rx="1.26566" ry="1.22157" transform="matrix(1 0 0 -1 136.859 7.46484)" fill="#D4A7A7"/>
<ellipse opacity="0.3" cx="67.253" cy="35.5614" rx="1.26566" ry="1.22157" fill="#8DBCEF"/>
<ellipse opacity="0.4" cx="277.347" cy="55.1044" rx="1.26566" ry="1.22157" fill="#932223"/>
<ellipse opacity="0.3" cx="57.8462" cy="1.91672" rx="1.84425" ry="1.78" fill="#3E98F9"/>
<ellipse opacity="0.2" cx="1.81709" cy="0.903858" rx="1.81709" ry="0.903858" transform="matrix(0.768252 -0.640147 0.666694 0.745332 205.926 53.9727)" fill="#932223"/>
<path d="M296.954 34.6971C297.61 35.1091 298.428 35.3518 299.2 35.4255C299.972 35.4991 300.632 35.1132 301.201 34.6605C302.479 33.6456 303.416 31.9396 303.183 30.2925C303.1 29.7088 302.673 28.5825 301.858 28.7014C301.509 28.7536 301.098 29.0831 300.957 29.3864C300.781 29.7727 301.013 30.2199 301.249 30.5482C302.192 31.8766 304.062 32.1475 305.524 31.6477C307.532 30.9594 308.764 29.1894 309.706 27.467C310.029 26.8818 310.958 27.4461 310.637 28.0283C309.531 30.0438 308.03 31.9828 305.657 32.7017C303.647 33.3076 301.074 32.6321 300.091 30.678C299.546 29.5938 299.911 28.5371 300.966 27.9332C302.022 27.3293 303.086 27.8176 303.719 28.7326C304.978 30.5463 304.078 33.1227 302.798 34.6133C302.064 35.4675 300.984 36.3355 299.777 36.4602C298.673 36.5738 297.32 36.1503 296.39 35.5688C295.797 35.1989 296.363 34.3243 296.954 34.6971Z" fill="#FFE787"/>
<path d="M237.67 25.2321C237.604 24.9734 237.611 24.6798 237.669 24.4191C237.727 24.1584 237.923 23.9832 238.131 23.8447C238.599 23.5335 239.257 23.4075 239.772 23.658C239.955 23.7473 240.278 24.0065 240.153 24.2607C240.099 24.3694 239.948 24.4694 239.833 24.4832C239.688 24.5002 239.566 24.3767 239.484 24.2646C239.148 23.8149 239.258 23.1738 239.576 22.7477C240.014 22.163 240.725 21.9469 241.389 21.8206C241.615 21.7768 241.528 21.4128 241.304 21.4562C240.526 21.6051 239.732 21.8915 239.245 22.5924C238.834 23.1867 238.782 24.1014 239.318 24.6302C239.616 24.9236 240.001 24.916 240.31 24.6342C240.62 24.3525 240.573 23.9521 240.34 23.6479C239.879 23.0434 238.94 23.0653 238.316 23.3267C237.959 23.4767 237.56 23.7385 237.391 24.1205C237.237 24.4704 237.232 24.9582 237.324 25.3246C237.383 25.5581 237.729 25.4653 237.67 25.2321Z" fill="#DFBDBD"/>
<path opacity="0.3" d="M72.4655 51.9398C72.5209 52.5288 72.7623 53.1317 73.0892 53.6254C73.4161 54.1192 73.9814 54.3238 74.5454 54.4423C75.8109 54.7094 77.351 54.4389 78.2878 53.5035C78.6191 53.1712 79.1298 52.3725 78.6596 51.9466C78.4574 51.765 78.0482 51.6802 77.7871 51.7438C77.4554 51.826 77.283 52.1805 77.1883 52.4795C76.7988 53.6825 77.5315 54.923 78.558 55.5488C79.9685 56.4067 81.6926 56.2808 83.2463 56.0061C83.7753 55.9142 83.8656 56.7387 83.3394 56.8302C81.5197 57.1496 79.5576 57.1977 77.951 56.1381C76.5917 55.2388 75.7757 53.3843 76.5448 51.8551C76.9716 51.0068 77.8214 50.7116 78.7171 51.0454C79.6128 51.3793 79.8171 52.2473 79.5407 53.0659C78.9949 54.6911 76.9179 55.4046 75.3486 55.3668C74.4489 55.3448 73.3732 55.1244 72.7094 54.4688C72.1021 53.8683 71.7172 52.8608 71.637 52.027C71.5853 51.4959 72.4167 51.4084 72.4655 51.9398Z" fill="#D4A7A7"/>
<rect opacity="0.3" width="4.24823" height="6.13265" transform="matrix(0.81621 -0.577756 0.605021 0.79621 164.65 34.918)" fill="#FFE787"/>
<rect width="4.10767" height="6.29447" transform="matrix(0.715761 0.698345 -0.723275 0.69056 302.012 66.7891)" fill="#CEDFF2"/>
<rect opacity="0.3" width="3.795" height="3.99389" transform="matrix(0.820544 0.571584 -0.598866 0.800849 230.695 -0.125)" fill="#3E98F9"/>
<rect opacity="0.1" width="5.70206" height="6.00089" transform="matrix(0.820544 0.571584 -0.598866 0.800849 4.5459 25.7891)" fill="#3E98F9"/>
<rect opacity="0.3" width="3.09366" height="3.23119" transform="matrix(0.881468 -0.472245 0.498552 0.86686 106.707 57.2461)" fill="#3E98F9"/>
<ellipse cx="1.60772" cy="2.50563" rx="1.60772" ry="2.50563" transform="matrix(0.787916 0.615782 -0.64273 0.766093 45.9082 65.5273)" fill="#FFF1BB"/>
<ellipse opacity="0.5" cx="1.34504" cy="2.46517" rx="1.34504" ry="2.46517" transform="matrix(0.909799 0.415049 -0.439817 0.898087 242.95 46.5273)" fill="#3E98F9"/>
<ellipse opacity="0.2" cx="0.79101" cy="1.44975" rx="0.79101" ry="1.44975" transform="matrix(-0.909799 0.415049 0.439817 0.898087 211.173 23.6797)" fill="#D4A7A7"/>
<path d="M278.043 27.9805L279.923 24.9174" stroke="#3E98F9" stroke-width="0.582857"/>
<path d="M277.396 25.543L280.57 27.3572" stroke="#3E98F9" stroke-width="0.582857"/>
<g opacity="0.4">
<path d="M186.915 12.0977L188.795 9.0346" stroke="#AE595A" stroke-width="0.582857"/>
<path d="M186.269 9.66016L189.442 11.4743" stroke="#AE595A" stroke-width="0.582857"/>
</g>
<g opacity="0.4">
<path d="M141.286 38.3398L140.423 34.8513" stroke="#C5E0FD" stroke-width="0.582857"/>
<path d="M139.097 37.0898L142.616 36.1016" stroke="#C5E0FD" stroke-width="0.582857"/>
</g>
<path opacity="0.2" d="M21.0047 53.9661C18.1164 53.4352 15.4489 55.5181 16.0007 58.0339C16.2645 59.2305 17.32 60.1984 18.5626 60.7457C19.8868 61.3297 21.638 61.6605 23.13 61.5829C24.4158 61.5176 25.8599 60.7008 25.5145 59.4469C25.1979 58.3116 23.725 57.7602 22.4632 57.9236C19.7141 58.2789 18.4811 60.9621 19.1576 63.0409C20.0547 65.7895 23.6194 67.0556 26.618 65.9365C27.4624 65.618 26.7331 64.5643 25.8935 64.8787C24.2239 65.5036 22.0937 65.0258 21.0862 63.7189C20.1315 62.4814 20.1123 60.7375 21.4365 59.6797C22.0026 59.2264 22.9142 58.9038 23.6482 59.2673C23.9169 59.402 24.2287 59.6552 24.0848 59.9452C23.9073 60.2964 23.322 60.3618 22.9381 60.3659C21.1102 60.3904 18.6202 59.9044 17.6799 58.4259C16.5908 56.7229 18.4523 54.7503 20.6208 55.1505C21.5228 55.318 21.9114 54.1377 21.0047 53.9702V53.9661Z" fill="#8DBCEF"/>
</svg>
