<svg width="24" height="24" viewBox="0 0 24 24" fill="none" xmlns="http://www.w3.org/2000/svg">
<path fill-rule="evenodd" clip-rule="evenodd" d="M17.8976 16.6249C19.1493 15.0918 19.9 13.1336 19.9 11.0001C19.9 6.08476 15.9153 2.1001 11 2.1001C6.08464 2.1001 2.09998 6.08476 2.09998 11.0001C2.09998 15.9154 6.08464 19.9001 11 19.9001C13.1335 19.9001 15.0917 19.1494 16.6248 17.8977L20.3636 21.6365C20.7151 21.988 21.2849 21.988 21.6364 21.6365C21.9878 21.285 21.9878 20.7152 21.6364 20.3637L17.8976 16.6249ZM11 3.9001C7.07875 3.9001 3.89998 7.07888 3.89998 11.0001C3.89998 14.9213 7.07875 18.1001 11 18.1001C12.9157 18.1001 14.6541 17.3414 15.9313 16.1081C15.9562 16.0752 15.9836 16.0437 16.0136 16.0137C16.0436 15.9837 16.0751 15.9563 16.108 15.9314C17.3413 14.6543 18.1 12.9158 18.1 11.0001C18.1 7.07888 14.9212 3.9001 11 3.9001Z" fill="#717171"/>
</svg>
