<svg width="25" height="24" viewBox="0 0 25 24" fill="none" xmlns="http://www.w3.org/2000/svg">
<path fill-rule="evenodd" clip-rule="evenodd" d="M15.001 1.96143L15.002 1.96221L21.9326 7.60822C22.4709 8.04992 22.8673 8.68985 23.1083 9.33356C23.3496 9.97812 23.4709 10.7219 23.3603 11.4118L23.3598 11.415L22.0298 19.5266L22.0294 19.5293C21.7192 21.3863 19.9852 22.8999 18.1017 22.8999H6.90168C5.00902 22.8999 3.28379 21.3972 2.97381 19.5282L1.64445 11.4204L1.64395 11.4175C1.5268 10.7253 1.64575 9.97945 1.88757 9.33356C2.12934 8.68779 2.52939 8.04726 3.07384 7.60572L3.0752 7.60463L10.0022 1.95138C11.3951 0.813549 13.6012 0.815791 15.001 1.96143ZM13.8614 3.35475C13.1213 2.74854 11.868 2.75128 11.1412 3.3452L4.20817 9.00334C3.97332 9.19357 3.73383 9.53589 3.5733 9.96468C3.41296 10.393 3.3669 10.8128 3.41892 11.1184L3.41984 11.1238L4.74955 19.2337C4.91994 20.2585 5.91459 21.0999 6.90168 21.0999H18.1017C19.0777 21.0999 20.0831 20.2502 20.2537 19.2343L20.254 19.2327L21.583 11.127L21.5833 11.1253C21.6323 10.8167 21.5835 10.3944 21.4226 9.96467C21.2614 9.53406 21.0233 9.19107 20.792 9.00076L20.7908 8.99974L13.8632 3.35625L13.8614 3.35475Z" fill="#717171"/>
<path d="M12.5035 18.0576V15.0576V18.0576Z" fill="#717171"/>
<path d="M12.5035 18.0576V15.0576" stroke="#717171" stroke-width="1.8" stroke-linecap="round" stroke-linejoin="round"/>
</svg>
