<svg width="24" height="24" viewBox="0 0 24 24" fill="none" xmlns="http://www.w3.org/2000/svg">
<path fill-rule="evenodd" clip-rule="evenodd" d="M6.16457 2.1001H17.8354C18.3652 2.10008 18.8164 2.10007 19.1869 2.13034C19.576 2.16213 19.9546 2.23177 20.3165 2.41618C20.8622 2.69421 21.3059 3.13786 21.5839 3.68353C21.7683 4.04546 21.8379 4.42405 21.8697 4.81321C21.9 5.18365 21.9 5.63482 21.9 6.16469V17.8355C21.9 18.3654 21.9 18.8166 21.8697 19.187C21.8379 19.5761 21.7683 19.9547 21.5839 20.3167C21.3059 20.8623 20.8622 21.306 20.3165 21.584C19.9546 21.7684 19.576 21.8381 19.1869 21.8699C18.8164 21.9001 18.3653 21.9001 17.8354 21.9001H6.16457C5.6347 21.9001 5.18352 21.9001 4.81309 21.8699C4.42393 21.8381 4.04534 21.7684 3.6834 21.584C3.13774 21.306 2.69409 20.8623 2.41606 20.3167C2.23164 19.9547 2.16201 19.5761 2.13021 19.187C2.09995 18.8166 2.09996 18.3654 2.09998 17.8355V6.1647C2.09996 5.63483 2.09995 5.18365 2.13021 4.81321C2.16201 4.42405 2.23164 4.04546 2.41606 3.68353C2.69409 3.13786 3.13773 2.69421 3.6834 2.41618C4.04534 2.23177 4.42393 2.16213 4.81309 2.13034C5.18352 2.10007 5.6347 2.10008 6.16457 2.1001ZM3.89998 10.287V17.8001C3.89998 18.375 3.90068 18.7521 3.92424 19.0404C3.94694 19.3183 3.9863 19.4336 4.01987 19.4995C4.12533 19.7065 4.29361 19.8747 4.50059 19.9802C4.56648 20.0138 4.68182 20.0531 4.95967 20.0758C5.24802 20.0994 5.62507 20.1001 6.19998 20.1001H8.09998L8.09998 15.5703C8.09995 15.316 8.09993 15.074 8.11659 14.87C8.13476 14.6476 8.17715 14.3925 8.30707 14.1375C8.48922 13.78 8.77989 13.4893 9.1374 13.3072C9.39237 13.1773 9.64748 13.1349 9.86989 13.1167C10.0739 13.1 10.3159 13.1001 10.5702 13.1001H13.4297C13.6841 13.1001 13.9261 13.1 14.1301 13.1167C14.3525 13.1349 14.6076 13.1773 14.8626 13.3072C15.2201 13.4893 15.5107 13.78 15.6929 14.1375C15.8228 14.3925 15.8652 14.6476 15.8834 14.87C15.9 15.074 15.9 15.316 15.9 15.5703L15.9 20.1001H17.8C18.3749 20.1001 18.7519 20.0994 19.0403 20.0758C19.3181 20.0531 19.4335 20.0138 19.4994 19.9802C19.7063 19.8747 19.8746 19.7065 19.9801 19.4995C20.0137 19.4336 20.053 19.3183 20.0757 19.0404C20.0993 18.7521 20.1 18.375 20.1 17.8001V10.287C19.4938 10.6751 18.7732 10.9001 18 10.9001C16.7937 10.9001 15.7154 10.3525 15 9.49224C14.2846 10.3525 13.2062 10.9001 12 10.9001C10.7937 10.9001 9.71536 10.3525 8.99998 9.49224C8.28459 10.3525 7.20624 10.9001 5.99998 10.9001C5.22679 10.9001 4.50616 10.6751 3.89998 10.287ZM9.89998 7.0001C9.89998 8.1599 10.8402 9.1001 12 9.1001C13.1598 9.1001 14.1 8.1599 14.1 7.0001C14.1 6.50304 14.5029 6.1001 15 6.1001C15.497 6.1001 15.9 6.50304 15.9 7.0001C15.9 8.1599 16.8402 9.1001 18 9.1001C19.1598 9.1001 20.1 8.1599 20.1 7.0001V6.2001C20.1 5.6252 20.0993 5.24815 20.0757 4.95979C20.053 4.68194 20.0137 4.5666 19.9801 4.50071C19.8746 4.29373 19.7063 4.12545 19.4994 4.01999C19.4335 3.98642 19.3181 3.94706 19.0403 3.92436C18.7519 3.9008 18.3749 3.9001 17.8 3.9001H6.19998C5.62507 3.9001 5.24802 3.9008 4.95967 3.92436C4.68182 3.94706 4.56648 3.98642 4.50059 4.01999C4.29361 4.12545 4.12533 4.29373 4.01987 4.50071C3.9863 4.5666 3.94694 4.68194 3.92424 4.95979C3.90068 5.24815 3.89998 5.6252 3.89998 6.2001V7.0001C3.89998 8.1599 4.84018 9.1001 5.99998 9.1001C7.15977 9.1001 8.09998 8.1599 8.09998 7.0001C8.09998 6.50304 8.50292 6.1001 8.99998 6.1001C9.49703 6.1001 9.89998 6.50304 9.89998 7.0001ZM14.1 20.1001V15.6001C14.1 15.3052 14.0993 15.1382 14.0893 15.0166C14.0862 14.9782 14.0827 14.9541 14.0803 14.9406C14.0745 14.9326 14.0674 14.9256 14.0595 14.9197C14.046 14.9174 14.0219 14.9139 13.9835 14.9107C13.8619 14.9008 13.6949 14.9001 13.4 14.9001H10.6C10.3051 14.9001 10.1381 14.9008 10.0165 14.9107C9.97808 14.9139 9.95393 14.9174 9.94046 14.9197C9.93252 14.9256 9.9255 14.9326 9.91962 14.9406C9.91725 14.9541 9.91375 14.9782 9.91061 15.0166C9.90068 15.1382 9.89998 15.3052 9.89998 15.6001V20.1001H14.1Z" fill="#717171"/>
</svg>
