<svg width="17" height="17" viewBox="0 0 17 17" fill="none" xmlns="http://www.w3.org/2000/svg">
<g clip-path="url(#clip0_9989_13930)">
<path d="M9.19466 2.08073H6.06133C4.94122 2.08073 4.38117 2.08073 3.95335 2.29872C3.57702 2.49046 3.27106 2.79642 3.07932 3.17275C2.86133 3.60057 2.86133 4.16062 2.86133 5.28073V10.8807C2.86133 12.0008 2.86133 12.5609 3.07932 12.9887C3.27106 13.365 3.57702 13.671 3.95335 13.8627C4.38117 14.0807 4.94122 14.0807 6.06133 14.0807H12.1947C12.8146 14.0807 13.1246 14.0807 13.379 14.0126C14.0692 13.8276 14.6082 13.2886 14.7932 12.5984C14.8613 12.344 14.8613 12.034 14.8613 11.4141M13.528 5.41406V1.41406M11.528 3.41406H15.528M7.86133 5.7474C7.86133 6.48378 7.26438 7.08073 6.528 7.08073C5.79162 7.08073 5.19466 6.48378 5.19466 5.7474C5.19466 5.01102 5.79162 4.41406 6.528 4.41406C7.26438 4.41406 7.86133 5.01102 7.86133 5.7474ZM10.8547 8.02616L5.21543 13.1528C4.89824 13.4411 4.73964 13.5853 4.72561 13.7102C4.71345 13.8185 4.75496 13.9258 4.83679 13.9978C4.93118 14.0807 5.14552 14.0807 5.57419 14.0807H11.832C12.7914 14.0807 13.2711 14.0807 13.6479 13.9195C14.121 13.7172 14.4978 13.3404 14.7001 12.8673C14.8613 12.4906 14.8613 12.0108 14.8613 11.0514C14.8613 10.7286 14.8613 10.5672 14.826 10.4168C14.7817 10.2279 14.6966 10.051 14.5768 9.89833C14.4815 9.77686 14.3555 9.67603 14.1034 9.47437L12.2385 7.9825C11.9863 7.78067 11.8601 7.67975 11.7212 7.64414C11.5987 7.61275 11.4699 7.61681 11.3497 7.65586C11.2133 7.70016 11.0938 7.80883 10.8547 8.02616Z" stroke="#C0C0C0" stroke-linecap="round" stroke-linejoin="round"/>
</g>
<defs>
<clipPath id="clip0_9989_13930">
<rect width="16" height="16" fill="white" transform="translate(0.861328 0.0820312)"/>
</clipPath>
</defs>
</svg>
