<svg width="25" height="24" viewBox="0 0 25 24" fill="none" xmlns="http://www.w3.org/2000/svg">
<path fill-rule="evenodd" clip-rule="evenodd" d="M1.59998 8.65291C1.59998 5.04487 4.47929 2.1001 8.05998 2.1001C9.78659 2.1001 11.3482 2.78799 12.5004 3.90218C13.6552 2.78761 15.2221 2.1001 16.94 2.1001C20.5207 2.1001 23.4 5.04487 23.4 8.65291C23.4 12.4881 21.64 15.5145 19.5451 17.6851C17.4629 19.8424 14.9979 21.2121 13.4175 21.7585C13.1214 21.8633 12.7885 21.9001 12.5 21.9001C12.2115 21.9001 11.8785 21.8633 11.5824 21.7585C10.002 21.2121 7.53702 19.8424 5.4549 17.6851C3.35996 15.5145 1.59998 12.4881 1.59998 8.65291ZM8.05998 3.9001C5.50066 3.9001 3.39998 6.0115 3.39998 8.65291C3.39998 11.8964 4.87999 14.4975 6.75005 16.4351C8.63124 18.3842 10.8539 19.6028 12.1737 20.0584L12.1825 20.0614C12.2252 20.0766 12.3401 20.1001 12.5 20.1001C12.6598 20.1001 12.7748 20.0767 12.8174 20.0615L12.8263 20.0583C14.146 19.6027 16.3687 18.3842 18.2499 16.4351C20.12 14.4975 21.6 11.8964 21.6 8.65291C21.6 6.0115 19.4993 3.9001 16.94 3.9001C15.4315 3.9001 14.0749 4.64118 13.2254 5.79799C13.0558 6.02889 12.7864 6.16527 12.5 6.16527C12.2135 6.16527 11.9441 6.02889 11.7746 5.79799C10.9245 4.64042 9.57753 3.9001 8.05998 3.9001Z" fill="#717171"/>
</svg>
