<svg width="24" height="24" viewBox="0 0 24 24" fill="none" xmlns="http://www.w3.org/2000/svg">
<path fill-rule="evenodd" clip-rule="evenodd" d="M6.65774 7.5001C6.65774 4.52876 9.03861 2.1001 12 2.1001C14.9613 2.1001 17.3422 4.52876 17.3422 7.5001C17.3422 10.4714 14.9613 12.9001 12 12.9001C9.03861 12.9001 6.65774 10.4714 6.65774 7.5001ZM12 3.9001C10.0546 3.9001 8.45774 5.50088 8.45774 7.5001C8.45774 9.49932 10.0546 11.1001 12 11.1001C13.9454 11.1001 15.5422 9.49932 15.5422 7.5001C15.5422 5.50088 13.9454 3.9001 12 3.9001Z" fill="#717171"/>
<path fill-rule="evenodd" clip-rule="evenodd" d="M3.59447 18.368C5.52464 15.7803 8.56783 14.1001 12 14.1001C15.4321 14.1001 18.4753 15.7803 20.4055 18.368C20.4138 18.3791 20.4221 18.3902 20.4304 18.4014C20.5994 18.6278 20.7751 18.8631 20.8999 19.0889C21.049 19.3585 21.1564 19.6644 21.1497 20.0346C21.1443 20.3317 21.0552 20.613 20.9447 20.8378C20.8345 21.0622 20.6659 21.3056 20.4323 21.4913C20.1202 21.7394 19.7783 21.8291 19.4671 21.8669C19.1926 21.9002 18.8659 21.9002 18.5312 21.9001H5.46878C5.13408 21.9002 4.80739 21.9002 4.53283 21.8669C4.22165 21.8291 3.87971 21.7394 3.56766 21.4913C3.33404 21.3056 3.16549 21.0622 3.05523 20.8378C2.94479 20.613 2.85563 20.3317 2.85027 20.0346C2.84359 19.6644 2.95096 19.3585 3.10006 19.0889C3.22488 18.8632 3.40056 18.6278 3.5695 18.4014C3.57784 18.3902 3.58617 18.3791 3.59447 18.368ZM12 15.9001C9.17335 15.9001 6.65066 17.2812 5.0373 19.4442C4.8324 19.7189 4.7334 19.8548 4.67527 19.9599C4.66456 19.9793 4.65782 19.9932 4.6537 20.0025C4.65745 20.014 4.66305 20.0283 4.67073 20.044C4.67551 20.0537 4.68034 20.0624 4.68488 20.0699C4.69994 20.0729 4.72114 20.0765 4.74992 20.08C4.90261 20.0986 5.11746 20.1001 5.51158 20.1001H18.4884C18.8825 20.1001 19.0973 20.0986 19.25 20.08C19.2788 20.0765 19.3 20.0729 19.3151 20.0699C19.3196 20.0624 19.3244 20.0537 19.3292 20.044C19.3369 20.0283 19.3425 20.014 19.3463 20.0025C19.3421 19.9932 19.3354 19.9793 19.3247 19.9599C19.2666 19.8548 19.1675 19.7189 18.9627 19.4442C17.3493 17.2812 14.8266 15.9001 12 15.9001Z" fill="#717171"/>
</svg>
