<svg width="25" height="24" viewBox="0 0 25 24" fill="none" xmlns="http://www.w3.org/2000/svg">
<path d="M8.49999 8.31885C8.00293 8.31885 7.59999 8.72179 7.59999 9.21885C7.59999 9.71591 8.00293 10.1189 8.49999 10.1189H16.5C16.997 10.1189 17.4 9.71591 17.4 9.21885C17.4 8.72179 16.997 8.31885 16.5 8.31885H8.49999Z" fill="#717171"/>
<path d="M8.49999 12.3189C8.00293 12.3189 7.59999 12.7218 7.59999 13.2189C7.59999 13.7159 8.00293 14.1189 8.49999 14.1189H14.5C14.997 14.1189 15.4 13.7159 15.4 13.2189C15.4 12.7218 14.997 12.3189 14.5 12.3189H8.49999Z" fill="#717171"/>
<path d="M8.49999 16.3189C8.00293 16.3189 7.59999 16.7218 7.59999 17.2189C7.59999 17.7159 8.00293 18.1189 8.49999 18.1189H10.5C10.997 18.1189 11.4 17.7159 11.4 17.2189C11.4 16.7218 10.997 16.3189 10.5 16.3189H8.49999Z" fill="#717171"/>
<path fill-rule="evenodd" clip-rule="evenodd" d="M10.0702 1.1001C9.81591 1.10007 9.57386 1.10005 9.3699 1.11671C9.14749 1.13489 8.89239 1.17727 8.63741 1.30719C8.2799 1.48935 7.98924 1.78001 7.80708 2.13752C7.67716 2.3925 7.63478 2.64761 7.6166 2.87001C7.61057 2.9439 7.60672 3.02278 7.60427 3.10543C7.17255 3.11586 6.81482 3.14611 6.4906 3.23299C5.14474 3.59361 4.0935 4.64485 3.73288 5.99071C3.59933 6.48913 3.59959 7.06673 3.59995 7.87058L3.59999 17.2378C3.59998 18.0459 3.59997 18.7067 3.64385 19.2438C3.68927 19.7997 3.78615 20.3018 4.02507 20.7707C4.39897 21.5045 4.9956 22.1011 5.72943 22.475C6.19832 22.7139 6.70039 22.8108 7.25631 22.8562C7.79338 22.9001 8.45423 22.9001 9.26229 22.9001H15.7377C16.5457 22.9001 17.2066 22.9001 17.7437 22.8562C18.2996 22.8108 18.8017 22.7139 19.2706 22.475C20.0044 22.1011 20.601 21.5045 20.9749 20.7707C21.2138 20.3018 21.3107 19.7997 21.3561 19.2438C21.4 18.7067 21.4 18.0459 21.4 17.2378L21.4 7.87057C21.4004 7.06672 21.4007 6.48913 21.2671 5.99071C20.9065 4.64485 19.8552 3.59361 18.5094 3.23299C18.1852 3.14611 17.8274 3.11586 17.3957 3.10543C17.3933 3.02278 17.3894 2.9439 17.3834 2.87001C17.3652 2.64761 17.3228 2.3925 17.1929 2.13752C17.0107 1.78001 16.7201 1.48935 16.3626 1.30719C16.1076 1.17727 15.8525 1.13489 15.6301 1.11671C15.4261 1.10005 15.1841 1.10007 14.9297 1.1001H10.0702ZM6.95647 4.97166C7.10028 4.93312 7.27296 4.91504 7.60464 4.90675C7.6071 4.98505 7.61086 5.05988 7.6166 5.13019C7.63478 5.3526 7.67716 5.60771 7.80708 5.86268C7.98924 6.22019 8.2799 6.51085 8.63741 6.69301C8.89239 6.82293 9.1475 6.86532 9.3699 6.88349C9.57386 6.90015 9.81591 6.90013 10.0702 6.9001H14.9298C15.1841 6.90013 15.4261 6.90015 15.6301 6.88349C15.8525 6.86532 16.1076 6.82293 16.3626 6.69301C16.7201 6.51085 17.0107 6.22019 17.1929 5.86268C17.3228 5.60771 17.3652 5.3526 17.3834 5.13019C17.3891 5.05988 17.3929 4.98505 17.3953 4.90675C17.727 4.91504 17.8997 4.93312 18.0435 4.97166C18.7682 5.16584 19.3343 5.73189 19.5284 6.45658C19.5923 6.69478 19.6 7.01219 19.6 8.0001V17.2001C19.6 18.055 19.5993 18.6421 19.5621 19.0972C19.5258 19.5418 19.4592 19.7806 19.3711 19.9535C19.1698 20.3486 18.8485 20.6699 18.4534 20.8712C18.2805 20.9593 18.0417 21.0259 17.5971 21.0622C17.142 21.0994 16.5549 21.1001 15.7 21.1001H9.29999C8.44506 21.1001 7.85799 21.0994 7.40289 21.0622C6.95829 21.0259 6.71946 20.9593 6.54661 20.8712C6.15147 20.6699 5.83021 20.3486 5.62888 19.9535C5.54081 19.7806 5.4742 19.5418 5.43787 19.0972C5.40069 18.6421 5.39999 18.055 5.39999 17.2001V8.0001C5.39999 7.01219 5.40772 6.69478 5.47155 6.45658C5.66573 5.73189 6.23178 5.16584 6.95647 4.97166ZM15.6 3.6001V4.4001C15.6 4.69498 15.5993 4.86201 15.5894 4.98361C15.5862 5.022 15.5827 5.04615 15.5803 5.05962C15.5745 5.06756 15.5674 5.07458 15.5595 5.08046C15.546 5.08283 15.5219 5.08633 15.4835 5.08947C15.3619 5.0994 15.1949 5.1001 14.9 5.1001H10.1C9.80511 5.1001 9.63808 5.0994 9.51648 5.08947C9.4781 5.08633 9.45395 5.08283 9.44047 5.08046C9.43253 5.07458 9.42551 5.06756 9.41963 5.05962C9.41726 5.04615 9.41376 5.022 9.41063 4.98361C9.40069 4.86201 9.39999 4.69498 9.39999 4.4001V3.6001C9.39999 3.30522 9.40069 3.13819 9.41063 3.01659C9.41376 2.97821 9.41726 2.95406 9.41963 2.94058C9.42551 2.93264 9.43253 2.92562 9.44047 2.91974C9.45395 2.91737 9.4781 2.91387 9.51648 2.91074C9.63808 2.9008 9.80511 2.9001 10.1 2.9001H14.9C15.1949 2.9001 15.3619 2.9008 15.4835 2.91074C15.5219 2.91387 15.546 2.91737 15.5595 2.91974C15.5674 2.92562 15.5745 2.93264 15.5803 2.94058C15.5827 2.95406 15.5862 2.97821 15.5894 3.01659C15.5993 3.13819 15.6 3.30522 15.6 3.6001Z" fill="#717171"/>
</svg>
