<svg width="17" height="16" viewBox="0 0 17 16" fill="none" xmlns="http://www.w3.org/2000/svg">
<path d="M11.6025 2.66536C12.2225 2.66536 12.5325 2.66536 12.7868 2.73351C13.477 2.91845 14.0161 3.45754 14.2011 4.14773C14.2692 4.40206 14.2692 4.71205 14.2692 5.33203V11.4654C14.2692 12.5855 14.2692 13.1455 14.0512 13.5733C13.8595 13.9497 13.5535 14.2556 13.1772 14.4474C12.7494 14.6654 12.1893 14.6654 11.0692 14.6654H6.80254C5.68243 14.6654 5.12238 14.6654 4.69456 14.4474C4.31823 14.2556 4.01227 13.9497 3.82053 13.5733C3.60254 13.1455 3.60254 12.5855 3.60254 11.4654V5.33203C3.60254 4.71205 3.60254 4.40206 3.67069 4.14773C3.85562 3.45754 4.39472 2.91845 5.0849 2.73351C5.33923 2.66536 5.64922 2.66536 6.26921 2.66536M7.33587 3.9987H10.5359C10.9092 3.9987 11.0959 3.9987 11.2385 3.92604C11.364 3.86212 11.466 3.76013 11.5299 3.63469C11.6025 3.49208 11.6025 3.3054 11.6025 2.93203V2.3987C11.6025 2.02533 11.6025 1.83865 11.5299 1.69604C11.466 1.5706 11.364 1.46861 11.2385 1.40469C11.0959 1.33203 10.9092 1.33203 10.5359 1.33203H7.33587C6.9625 1.33203 6.77582 1.33203 6.63321 1.40469C6.50777 1.46861 6.40578 1.5706 6.34187 1.69604C6.26921 1.83865 6.26921 2.02533 6.26921 2.3987V2.93203C6.26921 3.3054 6.26921 3.49208 6.34187 3.63469C6.40578 3.76013 6.50777 3.86212 6.63321 3.92604C6.77582 3.9987 6.9625 3.9987 7.33587 3.9987Z" stroke="#5F5F5F" stroke-linecap="round" stroke-linejoin="round"/>
<path d="M11.6019 9.33333H6.26855M11.6019 6.66667H6.26855M7.60189 12H6.26855" stroke="#5F5F5F" stroke-linecap="round" stroke-linejoin="round"/>
</svg>
