<svg width="24" height="25" viewBox="0 0 24 25" fill="none" xmlns="http://www.w3.org/2000/svg">
<path d="M12.5 3.90625H7.8C6.11984 3.90625 5.27976 3.90625 4.63803 4.23323C4.07354 4.52085 3.6146 4.97979 3.32698 5.54428C3 6.18601 3 7.02609 3 8.70625V17.1062C3 18.7864 3 19.6265 3.32698 20.2682C3.6146 20.8327 4.07354 21.2916 4.63803 21.5793C5.27976 21.9062 6.11984 21.9062 7.8 21.9062H17C17.93 21.9062 18.395 21.9062 18.7765 21.804C19.8117 21.5266 20.6204 20.718 20.8978 19.6827C21 19.3012 21 18.8362 21 17.9062M19 8.90625V2.90625M16 5.90625H22M10.5 9.40625C10.5 10.5108 9.60457 11.4062 8.5 11.4062C7.39543 11.4062 6.5 10.5108 6.5 9.40625C6.5 8.30168 7.39543 7.40625 8.5 7.40625C9.60457 7.40625 10.5 8.30168 10.5 9.40625ZM14.99 12.8244L6.53115 20.5143C6.05536 20.9468 5.81747 21.1631 5.79643 21.3504C5.77819 21.5128 5.84045 21.6739 5.96319 21.7818C6.10478 21.9063 6.42628 21.9062 7.06929 21.9062H16.456C17.8951 21.9062 18.6147 21.9062 19.1799 21.6645C19.8894 21.361 20.4547 20.7957 20.7582 20.0862C21 19.521 21 18.8014 21 17.3622C21 16.878 21 16.6359 20.9471 16.4104C20.8805 16.127 20.753 15.8616 20.5733 15.6326C20.4303 15.4505 20.2412 15.2992 19.8631 14.9967L17.0658 12.7589C16.6874 12.4562 16.4982 12.3048 16.2898 12.2514C16.1061 12.2043 15.9129 12.2104 15.7325 12.2689C15.5279 12.3354 15.3486 12.4984 14.99 12.8244Z" stroke="#2F2F2F" stroke-linecap="round" stroke-linejoin="round"/>
</svg>
