<svg width="40" height="40" viewBox="0 0 40 40" fill="none" xmlns="http://www.w3.org/2000/svg">
<rect x="6.58984" y="6.60547" width="23.0957" height="27.9961" rx="3.5" fill="#C5E0FD"/>
<rect x="12.3887" y="4.41406" width="11.5024" height="4.69141" rx="1.4" fill="#78ACE4"/>
<path d="M24.4063 13.6602H11.8711C11.2509 13.6602 10.748 14.163 10.748 14.7832C10.748 15.4034 11.2509 15.9062 11.8711 15.9062H24.4063C25.0265 15.9062 25.5293 15.4034 25.5293 14.7832C25.5293 14.163 25.0265 13.6602 24.4063 13.6602Z" fill="#327AC7"/>
<path d="M18.9609 26.0664H11.8711C11.2509 26.0664 10.748 26.5692 10.748 27.1895C10.748 27.8097 11.2509 28.3125 11.8711 28.3125H18.9609C19.5812 28.3125 20.084 27.8097 20.084 27.1895C20.084 26.5692 19.5812 26.0664 18.9609 26.0664Z" fill="#327AC7"/>
<path d="M24.4063 19.8633H11.8711C11.2509 19.8633 10.748 20.3661 10.748 20.9863C10.748 21.6066 11.2509 22.1094 11.8711 22.1094H24.4063C25.0265 22.1094 25.5293 21.6066 25.5293 20.9863C25.5293 20.3661 25.0265 19.8633 24.4063 19.8633Z" fill="#327AC7"/>
<path d="M35.1699 39.4865C34.8553 39.4865 34.5414 39.3667 34.3012 39.1265L28.7837 33.609C28.3039 33.1292 28.3039 32.3514 28.7837 31.8716C29.2635 31.3918 30.0413 31.3918 30.5211 31.8716L36.0386 37.3891C36.5184 37.8689 36.5184 38.6466 36.0386 39.1265C35.7984 39.3667 35.4844 39.4865 35.1699 39.4865Z" fill="#3E98F9"/>
<path opacity="0.3" d="M31.2568 26.7806C31.2568 22.6091 27.8631 19.2148 23.6911 19.2148C21.6053 19.2148 19.7138 20.0633 18.3438 21.4333L29.0378 32.1279C30.4078 30.7579 31.2568 28.8663 31.2568 26.7806Z" fill="#E5E9EE"/>
<path opacity="0.5" d="M29.0381 32.1282L18.3434 21.4336C16.9734 22.8036 16.125 24.6952 16.125 26.7809C16.125 30.9524 19.5193 34.3467 23.6907 34.3467C25.7765 34.3467 27.6681 33.4982 29.0381 32.1282Z" fill="#F0F3F6"/>
<path d="M23.6898 35.2669C19.0103 35.2669 15.2031 31.4598 15.2031 26.7802C15.2031 22.1007 19.0103 18.293 23.6898 18.293C28.3693 18.293 32.1771 22.1001 32.1771 26.7802C32.1771 31.4604 28.3699 35.2669 23.6898 35.2669ZM23.6898 20.136C20.0264 20.136 17.0462 23.1169 17.0462 26.7802C17.0462 30.4436 20.027 33.4238 23.6898 33.4238C27.3525 33.4238 30.334 30.443 30.334 26.7802C30.334 23.1175 27.3532 20.136 23.6898 20.136Z" fill="#9ECBFC"/>
</svg>
