<svg width="24" height="25" viewBox="0 0 24 25" fill="none" xmlns="http://www.w3.org/2000/svg">
<g id="bell-01">
<path id="Icon" d="M10.4995 13.7638L20.9995 3.26384M10.6271 14.0919L13.2552 20.8499C13.4867 21.4453 13.6025 21.7429 13.7693 21.8298C13.9139 21.9052 14.0862 21.9053 14.2308 21.8301C14.3977 21.7434 14.5139 21.4459 14.7461 20.8508L21.3364 3.96304C21.5461 3.42586 21.6509 3.15727 21.5935 2.98564C21.5437 2.8366 21.4268 2.71963 21.2777 2.66983C21.1061 2.6125 20.8375 2.71731 20.3003 2.92695L3.41258 9.51729C2.8175 9.74951 2.51997 9.86562 2.43326 10.0325C2.35809 10.1772 2.35819 10.3495 2.43353 10.4941C2.52043 10.6609 2.81811 10.7766 3.41345 11.0082L10.1715 13.6363C10.2923 13.6833 10.3527 13.7068 10.4036 13.7431C10.4487 13.7752 10.4881 13.8147 10.5203 13.8598C10.5566 13.9106 10.5801 13.9711 10.6271 14.0919Z" stroke="#191919" stroke-linecap="round" stroke-linejoin="round"/>
</g>
</svg>
