<svg width="33" height="33" viewBox="0 0 33 33" fill="none" xmlns="http://www.w3.org/2000/svg">
<g id="Group 2608601">
<rect id="image 25" x="0.0410156" y="0.46875" width="32" height="32" rx="16" fill="#E5E5E4"/>
<g id="Union">
<path fill-rule="evenodd" clip-rule="evenodd" d="M10.8488 11.8688C10.8488 8.89741 13.2297 6.46875 16.191 6.46875C19.1524 6.46875 21.5333 8.89741 21.5333 11.8688C21.5333 14.8401 19.1524 17.2687 16.191 17.2687C13.2297 17.2687 10.8488 14.8401 10.8488 11.8688Z" fill="#C0C0C0"/>
<path fill-rule="evenodd" clip-rule="evenodd" d="M7.78551 22.7366C9.71568 20.1489 12.7589 18.4688 16.191 18.4688C19.6232 18.4688 22.6664 20.1489 24.5965 22.7366C24.6048 22.7477 24.6131 22.7589 24.6215 22.7701C24.7904 22.9964 24.9661 23.2318 25.0909 23.4575C25.24 23.7272 25.3474 24.033 25.3407 24.4033C25.3354 24.7003 25.2462 24.9817 25.1358 25.2064C25.0255 25.4308 24.857 25.6742 24.6233 25.86C24.3113 26.108 23.9693 26.1977 23.6582 26.2355C23.3836 26.2689 23.0569 26.2688 22.7222 26.2688H9.65982C9.32512 26.2688 8.99843 26.2689 8.72387 26.2355C8.41269 26.1977 8.07075 26.108 7.7587 25.86C7.52508 25.6743 7.35653 25.4308 7.24627 25.2064C7.13583 24.9817 7.04667 24.7003 7.04131 24.4033C7.03463 24.033 7.142 23.7272 7.2911 23.4575C7.41592 23.2318 7.5916 22.9964 7.76054 22.7701C7.76888 22.7589 7.77721 22.7477 7.78551 22.7366Z" fill="#C0C0C0"/>
</g>
</g>
</svg>
