<svg width="23" height="20" viewBox="0 0 23 20" fill="none" xmlns="http://www.w3.org/2000/svg">
<path id="Union" fill-rule="evenodd" clip-rule="evenodd" d="M0.599976 6.65291C0.599976 3.04487 3.47929 0.100098 7.05998 0.100098C8.78659 0.100098 10.3482 0.787989 11.5004 1.90218C12.6552 0.787607 14.2221 0.100098 15.94 0.100098C19.5207 0.100098 22.4 3.04487 22.4 6.65291C22.4 10.4881 20.64 13.5145 18.5451 15.6851C16.4629 17.8424 13.9979 19.2121 12.4175 19.7585C12.1214 19.8633 11.7885 19.9001 11.5 19.9001C11.2115 19.9001 10.8785 19.8633 10.5824 19.7585C9.00202 19.2121 6.53702 17.8424 4.4549 15.6851C2.35996 13.5145 0.599976 10.4881 0.599976 6.65291ZM7.05998 1.9001C4.50066 1.9001 2.39998 4.0115 2.39998 6.65291C2.39998 9.89638 3.87999 12.4975 5.75005 14.4351C7.63124 16.3842 9.85392 17.6028 11.1737 18.0584L11.1825 18.0614C11.2252 18.0766 11.3401 18.1001 11.5 18.1001C11.6598 18.1001 11.7748 18.0767 11.8174 18.0615L11.8263 18.0583C13.146 17.6027 15.3687 16.3842 17.2499 14.4351C19.12 12.4975 20.6 9.89638 20.6 6.65291C20.6 4.0115 18.4993 1.9001 15.94 1.9001C14.4315 1.9001 13.0749 2.64118 12.2254 3.79799C12.0558 4.02889 11.7864 4.16527 11.5 4.16527C11.2135 4.16527 10.9441 4.02889 10.7746 3.79799C9.92446 2.64042 8.57753 1.9001 7.05998 1.9001Z" fill="#D22E2F"/>
</svg>
