<svg width="23" height="22" viewBox="0 0 23 22" fill="none" xmlns="http://www.w3.org/2000/svg">
<path fill-rule="evenodd" clip-rule="evenodd" d="M14.001 0.961432C14.0013 0.961693 14.0016 0.961954 14.002 0.962215L20.9326 6.60822C21.4709 7.04992 21.8673 7.68985 22.1083 8.33356C22.3496 8.97812 22.4709 9.72187 22.3603 10.4118L22.3598 10.415L21.0298 18.5266L21.0294 18.5293C20.7192 20.3863 18.9852 21.8999 17.1017 21.8999H5.90168C4.00902 21.8999 2.28379 20.3972 1.97381 18.5282L0.644446 10.4204C0.64428 10.4195 0.644114 10.4185 0.643949 10.4175C0.526802 9.72526 0.645752 8.97945 0.887567 8.33356C1.12934 7.68779 1.52939 7.04726 2.07384 6.60572C2.0743 6.60536 2.07475 6.60499 2.0752 6.60463L9.0022 0.95138C9.00205 0.951499 9.00234 0.951262 9.0022 0.95138C10.3951 -0.186451 12.6012 -0.184209 14.001 0.961432ZM12.8614 2.35475C12.1213 1.74854 10.868 1.75128 10.1412 2.3452L3.20817 8.00334C2.97332 8.19357 2.73383 8.53589 2.5733 8.96468C2.41296 9.39296 2.3669 9.81277 2.41892 10.1184L2.41984 10.1238L3.74955 18.2337C3.74951 18.2335 3.7496 18.234 3.74955 18.2337C3.91994 19.2585 4.91459 20.0999 5.90168 20.0999H17.1017C18.0777 20.0999 19.0831 19.2502 19.2537 18.2343C19.2538 18.2338 19.2539 18.2332 19.254 18.2327L20.583 10.127C20.5831 10.1264 20.5832 10.1259 20.5833 10.1253C20.6323 9.8167 20.5835 9.39441 20.4226 8.96467C20.2614 8.53406 20.0233 8.19107 19.792 8.00076C19.7916 8.00042 19.7912 8.00008 19.7908 7.99974L12.8632 2.35625L12.8614 2.35475Z" fill="#D22E2F"/>
<path d="M11.5034 17.0581V14.0581V17.0581Z" fill="#D22E2F"/>
<path d="M11.5034 17.0581V14.0581" stroke="#D22E2F" stroke-width="1.8" stroke-linecap="round" stroke-linejoin="round"/>
</svg>
