<svg width="20" height="20" viewBox="0 0 20 20" fill="none" xmlns="http://www.w3.org/2000/svg">
<g id="Union">
<path fill-rule="evenodd" clip-rule="evenodd" d="M4.65774 5.5001C4.65774 2.52876 7.03861 0.100098 9.99998 0.100098C12.9613 0.100098 15.3422 2.52876 15.3422 5.5001C15.3422 8.47144 12.9613 10.9001 9.99998 10.9001C7.03861 10.9001 4.65774 8.47144 4.65774 5.5001ZM9.99998 1.9001C8.05458 1.9001 6.45774 3.50088 6.45774 5.5001C6.45774 7.49932 8.05458 9.1001 9.99998 9.1001C11.9454 9.1001 13.5422 7.49932 13.5422 5.5001C13.5422 3.50088 11.9454 1.9001 9.99998 1.9001Z" fill="#D22E2F"/>
<path fill-rule="evenodd" clip-rule="evenodd" d="M1.59447 16.368C3.52464 13.7803 6.56783 12.1001 9.99998 12.1001C13.4321 12.1001 16.4753 13.7803 18.4055 16.368C18.4138 16.3791 18.4221 16.3902 18.4304 16.4014C18.5994 16.6278 18.7751 16.8631 18.8999 17.0889C19.049 17.3585 19.1564 17.6644 19.1497 18.0346C19.1443 18.3317 19.0552 18.613 18.9447 18.8378C18.8345 19.0622 18.6659 19.3056 18.4323 19.4913C18.1202 19.7394 17.7783 19.8291 17.4671 19.8669C17.1926 19.9002 16.8659 19.9002 16.5312 19.9001H3.46878C3.13408 19.9002 2.80739 19.9002 2.53283 19.8669C2.22165 19.8291 1.87971 19.7394 1.56766 19.4913C1.33404 19.3056 1.16549 19.0622 1.05523 18.8378C0.944789 18.613 0.855634 18.3317 0.850271 18.0346C0.843587 17.6644 0.950958 17.3585 1.10006 17.0889C1.22488 16.8632 1.40056 16.6278 1.5695 16.4014C1.57784 16.3902 1.58617 16.3791 1.59447 16.368ZM9.99998 13.9001C7.17335 13.9001 4.65066 15.2812 3.0373 17.4442C2.8324 17.7189 2.7334 17.8548 2.67527 17.9599C2.66456 17.9793 2.65782 17.9932 2.6537 18.0025C2.65745 18.014 2.66305 18.0283 2.67073 18.044C2.67551 18.0537 2.68034 18.0624 2.68488 18.0699C2.69994 18.0729 2.72114 18.0765 2.74992 18.08C2.90261 18.0986 3.11746 18.1001 3.51158 18.1001H16.4884C16.8825 18.1001 17.0973 18.0986 17.25 18.08C17.2788 18.0765 17.3 18.0729 17.3151 18.0699C17.3196 18.0624 17.3244 18.0537 17.3292 18.044C17.3369 18.0283 17.3425 18.014 17.3463 18.0025C17.3421 17.9932 17.3354 17.9793 17.3247 17.9599C17.2666 17.8548 17.1675 17.7189 16.9627 17.4442C15.3493 15.2812 12.8266 13.9001 9.99998 13.9001Z" fill="#D22E2F"/>
</g>
</svg>
