<svg width="20" height="20" viewBox="0 0 20 20" fill="none" xmlns="http://www.w3.org/2000/svg">
<path id="Union" fill-rule="evenodd" clip-rule="evenodd" d="M15.8976 14.6249C17.1493 13.0918 17.9 11.1336 17.9 9.0001C17.9 4.08476 13.9153 0.100098 8.99998 0.100098C4.08464 0.100098 0.0999756 4.08476 0.0999756 9.0001C0.0999756 13.9154 4.08464 17.9001 8.99998 17.9001C11.1335 17.9001 13.0917 17.1494 14.6248 15.8977L18.3636 19.6365C18.7151 19.988 19.2849 19.988 19.6364 19.6365C19.9878 19.285 19.9878 18.7152 19.6364 18.3637L15.8976 14.6249ZM8.99998 1.9001C5.07875 1.9001 1.89998 5.07888 1.89998 9.0001C1.89998 12.9213 5.07875 16.1001 8.99998 16.1001C10.9157 16.1001 12.6541 15.3414 13.9313 14.1081C13.9562 14.0752 13.9836 14.0437 14.0136 14.0137C14.0436 13.9837 14.0751 13.9563 14.108 13.9314C15.3413 12.6543 16.1 10.9158 16.1 9.0001C16.1 5.07888 12.9212 1.9001 8.99998 1.9001Z" fill="#D22E2F"/>
</svg>
