<svg width="24" height="25" viewBox="0 0 24 25" fill="none" xmlns="http://www.w3.org/2000/svg">
<path d="M21.0049 10.6387H3.00488M16.0049 2.63867V6.63867M8.00488 2.63867V6.63867M7.80488 22.6387H16.2049C17.885 22.6387 18.7251 22.6387 19.3669 22.3117C19.9313 22.0241 20.3903 21.5651 20.6779 21.0006C21.0049 20.3589 21.0049 19.5188 21.0049 17.8387V9.43867C21.0049 7.75851 21.0049 6.91844 20.6779 6.2767C20.3903 5.71221 19.9313 5.25327 19.3669 4.96565C18.7251 4.63867 17.885 4.63867 16.2049 4.63867H7.80488C6.12473 4.63867 5.28465 4.63867 4.64291 4.96565C4.07843 5.25327 3.61948 5.71221 3.33186 6.2767C3.00488 6.91844 3.00488 7.75851 3.00488 9.43867V17.8387C3.00488 19.5188 3.00488 20.3589 3.33186 21.0006C3.61948 21.5651 4.07843 22.0241 4.64291 22.3117C5.28465 22.6387 6.12473 22.6387 7.80488 22.6387Z" stroke="#717171" stroke-linecap="round" stroke-linejoin="round"/>
</svg>
