<svg width="40" height="24" viewBox="0 0 40 24" fill="none" xmlns="http://www.w3.org/2000/svg">
<path id="Vector 15821" d="M39 22.5C39.2761 22.5 39.5 22.7239 39.5 23C39.5 23.2761 39.2761 23.5 39 23.5V22.5ZM3 5.66667C1.52724 5.66667 0.333332 4.47276 0.333332 3C0.333332 1.52724 1.52724 0.333334 3 0.333334C4.47276 0.333334 5.66667 1.52724 5.66667 3C5.66667 4.47276 4.47276 5.66667 3 5.66667ZM39 23V23.5L8.20015 23.5V23V22.5L39 22.5V23ZM3 17.7998H2.5V3H3H3.5V17.7998H3ZM8.20015 23V23.5C5.05204 23.5 2.5 20.948 2.5 17.7998H3H3.5C3.5 20.3957 5.60433 22.5 8.20015 22.5V23Z" fill="#F2C1C1"/>
</svg>
