<svg width="25" height="24" viewBox="0 0 25 24" fill="none" xmlns="http://www.w3.org/2000/svg">
<path d="M21.7158 10H3.71582M16.7158 2V6M8.71582 2V6M9.71582 16L11.7158 18L16.2158 13.5M8.51582 22H16.9158C18.596 22 19.4361 22 20.0778 21.673C20.6423 21.3854 21.1012 20.9265 21.3888 20.362C21.7158 19.7202 21.7158 18.8802 21.7158 17.2V8.8C21.7158 7.11984 21.7158 6.27976 21.3888 5.63803C21.1012 5.07354 20.6423 4.6146 20.0778 4.32698C19.4361 4 18.596 4 16.9158 4H8.51582C6.83566 4 5.99558 4 5.35385 4.32698C4.78936 4.6146 4.33042 5.07354 4.0428 5.63803C3.71582 6.27976 3.71582 7.11984 3.71582 8.8V17.2C3.71582 18.8802 3.71582 19.7202 4.0428 20.362C4.33042 20.9265 4.78936 21.3854 5.35385 21.673C5.99558 22 6.83566 22 8.51582 22Z" stroke="white" stroke-linecap="round" stroke-linejoin="round"/>
</svg>
