<svg width="40" height="41" viewBox="0 0 40 41" fill="none" xmlns="http://www.w3.org/2000/svg">
<g clip-path="url(#clip0_8535_30534)">
<path d="M31.772 37.2251L31.284 35.2411C31.094 34.4691 30.844 33.7061 30.448 33.0171C29.484 31.3371 27.962 30.0261 26.123 29.3271L22.304 27.8761C21.826 27.6941 21.335 27.5601 20.84 27.4561V29.0651C20.84 30.1651 19.95 31.0551 18.85 31.0551C17.75 31.0551 16.86 30.1651 16.86 29.0651V27.4531C16.36 27.5571 15.864 27.6931 15.381 27.8771L11.562 29.3281C10.183 29.8521 8.98199 30.7211 8.06099 31.8311C7.18399 32.8891 6.65399 34.1911 6.37499 35.5371L6.02199 37.2431C5.96099 37.5381 6.18599 37.8161 6.48799 37.8161H31.31C31.619 37.8161 31.846 37.5251 31.772 37.2251Z" fill="#9ECBFC"/>
<path d="M22.304 25.8025H25.836C26.612 25.8025 27.272 25.2385 27.393 24.4725L27.899 21.2695C27.457 21.4775 26.967 21.6065 26.441 21.6085C25.628 23.4655 24.142 24.9545 22.305 25.8015L22.304 25.8025Z" fill="#193D64"/>
<path d="M11.24 21.6073C10.557 21.6003 9.92499 21.4023 9.39999 21.0703L10.28 24.6063C10.455 25.3083 11.086 25.8013 11.809 25.8013H15.39C13.547 24.9543 12.06 23.4643 11.239 21.6083L11.24 21.6073Z" fill="#193D64"/>
<path d="M20.16 14.0586C22.341 15.3216 25.012 16.5166 27.149 16.3746C27.246 16.3686 27.357 16.3346 27.467 16.2876C27.747 16.1296 27.984 15.8516 28.201 15.8846C28.211 15.8856 28.221 15.8796 28.23 15.8826C28.233 15.7006 28.215 15.5246 28.207 15.3456C28.197 15.3476 28.188 15.3536 28.177 15.3506C25.999 14.6426 23.223 14.1756 20.16 14.0586Z" fill="#193D64"/>
<path d="M10.482 17.1454C10.562 17.2904 10.756 17.3224 10.866 17.1994L13.369 14.3984C11.805 14.6254 10.374 14.9484 9.13799 15.3504C9.12799 15.3534 9.12099 15.3474 9.11199 15.3464C9.10499 15.5564 9.09299 15.7674 9.09999 15.9734C9.10199 16.0254 9.14199 16.0684 9.19299 16.0714C9.19499 16.0714 9.19499 16.0734 9.19699 16.0734C9.40899 16.0754 9.95199 16.1834 10.482 17.1454Z" fill="#193D64"/>
<path d="M18.85 31.0583C19.95 31.0583 20.84 30.1683 20.84 29.0683V26.3283C21.35 26.2023 21.835 26.0173 22.304 25.8013C24.142 24.9543 25.627 23.4643 26.44 21.6083C26.966 21.6053 27.457 21.4763 27.898 21.2693C28.985 20.7583 29.74 19.7143 29.74 18.4983C29.74 17.3993 29.121 16.4393 28.202 15.8843C27.985 15.8503 27.748 16.1293 27.468 16.2873C27.358 16.3343 27.246 16.3683 27.15 16.3743C25.012 16.5163 22.341 15.3203 20.161 14.0583C19.667 14.0393 19.167 14.0273 18.659 14.0273C16.79 14.0273 15.007 14.1593 13.37 14.3973L10.867 17.1983C10.757 17.3213 10.562 17.2893 10.483 17.1443C9.95298 16.1823 9.40998 16.0743 9.19798 16.0723C9.19598 16.0723 9.19598 16.0703 9.19398 16.0703C8.43298 16.6423 7.94098 17.5153 7.94098 18.4973C7.94098 19.5693 8.51898 20.5113 9.40098 21.0703C9.92598 21.4033 10.558 21.6003 11.241 21.6073C12.062 23.4643 13.549 24.9533 15.392 25.8003C15.862 26.0163 16.349 26.2013 16.861 26.3273V29.0673C16.861 30.1673 17.751 31.0573 18.851 31.0573L18.85 31.0583Z" fill="#FFCCA8"/>
<path d="M16.51 18.9208C16.9977 18.9208 17.393 18.4462 17.393 17.8608C17.393 17.2754 16.9977 16.8008 16.51 16.8008C16.0223 16.8008 15.627 17.2754 15.627 17.8608C15.627 18.4462 16.0223 18.9208 16.51 18.9208Z" fill="#191919"/>
<path d="M21.175 18.9208C21.6627 18.9208 22.058 18.4462 22.058 17.8608C22.058 17.2754 21.6627 16.8008 21.175 16.8008C20.6873 16.8008 20.292 17.2754 20.292 17.8608C20.292 18.4462 20.6873 18.9208 21.175 18.9208Z" fill="#191919"/>
<path d="M17.744 23.4805C17.545 23.4805 17.404 23.2895 17.457 23.0985C17.624 22.4905 18.181 22.0435 18.843 22.0435C19.505 22.0435 20.062 22.4905 20.229 23.0985C20.282 23.2895 20.141 23.4805 19.942 23.4805L17.744 23.4805Z" fill="#4E1112"/>
<path d="M18.853 29.4617C18.03 29.4617 17.306 29.0527 16.862 28.4297V29.0697C16.862 30.1687 17.753 31.0607 18.853 31.0607C19.953 31.0607 20.844 30.1697 20.844 29.0697V28.4297C20.4 29.0517 19.676 29.4617 18.853 29.4617Z" fill="#255B95"/>
<path d="M15.828 33.2117C16.2047 33.2117 16.51 32.9063 16.51 32.5297C16.51 32.153 16.2047 31.8477 15.828 31.8477C15.4513 31.8477 15.146 32.153 15.146 32.5297C15.146 32.9063 15.4513 33.2117 15.828 33.2117Z" fill="#255B95"/>
<path d="M22.059 33.2117C22.4356 33.2117 22.741 32.9063 22.741 32.5297C22.741 32.153 22.4356 31.8477 22.059 31.8477C21.6823 31.8477 21.377 32.153 21.377 32.5297C21.377 32.9063 21.6823 33.2117 22.059 33.2117Z" fill="#255B95"/>
<path d="M15.828 37.1218C16.2047 37.1218 16.51 36.8165 16.51 36.4398C16.51 36.0632 16.2047 35.7578 15.828 35.7578C15.4513 35.7578 15.146 36.0632 15.146 36.4398C15.146 36.8165 15.4513 37.1218 15.828 37.1218Z" fill="#255B95"/>
<path d="M22.059 37.1218C22.4356 37.1218 22.741 36.8165 22.741 36.4398C22.741 36.0632 22.4356 35.7578 22.059 35.7578C21.6823 35.7578 21.377 36.0632 21.377 36.4398C21.377 36.8165 21.6823 37.1218 22.059 37.1218Z" fill="#255B95"/>
<path d="M31.09 9.37241C31.09 7.65941 29.701 6.27141 27.989 6.27141C27.916 6.27141 27.848 6.28841 27.776 6.29241C27.04 5.15941 25.651 4.38541 24.036 4.38541C23.535 4.38541 23.061 4.47341 22.613 4.60941C21.822 3.52741 20.553 2.81641 19.11 2.81641C17.535 2.81641 16.169 3.66141 15.406 4.91441C14.764 4.58641 14.023 4.38541 13.222 4.38541C11.613 4.38541 10.226 5.15541 9.48898 6.28241C9.45298 6.28141 9.41898 6.27141 9.38298 6.27141C7.66998 6.27141 6.28198 7.66041 6.28198 9.37241C6.28198 10.9714 7.49698 12.2724 9.05098 12.4404V15.2814C9.05098 15.3054 9.06198 15.3254 9.07798 15.3384C9.06098 15.3254 9.05098 15.3054 9.05098 15.2814V12.4654C11.591 11.6254 14.962 11.1134 18.66 11.1134C22.358 11.1134 25.728 11.6254 28.268 12.4654V15.2814V12.4464C29.849 12.3034 31.091 10.9904 31.091 9.37341L31.09 9.37241Z" fill="#C5E0FD"/>
<path d="M28.178 15.3483C28.189 15.3523 28.198 15.3453 28.208 15.3433C28.239 15.3383 28.266 15.3172 28.266 15.2812C28.266 15.3293 28.224 15.3623 28.178 15.3483Z" fill="#C5E0FD"/>
<path d="M18.658 11.1133C14.96 11.1133 11.59 11.6253 9.04999 12.4653V15.2813C9.04999 15.3053 9.06099 15.3253 9.07699 15.3383C9.08699 15.3453 9.09999 15.3433 9.11199 15.3443C9.12099 15.3443 9.12799 15.3513 9.13799 15.3483C10.374 14.9463 11.805 14.6233 13.369 14.3963C15.006 14.1583 16.789 14.0263 18.658 14.0263C19.166 14.0263 19.666 14.0383 20.16 14.0573C23.222 14.1743 26 14.6413 28.178 15.3493C28.223 15.3643 28.267 15.3303 28.267 15.2823V12.4663C25.727 11.6263 22.356 11.1143 18.658 11.1143V11.1133Z" fill="#9ECBFC"/>
<circle cx="27.3593" cy="26.2751" r="6" transform="rotate(27.2156 27.3593 26.2751)" fill="#D22E2F"/>
<path d="M26.4731 23.5117L28.2456 29.039" stroke="white" stroke-linecap="round" stroke-linejoin="round"/>
<path d="M30.1229 25.3867L24.5956 27.1592" stroke="white" stroke-linecap="round" stroke-linejoin="round"/>
<path d="M26.8769 29.4033L22.5497 37.8164H20.3007L25.0976 28.4883L26.8769 29.4033Z" fill="#D22E2F"/>
</g>
<defs>
<clipPath id="clip0_8535_30534">
<rect width="40" height="40" fill="white" transform="translate(0 0.316406)"/>
</clipPath>
</defs>
</svg>
