<svg width="40" height="40" viewBox="0 0 40 40" fill="none" xmlns="http://www.w3.org/2000/svg">
<g clip-path="url(#clip0_9531_45953)">
<path d="M31.7717 36.9087L31.2837 34.9247C31.0937 34.1527 30.8437 33.3897 30.4477 32.7007C29.4837 31.0207 27.9617 29.7097 26.1227 29.0107L22.3037 27.5597C21.8257 27.3777 21.3347 27.2437 20.8397 27.1397V28.7487C20.8397 29.8487 19.9497 30.7387 18.8497 30.7387C17.7497 30.7387 16.8597 29.8487 16.8597 28.7487V27.1367C16.3597 27.2407 15.8637 27.3767 15.3807 27.5607L11.5617 29.0117C10.1827 29.5357 8.98175 30.4047 8.06075 31.5147C7.18375 32.5727 6.65375 33.8747 6.37475 35.2207L6.02175 36.9267C5.96075 37.2217 6.18575 37.4997 6.48775 37.4997H31.3097C31.6187 37.4997 31.8457 37.2087 31.7717 36.9087Z" fill="#9ECBFC"/>
<path d="M22.3047 25.4861H25.8367C26.6127 25.4861 27.2727 24.9221 27.3937 24.1561L27.8997 20.9531C27.4577 21.1611 26.9677 21.2901 26.4417 21.2921C25.6287 23.1491 24.1427 24.6381 22.3057 25.4851L22.3047 25.4861Z" fill="#193D64"/>
<path d="M11.2404 21.2909C10.5574 21.2839 9.92539 21.0859 9.40039 20.7539L10.2804 24.2899C10.4554 24.9919 11.0864 25.4849 11.8094 25.4849H15.3904C13.5474 24.6379 12.0604 23.1479 11.2394 21.2919L11.2404 21.2909Z" fill="#193D64"/>
<path d="M20.1592 13.7422C22.3402 15.0052 25.0112 16.2002 27.1482 16.0582C27.2452 16.0522 27.3562 16.0182 27.4662 15.9712C27.7462 15.8132 27.9832 15.5352 28.2002 15.5682C28.2102 15.5692 28.2202 15.5632 28.2292 15.5662C28.2322 15.3842 28.2142 15.2082 28.2062 15.0292C28.1962 15.0312 28.1872 15.0372 28.1762 15.0342C25.9982 14.3262 23.2222 13.8592 20.1592 13.7422Z" fill="#193D64"/>
<path d="M10.4818 16.829C10.5618 16.974 10.7558 17.006 10.8658 16.883L13.3688 14.082C11.8048 14.309 10.3738 14.632 9.13777 15.034C9.12777 15.037 9.12078 15.031 9.11178 15.03C9.10478 15.24 9.09278 15.451 9.09978 15.657C9.10178 15.709 9.14177 15.752 9.19277 15.755C9.19477 15.755 9.19477 15.757 9.19677 15.757C9.40877 15.759 9.95178 15.867 10.4818 16.829Z" fill="#193D64"/>
<path d="M18.8504 30.7419C19.9504 30.7419 20.8404 29.8519 20.8404 28.7519V26.0119C21.3504 25.8859 21.8354 25.7009 22.3044 25.4849C24.1424 24.6379 25.6274 23.1479 26.4404 21.2919C26.9664 21.2889 27.4574 21.1599 27.8984 20.9529C28.9854 20.4419 29.7404 19.3979 29.7404 18.1819C29.7404 17.0829 29.1214 16.1229 28.2024 15.5679C27.9854 15.5339 27.7484 15.8129 27.4684 15.9709C27.3584 16.0179 27.2464 16.0519 27.1504 16.0579C25.0124 16.1999 22.3414 15.0039 20.1614 13.7419C19.6674 13.7229 19.1674 13.7109 18.6594 13.7109C16.7904 13.7109 15.0074 13.8429 13.3704 14.0809L10.8674 16.8819C10.7574 17.0049 10.5624 16.9729 10.4834 16.8279C9.95341 15.8659 9.41041 15.7579 9.19841 15.7559C9.19641 15.7559 9.19641 15.7539 9.19441 15.7539C8.43341 16.3259 7.94141 17.1989 7.94141 18.1809C7.94141 19.2529 8.51941 20.1949 9.40141 20.7539C9.92641 21.0869 10.5584 21.2839 11.2414 21.2909C12.0624 23.1479 13.5494 24.6369 15.3924 25.4839C15.8624 25.6999 16.3494 25.8849 16.8614 26.0109V28.7509C16.8614 29.8509 17.7514 30.7409 18.8514 30.7409L18.8504 30.7419Z" fill="#FFCCA8"/>
<path d="M16.51 18.6044C16.9976 18.6044 17.393 18.1298 17.393 17.5444C17.393 16.959 16.9976 16.4844 16.51 16.4844C16.0223 16.4844 15.627 16.959 15.627 17.5444C15.627 18.1298 16.0223 18.6044 16.51 18.6044Z" fill="#191919"/>
<path d="M21.174 18.6044C21.6617 18.6044 22.057 18.1298 22.057 17.5444C22.057 16.959 21.6617 16.4844 21.174 16.4844C20.6863 16.4844 20.291 16.959 20.291 17.5444C20.291 18.1298 20.6863 18.6044 21.174 18.6044Z" fill="#191919"/>
<path d="M17.744 23.1641C17.545 23.1641 17.404 22.9731 17.457 22.7821C17.624 22.1741 18.181 21.7271 18.843 21.7271C19.505 21.7271 20.062 22.1741 20.229 22.7821C20.282 22.9731 20.141 23.1641 19.942 23.1641L17.744 23.1641Z" fill="#4E1112"/>
<path d="M18.8523 29.1453C18.0293 29.1453 17.3053 28.7363 16.8613 28.1133V28.7533C16.8613 29.8523 17.7523 30.7443 18.8523 30.7443C19.9523 30.7443 20.8433 29.8533 20.8433 28.7533V28.1133C20.3993 28.7353 19.6753 29.1453 18.8523 29.1453Z" fill="#255B95"/>
<path d="M15.8285 32.8953C16.2051 32.8953 16.5105 32.5899 16.5105 32.2133C16.5105 31.8366 16.2051 31.5312 15.8285 31.5312C15.4518 31.5312 15.1465 31.8366 15.1465 32.2133C15.1465 32.5899 15.4518 32.8953 15.8285 32.8953Z" fill="#255B95"/>
<path d="M22.059 32.8953C22.4356 32.8953 22.741 32.5899 22.741 32.2133C22.741 31.8366 22.4356 31.5312 22.059 31.5312C21.6823 31.5312 21.377 31.8366 21.377 32.2133C21.377 32.5899 21.6823 32.8953 22.059 32.8953Z" fill="#255B95"/>
<path d="M15.8285 36.8054C16.2051 36.8054 16.5105 36.5001 16.5105 36.1234C16.5105 35.7468 16.2051 35.4414 15.8285 35.4414C15.4518 35.4414 15.1465 35.7468 15.1465 36.1234C15.1465 36.5001 15.4518 36.8054 15.8285 36.8054Z" fill="#255B95"/>
<path d="M22.059 36.8054C22.4356 36.8054 22.741 36.5001 22.741 36.1234C22.741 35.7468 22.4356 35.4414 22.059 35.4414C21.6823 35.4414 21.377 35.7468 21.377 36.1234C21.377 36.5001 21.6823 36.8054 22.059 36.8054Z" fill="#255B95"/>
<path d="M31.0893 9.056C31.0893 7.343 29.7003 5.955 27.9883 5.955C27.9153 5.955 27.8472 5.972 27.7752 5.976C27.0392 4.843 25.6502 4.069 24.0352 4.069C23.5343 4.069 23.0603 4.157 22.6123 4.293C21.8213 3.211 20.5523 2.5 19.1093 2.5C17.5343 2.5 16.1683 3.345 15.4053 4.598C14.7633 4.27 14.0223 4.069 13.2213 4.069C11.6123 4.069 10.2253 4.839 9.48825 5.966C9.45225 5.965 9.41825 5.955 9.38225 5.955C7.66925 5.955 6.28125 7.344 6.28125 9.056C6.28125 10.655 7.49625 11.956 9.05025 12.124V14.965C9.05025 14.989 9.06125 15.009 9.07725 15.022C9.06025 15.009 9.05025 14.989 9.05025 14.965V12.149C11.5902 11.309 14.9613 10.797 18.6593 10.797C22.3573 10.797 25.7272 11.309 28.2673 12.149V14.965V12.13C29.8482 11.987 31.0903 10.674 31.0903 9.057L31.0893 9.056Z" fill="#C5E0FD"/>
<path d="M28.1768 15.0318C28.1878 15.0358 28.1968 15.0288 28.2068 15.0268C28.2378 15.0218 28.2648 15.0008 28.2648 14.9648C28.2648 15.0128 28.2228 15.0458 28.1768 15.0318Z" fill="#C5E0FD"/>
<path d="M18.6568 10.7969C14.9588 10.7969 11.5888 11.3089 9.04883 12.1489V14.9649C9.04883 14.9889 9.05983 15.0089 9.07583 15.0219C9.08583 15.0289 9.09883 15.0269 9.11083 15.0279C9.11983 15.0279 9.12683 15.0349 9.13683 15.0319C10.3728 14.6299 11.8038 14.3069 13.3678 14.0799C15.0048 13.8419 16.7878 13.7099 18.6568 13.7099C19.1648 13.7099 19.6648 13.7219 20.1588 13.7409C23.2208 13.8579 25.9988 14.3249 28.1768 15.0329C28.2218 15.0479 28.2658 15.0139 28.2658 14.9659V12.1499C25.7258 11.3099 22.3548 10.7979 18.6568 10.7979V10.7969Z" fill="#9ECBFC"/>
<circle cx="27.3593" cy="25.9587" r="6" transform="rotate(27.2156 27.3593 25.9587)" fill="#D22E2F"/>
<path d="M26.4746 23.1953L28.2471 28.7226" stroke="white" stroke-linecap="round" stroke-linejoin="round"/>
<path d="M30.123 25.0703L24.5958 26.8428" stroke="white" stroke-linecap="round" stroke-linejoin="round"/>
<path d="M26.877 29.0869L22.5498 37.5H20.3008L25.0977 28.1719L26.877 29.0869Z" fill="#D22E2F"/>
</g>
<defs>
<clipPath id="clip0_9531_45953">
<rect width="40" height="40" fill="white"/>
</clipPath>
</defs>
</svg>
