<svg width="41" height="40" viewBox="0 0 41 40" fill="none" xmlns="http://www.w3.org/2000/svg">
<g clip-path="url(#clip0_9174_76602)">
<path d="M31.8042 36.9087L31.3162 34.9247C31.1262 34.1527 30.8762 33.3897 30.4802 32.7007C29.5162 31.0207 27.9942 29.7097 26.1552 29.0107L22.3362 27.5597C21.8582 27.3777 21.3672 27.2437 20.8722 27.1397V28.7487C20.8722 29.8487 19.9822 30.7387 18.8822 30.7387C17.7822 30.7387 16.8922 29.8487 16.8922 28.7487V27.1367C16.3922 27.2407 15.8962 27.3767 15.4132 27.5607L11.5942 29.0117C10.2152 29.5357 9.01422 30.4047 8.09322 31.5147C7.21622 32.5727 6.68622 33.8747 6.40722 35.2207L6.05422 36.9267C5.99322 37.2217 6.21822 37.4997 6.52022 37.4997H31.3422C31.6512 37.4997 31.8782 37.2087 31.8042 36.9087Z" fill="#9ECBFC"/>
<path d="M22.3363 25.4861H25.8683C26.6443 25.4861 27.3043 24.9221 27.4253 24.1561L27.9313 20.9531C27.4893 21.1611 26.9993 21.2901 26.4733 21.2921C25.6603 23.1491 24.1743 24.6381 22.3373 25.4851L22.3363 25.4861Z" fill="#193D64"/>
<path d="M11.2723 21.2909C10.5893 21.2839 9.95725 21.0859 9.43225 20.7539L10.3123 24.2899C10.4873 24.9919 11.1183 25.4849 11.8413 25.4849H15.4223C13.5793 24.6379 12.0923 23.1479 11.2713 21.2919L11.2723 21.2909Z" fill="#193D64"/>
<path d="M20.1923 13.7422C22.3733 15.0052 25.0443 16.2002 27.1813 16.0582C27.2783 16.0522 27.3893 16.0182 27.4993 15.9712C27.7793 15.8132 28.0163 15.5352 28.2333 15.5682C28.2433 15.5692 28.2533 15.5632 28.2623 15.5662C28.2653 15.3842 28.2473 15.2082 28.2393 15.0292C28.2293 15.0312 28.2203 15.0372 28.2093 15.0342C26.0313 14.3262 23.2553 13.8592 20.1923 13.7422Z" fill="#193D64"/>
<path d="M10.5142 16.829C10.5942 16.974 10.7882 17.006 10.8982 16.883L13.4012 14.082C11.8372 14.309 10.4062 14.632 9.17024 15.034C9.16024 15.037 9.15325 15.031 9.14425 15.03C9.13725 15.24 9.12525 15.451 9.13225 15.657C9.13425 15.709 9.17425 15.752 9.22525 15.755C9.22725 15.755 9.22725 15.757 9.22925 15.757C9.44125 15.759 9.98425 15.867 10.5142 16.829Z" fill="#193D64"/>
<path d="M18.8823 30.7419C19.9823 30.7419 20.8723 29.8519 20.8723 28.7519V26.0119C21.3823 25.8859 21.8673 25.7009 22.3363 25.4849C24.1743 24.6379 25.6593 23.1479 26.4723 21.2919C26.9983 21.2889 27.4893 21.1599 27.9303 20.9529C29.0173 20.4419 29.7723 19.3979 29.7723 18.1819C29.7723 17.0829 29.1533 16.1229 28.2343 15.5679C28.0173 15.5339 27.7803 15.8129 27.5003 15.9709C27.3903 16.0179 27.2783 16.0519 27.1823 16.0579C25.0443 16.1999 22.3733 15.0039 20.1933 13.7419C19.6993 13.7229 19.1993 13.7109 18.6913 13.7109C16.8223 13.7109 15.0393 13.8429 13.4023 14.0809L10.8993 16.8819C10.7893 17.0049 10.5943 16.9729 10.5153 16.8279C9.98527 15.8659 9.44227 15.7579 9.23027 15.7559C9.22827 15.7559 9.22827 15.7539 9.22627 15.7539C8.46527 16.3259 7.97327 17.1989 7.97327 18.1809C7.97327 19.2529 8.55127 20.1949 9.43327 20.7539C9.95827 21.0869 10.5903 21.2839 11.2733 21.2909C12.0943 23.1479 13.5813 24.6369 15.4243 25.4839C15.8943 25.6999 16.3813 25.8849 16.8933 26.0109V28.7509C16.8933 29.8509 17.7833 30.7409 18.8833 30.7409L18.8823 30.7419Z" fill="#FFCCA8"/>
<path d="M16.5423 18.6044C17.03 18.6044 17.4253 18.1298 17.4253 17.5444C17.4253 16.959 17.03 16.4844 16.5423 16.4844C16.0546 16.4844 15.6593 16.959 15.6593 17.5444C15.6593 18.1298 16.0546 18.6044 16.5423 18.6044Z" fill="#191919"/>
<path d="M21.2073 18.6044C21.695 18.6044 22.0903 18.1298 22.0903 17.5444C22.0903 16.959 21.695 16.4844 21.2073 16.4844C20.7197 16.4844 20.3243 16.959 20.3243 17.5444C20.3243 18.1298 20.7197 18.6044 21.2073 18.6044Z" fill="#191919"/>
<path d="M19.9743 21.7266C20.1733 21.7266 20.3143 21.9176 20.2613 22.1086C20.0943 22.7166 19.5373 23.1636 18.8753 23.1636C18.2133 23.1636 17.6563 22.7166 17.4893 22.1086C17.4363 21.9176 17.5773 21.7266 17.7763 21.7266H19.9743Z" fill="#4E1112"/>
<path d="M18.8852 29.1453C18.0622 29.1453 17.3382 28.7363 16.8942 28.1133V28.7533C16.8942 29.8523 17.7852 30.7443 18.8852 30.7443C19.9852 30.7443 20.8762 29.8533 20.8762 28.7533V28.1133C20.4322 28.7353 19.7082 29.1453 18.8852 29.1453Z" fill="#255B95"/>
<path d="M15.8602 32.8953C16.2369 32.8953 16.5422 32.5899 16.5422 32.2133C16.5422 31.8366 16.2369 31.5312 15.8602 31.5312C15.4836 31.5312 15.1782 31.8366 15.1782 32.2133C15.1782 32.5899 15.4836 32.8953 15.8602 32.8953Z" fill="#255B95"/>
<path d="M22.0912 32.8953C22.4678 32.8953 22.7732 32.5899 22.7732 32.2133C22.7732 31.8366 22.4678 31.5312 22.0912 31.5312C21.7145 31.5312 21.4092 31.8366 21.4092 32.2133C21.4092 32.5899 21.7145 32.8953 22.0912 32.8953Z" fill="#255B95"/>
<path d="M15.8602 36.8054C16.2369 36.8054 16.5422 36.5001 16.5422 36.1234C16.5422 35.7468 16.2369 35.4414 15.8602 35.4414C15.4836 35.4414 15.1782 35.7468 15.1782 36.1234C15.1782 36.5001 15.4836 36.8054 15.8602 36.8054Z" fill="#255B95"/>
<path d="M22.0912 36.8054C22.4678 36.8054 22.7732 36.5001 22.7732 36.1234C22.7732 35.7468 22.4678 35.4414 22.0912 35.4414C21.7145 35.4414 21.4092 35.7468 21.4092 36.1234C21.4092 36.5001 21.7145 36.8054 22.0912 36.8054Z" fill="#255B95"/>
<path d="M31.1222 9.056C31.1222 7.343 29.7332 5.955 28.0212 5.955C27.9482 5.955 27.8802 5.972 27.8082 5.976C27.0722 4.843 25.6832 4.069 24.0682 4.069C23.5672 4.069 23.0932 4.157 22.6452 4.293C21.8542 3.211 20.5852 2.5 19.1422 2.5C17.5672 2.5 16.2012 3.345 15.4382 4.598C14.7962 4.27 14.0552 4.069 13.2542 4.069C11.6452 4.069 10.2582 4.839 9.52121 5.966C9.48521 5.965 9.45121 5.955 9.41521 5.955C7.70221 5.955 6.31421 7.344 6.31421 9.056C6.31421 10.655 7.52921 11.956 9.08321 12.124V14.965C9.08321 14.989 9.09421 15.009 9.11021 15.022C9.09321 15.009 9.08321 14.989 9.08321 14.965V12.149C11.6232 11.309 14.9942 10.797 18.6922 10.797C22.3902 10.797 25.7602 11.309 28.3002 12.149V14.965V12.13C29.8812 11.987 31.1232 10.674 31.1232 9.057L31.1222 9.056Z" fill="#C5E0FD"/>
<path d="M28.2102 15.0318C28.2212 15.0358 28.2302 15.0288 28.2402 15.0268C28.2712 15.0218 28.2982 15.0008 28.2982 14.9648C28.2982 15.0128 28.2562 15.0458 28.2102 15.0318Z" fill="#C5E0FD"/>
<path d="M18.6902 10.7969C14.9922 10.7969 11.6222 11.3089 9.08215 12.1489V14.9649C9.08215 14.9889 9.09315 15.0089 9.10915 15.0219C9.11915 15.0289 9.13215 15.0269 9.14415 15.0279C9.15315 15.0279 9.16015 15.0349 9.17015 15.0319C10.4062 14.6299 11.8372 14.3069 13.4012 14.0799C15.0382 13.8419 16.8212 13.7099 18.6902 13.7099C19.1982 13.7099 19.6982 13.7219 20.1922 13.7409C23.2542 13.8579 26.0322 14.3249 28.2102 15.0329C28.2552 15.0479 28.2992 15.0139 28.2992 14.9659V12.1499C25.7592 11.3099 22.3882 10.7979 18.6902 10.7979V10.7969Z" fill="#9ECBFC"/>
<circle cx="27.3914" cy="25.9587" r="6" transform="rotate(27.2156 27.3914 25.9587)" fill="#3E98F9"/>
<path d="M24.8411 24.3603L25.8406 27.1876L30.8825 25.7323" stroke="#FFF8EB" stroke-linecap="round" stroke-linejoin="round"/>
<path d="M26.9091 29.0869L22.5819 37.5H20.3329L25.1298 28.1719L26.9091 29.0869Z" fill="#3E98F9"/>
</g>
<defs>
<clipPath id="clip0_9174_76602">
<rect width="40" height="40" fill="white" transform="translate(0.0322266)"/>
</clipPath>
</defs>
</svg>
