<svg width="245" height="84" viewBox="0 0 245 84" fill="none" xmlns="http://www.w3.org/2000/svg">
<g id="Group 2608635">
<ellipse id="Ellipse 2287" cx="84.6747" cy="25.955" rx="2.90321" ry="2.93549" fill="#FFE787"/>
<ellipse id="Ellipse 2297" cx="0.996198" cy="1.00728" rx="0.996198" ry="1.00728" transform="matrix(1 0 0 -1 107.672 18.9883)" fill="#D4A7A7"/>
<ellipse id="Ellipse 2295" cx="52.881" cy="42.1557" rx="0.996198" ry="1.00728" fill="#8DBCEF"/>
<ellipse id="Ellipse 2296" opacity="0.4" cx="218.254" cy="58.2729" rx="0.996198" ry="1.00728" fill="#932021"/>
<ellipse id="Ellipse 2291" cx="45.4789" cy="14.4131" rx="1.4516" ry="1.46775" fill="#3E98F9"/>
<ellipse id="Ellipse 2292" opacity="0.2" cx="1.45852" cy="0.730437" rx="1.45852" ry="0.730437" transform="matrix(0.753349 -0.657621 0.649339 0.760499 162.037 57.3398)" fill="#932021"/>
<ellipse id="Ellipse 2288" cx="187.69" cy="80.3456" rx="2.90321" ry="2.93549" fill="#FFE787"/>
<path id="Vector" d="M233.687 41.442C234.203 41.7818 234.847 41.9819 235.455 42.0427C236.062 42.1034 236.582 41.7851 237.03 41.4119C238.036 40.575 238.773 39.1683 238.59 37.8101C238.524 37.3288 238.188 36.4001 237.547 36.4981C237.272 36.5412 236.948 36.8129 236.838 37.0629C236.699 37.3815 236.882 37.7503 237.067 38.0209C237.81 39.1163 239.281 39.3397 240.432 38.9276C242.012 38.36 242.982 36.9005 243.724 35.4803C243.978 34.9978 244.709 35.463 244.457 35.9431C243.586 37.6051 242.404 39.2039 240.537 39.7966C238.955 40.2963 236.929 39.7393 236.156 38.1279C235.727 37.234 236.014 36.3627 236.845 35.8647C237.675 35.3667 238.513 35.7694 239.011 36.5239C240.002 38.0194 239.294 40.1438 238.286 41.3729C237.708 42.0773 236.859 42.793 235.909 42.8959C235.039 42.9896 233.975 42.6403 233.243 42.1608C232.776 41.8559 233.221 41.1347 233.687 41.442Z" fill="#FFE787"/>
<path id="Vector_2" d="M56.9842 55.6639C57.0277 56.1496 57.2177 56.6467 57.475 57.0539C57.7323 57.461 58.1773 57.6297 58.6212 57.7274C59.6173 57.9477 60.8295 57.7246 61.5668 56.9534C61.8276 56.6793 62.2295 56.0207 61.8595 55.6696C61.7004 55.5198 61.3782 55.4498 61.1727 55.5023C60.9117 55.5701 60.776 55.8624 60.7014 56.109C60.3948 57.1009 60.9715 58.1238 61.7795 58.6399C62.8897 59.3472 64.2468 59.2434 65.4696 59.0169C65.886 58.9412 65.9571 59.621 65.5429 59.6965C64.1107 59.9598 62.5663 59.9995 61.3018 59.1258C60.2319 58.3842 59.5896 56.8551 60.1949 55.5941C60.5308 54.8946 61.1997 54.6512 61.9047 54.9265C62.6098 55.2017 62.7706 55.9175 62.553 56.5925C62.1234 57.9326 60.4886 58.5209 59.2534 58.4898C58.5453 58.4716 57.6986 58.2899 57.1761 57.7493C56.6981 57.2541 56.3951 56.4234 56.332 55.7358C56.2913 55.2979 56.9457 55.2258 56.9842 55.6639Z" fill="#D4A7A7"/>
<rect id="Rectangle 1664145446" width="3.39774" height="4.97394" transform="matrix(0.803243 -0.595652 0.587146 0.809481 202.748 2.02344)" fill="#FFE787"/>
<rect id="Rectangle 1664145449" width="3.30911" height="5.06823" transform="matrix(0.699327 0.714802 -0.707024 0.707189 228.219 70.3594)" fill="#CEDFF2"/>
<rect id="Rectangle 1664145447" opacity="0.3" width="5.82861" height="6.22459" transform="matrix(0.807778 0.589486 -0.580975 0.813921 174.188 17.2852)" fill="#3E98F9"/>
<rect id="Rectangle 1664145448" opacity="0.3" width="4.559" height="4.86873" transform="matrix(0.807778 0.589486 -0.580975 0.813921 3.52734 34.0977)" fill="#3E98F9"/>
<rect id="Rectangle 1664145450" opacity="0.3" width="2.46134" height="2.63479" transform="matrix(0.872037 -0.48944 0.481233 0.876593 83.9355 60.0391)" fill="#3E98F9"/>
<ellipse id="Ellipse 2294" cx="1.28861" cy="2.02782" rx="1.28861" ry="2.02782" transform="matrix(0.773743 0.6335 -0.625093 0.78055 36.082 78.4023)" fill="#FFF1BB"/>
<ellipse id="Ellipse 2290" opacity="0.5" cx="1.45456" cy="2.92962" rx="1.45456" ry="2.92962" transform="matrix(0.902253 0.431207 -0.42348 0.905905 191.254 49.207)" fill="#3E98F9"/>
<g id="Group 39641">
<path id="Vector 115" d="M58.9941 82.1602L61.5126 80.6998" stroke="#FFE787" stroke-width="0.582857"/>
<path id="Vector 116" d="M59.5293 80.1562L60.9736 82.7027" stroke="#FFE787" stroke-width="0.582857"/>
</g>
<g id="Group 39642">
<path id="Vector 115_2" d="M95.8535 78.1328L98.372 76.6725" stroke="#CEDFF2" stroke-width="0.582857"/>
<path id="Vector 116_2" d="M96.3887 76.1289L97.8329 78.6754" stroke="#CEDFF2" stroke-width="0.582857"/>
</g>
<g id="Group 39640">
<path id="Vector 117" d="M218.799 35.9258L220.278 33.4001" stroke="#3E98F9" stroke-width="0.582857"/>
<path id="Vector 118" d="M218.291 33.9141L220.789 35.41" stroke="#3E98F9" stroke-width="0.582857"/>
</g>
<g id="Group 39643" opacity="0.4">
<path id="Vector 117_2" d="M147.076 22.832L148.556 20.3063" stroke="#AE595A" stroke-width="0.582857"/>
<path id="Vector 118_2" d="M146.566 20.8203L149.064 22.3163" stroke="#AE595A" stroke-width="0.582857"/>
</g>
<path id="Vector_3" opacity="0.4" d="M16.4824 57.3343C14.2091 56.8965 12.1095 58.614 12.5437 60.6885C12.7514 61.6752 13.5822 62.4733 14.5603 62.9246C15.6025 63.4062 16.9808 63.6789 18.1552 63.615C19.1673 63.5611 20.3039 62.8875 20.032 61.8537C19.7828 60.9175 18.6235 60.4629 17.6303 60.5976C15.4666 60.8905 14.4961 63.1031 15.0285 64.8172C15.7347 67.0836 18.5404 68.1276 20.9006 67.2048C21.5652 66.9422 20.9912 66.0733 20.3304 66.3326C19.0162 66.8479 17.3396 66.4539 16.5466 65.3762C15.7951 64.3558 15.78 62.9179 16.8222 62.0456C17.2678 61.6718 17.9853 61.4058 18.5631 61.7055C18.7746 61.8166 19.02 62.0254 18.9067 62.2645C18.767 62.5542 18.3063 62.608 18.0042 62.6114C16.5654 62.6316 14.6056 62.2309 13.8654 61.0118C13.0082 59.6075 14.4734 57.9809 16.1803 58.3109C16.8902 58.449 17.1961 57.4758 16.4824 57.3377V57.3343Z" fill="#8DBCEF"/>
</g>
</svg>
