<svg width="15" height="14" viewBox="0 0 15 14" fill="none" xmlns="http://www.w3.org/2000/svg">
<path d="M12.8921 5.83366H2.39209M9.97542 1.16699V3.50033M5.30876 1.16699V3.50033M5.89209 9.33366L7.05876 10.5003L9.68376 7.87533M5.19209 12.8337H10.0921C11.0722 12.8337 11.5622 12.8337 11.9366 12.6429C12.2659 12.4751 12.5336 12.2074 12.7014 11.8781C12.8921 11.5038 12.8921 11.0138 12.8921 10.0337V5.13366C12.8921 4.15357 12.8921 3.66352 12.7014 3.28918C12.5336 2.95989 12.2659 2.69218 11.9366 2.5244C11.5622 2.33366 11.0722 2.33366 10.0921 2.33366H5.19209C4.212 2.33366 3.72195 2.33366 3.34761 2.5244C3.01832 2.69218 2.75061 2.95989 2.58283 3.28918C2.39209 3.66352 2.39209 4.15357 2.39209 5.13366V10.0337C2.39209 11.0138 2.39209 11.5038 2.58283 11.8781C2.75061 12.2074 3.01832 12.4751 3.34761 12.6429C3.72195 12.8337 4.212 12.8337 5.19209 12.8337Z" stroke="white" stroke-linecap="round" stroke-linejoin="round"/>
</svg>
